<mxfile host="app.diagrams.net" modified="2020-11-22T19:21:40.743Z" agent="5.0 (Macintosh; Intel Mac OS X 10_15_6) AppleWebKit/605.1.15 (KHTML, like Gecko) Version/14.0.1 Safari/605.1.15" etag="OpMf_M5orbTJbTSn3N3A" version="13.10.0" type="github">
  <diagram id="4qw1h1vjwUB0_R2Byblj" name="Page-1">
    <mxGraphModel dx="1216" dy="539" grid="1" gridSize="10" guides="1" tooltips="1" connect="1" arrows="1" fold="1" page="1" pageScale="1" pageWidth="850" pageHeight="1100" math="0" shadow="0">
      <root>
        <mxCell id="0" />
        <mxCell id="1" parent="0" />
        <mxCell id="jxB2_oSXEbl3HwbQnMSM-1" style="edgeStyle=orthogonalEdgeStyle;rounded=0;orthogonalLoop=1;jettySize=auto;html=1;exitX=1;exitY=0.25;exitDx=0;exitDy=0;entryX=0;entryY=0.25;entryDx=0;entryDy=0;" parent="1" source="jxB2_oSXEbl3HwbQnMSM-3" target="jxB2_oSXEbl3HwbQnMSM-13" edge="1">
          <mxGeometry relative="1" as="geometry">
            <mxPoint x="230" y="240.625" as="targetPoint" />
          </mxGeometry>
        </mxCell>
        <mxCell id="jxB2_oSXEbl3HwbQnMSM-2" value="Place order" style="edgeLabel;html=1;align=center;verticalAlign=middle;resizable=0;points=[];" parent="jxB2_oSXEbl3HwbQnMSM-1" vertex="1" connectable="0">
          <mxGeometry x="0.235" y="-3" relative="1" as="geometry">
            <mxPoint x="-13.5" y="-3" as="offset" />
          </mxGeometry>
        </mxCell>
        <mxCell id="T0iIaT5kWEUsBNiSIZ3S-9" style="edgeStyle=orthogonalEdgeStyle;rounded=0;orthogonalLoop=1;jettySize=auto;html=1;entryX=0;entryY=0.5;entryDx=0;entryDy=0;" edge="1" parent="1" source="jxB2_oSXEbl3HwbQnMSM-3" target="jxB2_oSXEbl3HwbQnMSM-17">
          <mxGeometry relative="1" as="geometry">
            <Array as="points">
              <mxPoint x="135" y="415" />
            </Array>
          </mxGeometry>
        </mxCell>
        <mxCell id="T0iIaT5kWEUsBNiSIZ3S-10" value="Add money" style="edgeLabel;html=1;align=center;verticalAlign=middle;resizable=0;points=[];" vertex="1" connectable="0" parent="T0iIaT5kWEUsBNiSIZ3S-9">
          <mxGeometry x="0.0853" y="4" relative="1" as="geometry">
            <mxPoint x="29" y="1" as="offset" />
          </mxGeometry>
        </mxCell>
        <mxCell id="jxB2_oSXEbl3HwbQnMSM-3" value="" style="shape=image;verticalLabelPosition=bottom;labelBackgroundColor=#ffffff;verticalAlign=top;aspect=fixed;imageAspect=0;image=data:image/jpeg,/9j/4AAQSkZJRgABAQEAYABgAAD//gA7Q1JFQVRPUjogZ2QtanBlZyB2MS4wICh1c2luZyBJSkcgSlBFRyB2ODApLCBxdWFsaXR5ID0gODIK/9sAQwAGBAQFBAQGBQUFBgYGBwkOCQkICAkSDQ0KDhUSFhYVEhQUFxohHBcYHxkUFB0nHR8iIyUlJRYcKSwoJCshJCUk/9sAQwEGBgYJCAkRCQkRJBgUGCQkJCQkJCQkJCQkJCQkJCQkJCQkJCQkJCQkJCQkJCQkJCQkJCQkJCQkJCQkJCQkJCQk/8AAEQgDKgMqAwEiAAIRAQMRAf/EAB8AAAEFAQEBAQEBAAAAAAAAAAABAgMEBQYHCAkKC//EALUQAAIBAwMCBAMFBQQEAAABfQECAwAEEQUSITFBBhNRYQcicRQygZGhCCNCscEVUtHwJDNicoIJChYXGBkaJSYnKCkqNDU2Nzg5OkNERUZHSElKU1RVVldYWVpjZGVmZ2hpanN0dXZ3eHl6g4SFhoeIiYqSk5SVlpeYmZqio6Slpqeoqaqys7S1tre4ubrCw8TFxsfIycrS09TV1tfY2drh4uPk5ebn6Onq8fLz9PX29/j5+v/EAB8BAAMBAQEBAQEBAQEAAAAAAAABAgMEBQYHCAkKC//EALURAAIBAgQEAwQHBQQEAAECdwABAgMRBAUhMQYSQVEHYXETIjKBCBRCkaGxwQkjM1LwFWJy0QoWJDThJfEXGBkaJicoKSo1Njc4OTpDREVGR0hJSlNUVVZXWFlaY2RlZmdoaWpzdHV2d3h5eoKDhIWGh4iJipKTlJWWl5iZmqKjpKWmp6ipqrKztLW2t7i5usLDxMXGx8jJytLT1NXW19jZ2uLj5OXm5+jp6vLz9PX29/j5+v/aAAwDAQACEQMRAD8A1cUUtGKQwpcUCigLhijFLRQAlKKWigGFGKUCjFACc0oopcUAJRS4paAExRS0UDExRS0UCDFFKBRigAxRijFLigBMUYpcUYoATFLRS4oATFGKXFGKAExS4oxSgUAJiilooATrRilxRigBMUYpcUtADaXFORGkdURSzMcBVGSTXR2/w88QzxCUWiRgjIWSQBvy7UAc1SVoapoWoaLIEv7V4d33WPKt9CODVHFACUU6up8MeALvXYlu7iT7LaN91sZd/oPT3oA5TFGK9RuPhVprQFbe8uY5ccM+GGfcYFcJrnhnUfD8u27h/dk/JMnKN+PY+xoAyQKMUuKWgBuKMUuKKBiUYpcUUCExRiloxQAmKMUtGKBjcc0YpSKXFADTSU4ikxQITFFOxSYoGJijFLiigBuKKdSYoEJRS4oxQMSkpcUUANop2KTFACYoxTsUmKAExSYp2KQigBuKMU7FGKAG4pDTjSYoATFIRTsUGgBtJiloxQA2jFOxSUANxSYp9JQA2kxTsUGgBmKMUuKMUDG96SnGkxQIbjFIRTyMUnFAxmKTFPppoEJSU7FIRQA3FJinYooAZijApxFJj2pDL9GKXFLimSJipPs8whExhkER4D7TtP41s+D/AA9/wketR2rkiBB5kxHXaOw+pwK9ujs7eK1W1SGMQKuwR4+Xb6YoA+daMV2fxG8KR6Ldx31lEEtLg4KKOI39Poev510fgfwNp8emW+o6hbrcXE6bwkgyqKenHrj+dAjyrFGK9m8ReANL1Wzk+yWsNpdgZjeMbQT6MB2rx2aF7eZ4pVKyRsVZT2IoGMxR1pcUUAGKMUuK3fB/htvEmqCFiVtogHmYdcdgPc0AVtJ8L6vrimSxs2eMdZGIVfwJ60mreGtW0Tm+s3jQ9JBhl/MV7pa20VnBHbwRrHFGoVVUcAU90WRCjqGVhggjIIosFz51oxXX/ETw1HouoR3dpFstbrPyjojjqPoev51yOKAExRinYoxngUAW9N0fUNXZ1sLSW4KDLbB0/Go77TrvTZvJvLeW3kxna64yK9m8G6Guh6HBEVAnlAlmP+0R0/AcU7xho8OsaHcxyIDLEjSRNjlWAzRYDxDFOjieaRY40Z3Y4VVGST9KSux+F0Ak8QSyEKfLgYjI7kgcUAccyMjsjqVZTgg9QaMV2PxRjjj8QQ+WqqTbKWwMZO5q4+gBMV3PgjwJHqkK6lqYJtm/1UQOC/ufauNtLZru6ht0+9K6oPxOK99tbaOztoreIBY4kCKPYDFAHLav8NtHvYT9jRrOcLhWQkqT7g15bqFhPpl7LZ3KbZYm2sP6j2r6Ary74q2Qh1a1u1AHnxFT7lT/AIEUAcRiilooAWKGSeVYokZ5HIVVUZJNdppvwt1G4VXvrmK1B5KKN7D+n61vfDrw1DZacmqToGurgbkJH+rTtj3NdpQB5Prvw2v9Mha4s5RexIMsoXDgfTvXIYxX0PXjnj/TrfT/ABHMtsQFlUSsgH3GPX8+v40Ac3ijFLigAnAHWgDv/hj4fEjSazcRghf3cGfXu39Pzr0es/QLH+zNGs7QgBoolDY/vdT+tcfrvxNls9QkttOtYZI4mKNJLn5iDzjB6UxHaatpdtrFjLZ3KKyOMAkZKnsR714XeWxsrye2Zw5hdkLL0ODivTz8SNNOim7HF9jaLbvv+v8Ad968tlleeV5ZGLO5LMfUnrSGifSbL+0dTtbTnE0qocdgTz+le8wwpBEkUahURQqqOwHSvIPh7bC48U2xI4iV5PyGP616H421ubQ9Dee2bbPI4jRsZ2k8k/kDQBv1V1Oxh1KwntJ0V0lQrgjOD2Ncn4G1DxNqTia+dZLAg/vJVAZj/s4/rXZTyLDDJIxAVFLEnsAKYj5/kjMUjIeqkg02pJ382eST++xb8zTKQxuKMU6igBuKXFLijFADaXFKBzjrXpHhfwhYaNYDVtd8veVDBJh8sI7ZB6tQBw2m+HdV1dS9jYyzIP4+Av5nFbUHw016VQzrbQ57PJkj8s1van8ULa3zDpVl5gXgPL8q/gBz/KufufiNr85OyeGAekcY/rmgDTtvhRdNzdajCntGhb+eKv23wrsYzuu7+4lX0RQn881x03i/X5879UuRnspC/wAqz7jU768GLm8uJh6PISKAPTU+HXho8h5mxwf39B+GWgO29Xuwv91ZQR/KvKelSwXVxauHgnliYdCjEGgDq/F/gA6Lbm+095JrZf8AWK/LRj19xXG16v4B8RS6/ZT2OoYmmhUAuwz5iHjn1Neca7Zx2Os3ttD/AKuOZlUegz0oAz8UmKdQRQA2g16p4fs/B1zp9naBbK4uZkGQ4BkZsc57jvV3U4PCfhvy/tdlaQmUHYPI3k469vegDx2nCNz0Rj9BXqTeNvCFtzFbBievl2oH88UH4p6Mi4SzvfYbEH/s1AHmC2lw/wB2CU/RDT10y+kBKWdy2OuIm4/SvSG+K+mdrG9P4L/jTG+LNln5dOuT9WUUAedNpl8i7msrkDpkxNj+VRPbTxjLwSqPUoRXpi/FjT/4tPux9Cp/rUifFPR5MiW0vlB/2VP/ALNQB5XigKWOACT6AV6sPiT4cGP9Gu/+/K8frSp8SfDiuCILlSf4vJHH60AeUvG6cujKD6jFMxXsvjN7TUfBlzdIA8bRrLGxHPJGDXjmKBobRS4oxQB0/hvwFc6/p/8AaDXIggLlVATczY4J6jvW/D8JoMjzdQuCO+I1H9TUXwlvZftF9ZNIxi2LIiZ4U5wSPzH5VieNtR1GHxNfQi9uVjVxtRZCAo2jtQI6qP4SaYD+8vrxh7bR/Suc8c+C7TwzBb3FpdSOsrlDHKQW6ZyMDpXPQ63qlv8A6rUbtPpK3+NQXl9dX8gku7mW4cDAaRyxH50AVsUYpaDQMbikp2KMUANpKcRSUBcTFJinUmKAEVC7BVGWY4A9TXbW3wk1iZFaa6tICwztJZiPyFcUCVIYHBByCO1bknjnxHJGsf8Aas6qowNoAJ+pxk0Adna/B6yRQbzU53I6+WgUfrmrR+GnhSEnzLif0w9wo/pVnxfcSt8O2kZi0kkMO5ieTkrk140RmgR6+Ph34PkbCuTjst1/9enL8PvBsbfNtJ9Guj/jXju0elJtHoKAseyn4d+EHIIXgdhcn/Gm/wDCvvBqtk7fobo/4142VFBA9KB2PZR8O/B0xARATn+G5J/rTj8MPCv/ADylGeP+Pg14vjByOD7Uu9/77fnQI9ng+F/hZDt8maZhz805z+mK808daBb+HPEElnaFvIZFlQMclQe2fqKs/DnUGs/F1kGkbZNuiIJ4OQcfritT4w2+zXrWYD/WW+M+uGP+NAHAGkp+KMUDL2KKKWgR6Z8I7ALaX18QMu4iU+wGT/MflXc3epWlg8MdzcRxPO+yMMcF29BXP/Da0Nr4VgY9ZneX8zj+lcD8QNWlv/E1wodvLtD5UYz0I6n86BHqfiLRU1/TGspCBl1cMe2Dn+WR+NaUcaxRqiAKqgKAOwFRWMvn2VvKWDb41bI75FUvEuq/2Lod3fKQHjTCZ/vHgfqaYGmTXkPxM077H4kNwq4S6jEnH94cH+Q/Oui+HPiq91e6urLULgzPt86Nm69cEfTkVH8W7bda6fc4GVdoyfqAf6UgPNMUooxS0DExXq/wt077NoUl4R811KcH/ZXgfrmvKQCTx1r3vQrMadotna9PLhUH645/WhAyTUNUstKiEt7cxW6E4BdsZPt603TdZ0/V1ZrG7iuAv3gp5H1FeO+LNeuNe1aV5WPkxOyQp2Vc/wAzS+DNTbSvEVpICQkriFwO4Y4/ng0CPR/iNZC78LzvtJeBllGO3OD+hNeO4r3Lxaofw1qQPTyGP6V4dQxoTFavhWz+2+ItPhKBx5yswPTA5P8AKsuuq+GsW/xRG23OyF2z6cY/rQB6zcXMNnCZbiVIowQCznAGTgU51EiMpGQwxXEfFa9aLTrO0U8TSF2+ij/E11miymbR7KRuS0CE/wDfIpiPB5V2yOvoxH613HwnjzqV9J/dhUfm3/1q4u7Obqbj/lo3867z4SoPM1N++Ix/6FSGZPxNcv4mx/dgQfzP9a5Sul+ITFvFV114VB/46K5ugDc8D2ZvPFFimMrGxlb6KM/zxXo/jzVZdJ8PSPbytFPK6xo6nBHOTj8Aa5P4V2wk1a7nI5ihCj/gR/8ArVZ+K96TNY2QPAVpSPrwP5GgDX+HfiO41iymtryUyXFuQQ7feZT6/Ss/4spm201uOHkH6D/Cs34WSbdauY/71uT+TD/Gtb4rLmwsG9JWH6UCPNMVJbwNc3EUC/ekcIPqTim1t+C7MXniaxQjKo/mn/gIz/PFAz1m+uotB0V5to8u1hwqjvgYAryiTx14gku/tP29l5yIwo2Y9MYrtvibeeRoSW6kgzygH3A5/oK8sAoA9Ks/ifaPpcj3ULR3yL8saglZD2IPb8a881C/uNTvJby6ffNKcs2MdsdvpUllpN/qW77HaTT7Blii5AqCe3ltpWinieKRequCCPwoAirS8O2Zv9dsbfbkNMpb6Dk/oKzsV1Hw5g87xPE3/PKN3/TH9aAPSfEd6dO0K+uVOGSFgp9GIwP1NeOWOh6nqhJtLKeYd2C8fn0r3OWGOdDHLGkiHqrAEGlVVRQFAUDsBimI+f5YZIJXilRkkQlWVhggjtTcVo+IpluNd1CVCGVrhyCO/NZ9IZ2/wqtt+pXtwR/q4goP+8f/ALGu/wBR0iz1UwfbIhKsD+YqE/KTjHI71yXwqi26ffS/3pVX8h/9eu5piEVVRQqgKBwAOgrifHnjCCC2n0i0bzJ5V2SuDxGO4+pH5V255HNeS+OvDH9iX32qDm0uWJUf3G6kf4UgOWoxS4pcUDG4opcUUAJRS4oxQBe0CGGfW7GKf/VNOgb356V3fxQS7bT7Xyg5tlkJlA9cfKT7da83BKkEEgjkEdq9C8P/ABFt5YY7LWo8EDabjG5W/wB4UAed4or12fwp4W1cLLGkCmQAhoJNuc+3/wBaq1z8MtGlQCGW5gI77t2fzoC55XSV6S/wqtCvyajOD7oDUf8AwqiPJ/4mrY7fuf8A69AHnVGK9GT4UQiTL6pIU9BEAfzzUjfCqxx8uo3APuoNAXOJ0HxDd+HZpprRY2aVNh3jOOc5rOnmkuZnmlYvJIxZmPcmuw1n4aXun2z3FpcrdiNSzJs2tgenJzXG4x160ANxRTsUmKAL/h6cWuu6fMTgLcJn6bhmu2+LMYNtp0uOQ7rn6gf4V55G3lyI/wDdYGvVvG2kXniDRbMWEPnSK6ybdwXgqfU0AeS4orqY/hx4gcZaGCP2aUf0zVmP4YaqxxJdWcf/AAIn+lAHG4oxXcf8Kqv8jGo2hHrtaqev/D650LTGv/tkVwsZG9Qu0gE4yOeaAOSIoxTqTFADcUYp1FAHoyanaTfDAxy3CeYsRh2E/NuDfKMflXm2KcaTFACYpKdRQM6/4Wy7PEUif89Ldh+RBqn8RYvK8V3ODnciN+lO+HT7PFlqMkb0kX6/KT/Sp/ihCY/Eof8A56W6N+rD+lAjkMUlOpDQMbR0pcUYoENxRTqSgY3FGKXFGKAGkUYpcUYoAaRSU7FJigD1vX/3/wAMEduSLWA5z7rXkWK9r0awi17wDZ2U7Okc1ssZZByMH/61Yg+FWlq4P2q/dRyeEX+dAkeXYpK9YPw68Ow/eEx7/vbpV/lVhfDPhC1ClrfTyv8A00u8/wBaAuePYpCK9D+Itv4ai0+B9OS0jvi4wtqRgpg53Y49PevPTQA2jGKdSEUDNDw3PHa+IdNnlYJGlzGWYnAA3Dmut+L93a3OoWCQXEcrpG28I2duSMf1rgccUlAhuKMD0paKAL2KKMU4LuIA6ngUAe6eGgtr4X04scKlojE+g2g14je3Jvbye5bOZpGf8zmvatSX+z/B8yDjybLYPwTFeHgUAj23wNO9x4U093YswQrk+gYgfyrI+KtyYtCghB/104yPUAE/4Vf+HEjP4TtQwxtaRQfUbzWF8W5f3emw8dZH/kKBGB8NZGj8VQgHAeN1Pvxn+ldd8VU3aBA3925X/wBBauM+Hxx4ss+cZ3j/AMdNdp8VM/8ACPwj/p5X/wBBagZ5RilxRiloAtaTCLjVbKEjIknjUj1ywr2rxLf/ANmaBe3KsFZIiEP+0eB+pryPwhF5vifTV9Jw35c/0r0L4nXAi8N+VnmaZF/Ln+lAHkvWp7B/KvreTONsqtn6EVDilB2kEdRzQB7l4lXzfDuojOM2znP/AAGvDMV7pqB8/wAOXBOTvs2P1yleGAUMEGK7X4V2xk1i6uO0UG38SR/hXFV6V8KLfbZX9xjl5FQfgCf/AGagCl8WJQbvT4geVR2I+pH+FdxoWE0Kx5GBbpz/AMBFeZfEe6Nx4nlTPEEaRj8s/wBa9L0Zgvh2zbsLVD/47QI8Om+aZz6sf516B8Jv+YmP+uX/ALNXn7csT7133wnP73Uhj+GPn/vqgZh/EFSPFV1nuEI/75Fc5XUfEdNniiU5+9Eh/TH9K6DwT4R0bUNDgvru2+0TSM2dzHAwxGMA+1ACfCiHFrqE2PvOi5+gP+NZvjfS9T1rxRItnZTzLHGkYYL8vTPXp3r0ey0+002LyrO3jgQnJVFxk1ZpiOH8E+Cr/Q7/APtC8lhUmJk8pTkjJHU9O1aPxA0v+0fD8kgk2G1PnAY+9gYI/WunrnPH919m8L3WCQZSsYx7nn9M0AePdK7L4X2/ma7PMRxFbnH1LD/69cdXffCmP99qEmP4UX9TSGM+KtzuubG2APyK7n3zgD+Rqf4f+E7G6sV1W8jWd2c+Wh5VQOOR3OayfiVIW8QLHjASFce+STW/4B8SaZbaGtndXcFtLE7cSNt3AnOefrQB2scUcKBI0VFHRVGBXH/ErRY7rSxqSrie2IBIH3kJxg/Q/wBa6Gx8R6VqV01raXsU0wGdq9x7HvUPi5A/hrUQ3TyWP4imI8UxXY/C9M6/M3Py2zf+hLXH123wsH/E2vD6QAf+PCkM9Dv9RtNMgM95cRwxjux6/T1rg/FPxDW5gez0jeA4w9wwwceij+tW/iqhNjYPngSsP0/+tXnFACUYrZ8O+F73xHK4gKxQx/flccA+g9TWbeWcthdy2s4AkiYowByMigD0j4XxOmiTyH7rznb+AFN8X+Mr7w/rcNvbJE8PlB3R15JJPft0qX4ZCQaDLvDBDO2wnoRgZx+Nc98T4yuuwP2a3H6M1MDuPD3iey8RQFoCY50GZIW+8vv7j3qt49sxd+Gbrj5otso9sHn9M15n4c1J9I1m1ulbChwr89VPBr2HWIRdaReRcfvIHA/75NIR4XiiijFAwopcUUANopTRQAmKnu7KexlEVzE0TlQ4U+hGQaiXgg+nNd7420G41i3tNbsI/OU26iRIxlsdQQB160AcCPlIIOCOhFWDqd8UCG9uSo6DzWx/OoGUqxVgQR1BGDSUAWo9W1GIYjvrpR7St/jSnWdTJydQu8n/AKbN/jVVUZuFUsfYZqQWdy3S3mb6IaAJX1nUpF2vqF2w9DK3+NRrqN7H928uF+kh/wAanh0PVLhtsWnXbH2ib/CtK28C67cjcbQQL6zOF/TrQB0/w+8VXWoyvpd9IZXVC8UrH5iBj5T6+tct450+PT/ElykQwkuJgPQt1/XNdl4S8Ft4dun1C7uo5JAhVQnCqD1JJ+lcR4w1RNX1+5uImDxLiNGHQgDr+eaAMWkp2KSgBOnPpXsWpa1cab4Ri1OKOKSUQxMVcHb82Aen1rx7FeraihuPhwOhP2OM/lj/AAoA5OX4k63ITtW0jHoIs/zNVZvHviGXpeiP/cjUf0rn8UUAbv8AwnPiLGP7Rfrn7i/4VU1XxLqutRJDe3bSRochQAoJ9TjrWbSYoAQ0mKdikNACYpCKdilVS5woJPoKAOmufBsNv4PTXDcuZ2CuY8DbgnGPXNctXpE6SN8LFV1ZWRRkMMHAkrzg0ANop2KMUAbPgmTyvFOntnGZCOPdSK2/ivCV1e0m7PBt/Jj/AI1z/hU7PEmnH/putdZ8WIW/4l02Pl+dc+/HFAHneKCKdikxQA3FJTsUlAxKTFOP1pKAENdb4e8FQa34butSa5dLhN/lKMbRtGefrXJV6d4UzZfDy7uGBGY52HHrkf0oA8vxSU6gigGNpKdigrgZ7UAev+G7mWP4cCWJykkVtLtYdQRuwa8jlvLqYky3Mzk92cmvX/A8YvvA0VuON6SxZ+pP+NeQSWs0UzwvG4kRipXHII60CRCRnr+tNwPSnkY4xg03FAxuKTFPIpKBDaTFOxRQMbikxTqTFAhuKTFPxSY+tAy4BVzSoPtWqWcH/PSZF/NhVWtLw0B/wkGm5/5+Y/8A0IUCPV/Hkwt/Cd/zjcqoPxYCvFsV658T5dnhrZ/z0nQfzP8ASvJaAR7H8OgB4StMZ5aTP/fZrlvixLu1OxizwsJbH1P/ANaur+HxB8J2WP8Appn/AL7auI+J0m/xKE/uQIP1J/rQBS8A/wDI2WP1f/0E123xSXPh2I56XK/yauJ8BHHiux+rf+gmu0+Kf/IAgGf+Xlf/AEFqBHlddz4E8G2Gt6fLfX4eQeYY0RW2gYAyffr+lcPivUvhdeQyaJLahh50cxZl74IGD+hoGWtN+H1hpOrQ6ha3E48ok+W+CDkEdfxqTxx4bvPEdtaw2jxJ5Tlm8xiO2Ow+tdNRTEeXxfCnUmbEt9axr6qGY/0q/bfCaNXzc6ozp/dji2k/iSa9AJPaiiwFSSzCaU9kjtgQGIM3J+7jJrwcrtJXrg4r32+kMNlcSDkpGzfkK8CJycnvzSY0JXqvwxTb4ekb+9O38hXldes/DVceGVOOsz/jQDPPfF7mTxNqR9JiPy4r1fTGK+F7Zh1Fmp/8cryDX38zXNRfOc3Mhz/wI165ZN5fhKFj/DZA8f7lAjxTrXffCc/vtSGf4Y+PxauCxXe/Cgf6RqRx/BH/ADagZmfEtSPE2T3gQj9a6H4ZavDJpsmmvIFmicuqnup9PxzWF8Th/wAVHH/17J/6E1ckCVOQSCO4oA+gcjGc8VgX/jrQbFWzeiZx/BCCxP49P1qfSCbXwpbMTkrZhyev8Oa8W68+tAj0zTPiG+sa3bWNvYiKGV8F3fLYxnoOlWviW2PDeOPmnQfzrh/AqbvFNl7Fj/46a7L4oPjQoU/vXA/QGgDy/Fei/Clf9G1A996D9DXnVehfCqUbNRi75Rv5igZl/E1NuvRN/et1/ma5Gu9+KlqRPYXQHDK0ZPuCCP5muCoA3vAxYeKbHacZLA8dtpr0nxm4TwxqBJ6x4/MiuA+HVnJc+I45lHyW6M7H6jAH612HxHuxb+HWiyN08ioPoOT/ACoA8orsPhfJt12dM/ftz+jLXIV0vw8nWDxNEG/5axug+uM/0oA6v4nws+gwyAZEdwpP4givMIonnlSKNSzuwVQO5Ne46zpUWtabNYzMyrIOGXqp6g/nXO+Hfh9Fo+oLe3NyLlo+Y1CbQD6n1oA39E0uHQtJhtE2qI1zI395u5NeM6nd/b9SuboDAmlZx9Ca9S8f6mdO8PyJHJsluWES+uD979K8kxQCPT/hldmbRJrckHyJjj2BGf55rN+KZgMtgAR54V8j/Z4x+ua5vw14ln8NzzSRRiVZU2lGOBuHQ1S1PU7nV72S8u3DSv6cADsB7UAU67vxB40Sbw3a2lpIGubmILOVPMYHBH1P8q4XtRQAmKO1LRQAYpKWkJAoAXFFFHagBK6Pw341vdAAt3X7Taf882OCv+6e30rnaKAPTj4x8Jagoe8gQOeolttxH4gGmJ4i8ER/ct7cf9uh/wAK80oxQB6Z/wAJ/wCHbb5YLebA/uRBaRfibpO4g2l2AOhwvP615pRii4HorfFGyAOzTrgnnGXA+lZd38TtRkZvs1pbQr235cj+VcbRigDW1PxXrGqqUub1xGwwY4/kU/UDrWRS4ooASgAkgAZJpaMUAd1B8LZXtY3l1IRSsAWQRbgvtnNdrZ6QlvoaaVLIZUEJiZsYyCPSvJB4o1sRiMapdBVGAA+OKrvrWqSAhtRuyD1Bmb/GgDvIvhhpi/62+um+m1f6VKfh54dj4knuM+8wH9K82e5nf708rfVyaiYljliT9aAPTv8AhXnh1yNs9xj2nU/0pR8OfDyn5ri4x7zKP6V5hyOnFGSepNAHp4+H3hoj/j4mP/bcf4Un/CF+ErPLTzggdpLnH8sV5hRQB6msvgaxG0f2YdvGSu8/ng1Nb+LfCNtlYJreEDn5LZl/kteTUlAWO58beOLbU7M6bphZ4nIMsxBGQOwB/nXCmlIpMUAJQaWkxQB1ngA6JFcy3Op3EcVzEVMHmnCj1Ppmu11O+8La3CkF7f2kyI25R5uMH1/WvHqTigD1M+HPA5+bzbTA/wCnr/69BsfAUI5bT+B/z1J/rXllJQB6skngGLGBpftlc09r3wGwORpXH/TIf4V5MRjt1pRGx5CsR9KAserDVvAYG0DTcD/p2/8AsafHrPgVGKJ/ZiluD/o+Afx215KqOxwqsT6AZpWglQEtG6hTgkqRg0AetDWfBGngyRtpq55Plw7ifyFZfizx3o9xoc9jprmaSddmBGVVAep5FebYpKAG4pCKdgnkA4oKkYyCM9MjrQMZXpml+MPCVvo9raSxMhjjCuht93zY5PTBye9ea0lAHrUfxI8NWcSxW4uNg6KkO0D+VMi+JPh3eXZLkN7wg/yryfFFFxWNzxnrtr4g1YXNnbCCJECAkAM/ucVgU7FJQMTFIRTqSgBuKQ06koENxRiloNADcUmDT6SgZcFXNGk8jV7KXONtxGf/AB4VUqW2yLmEjqHUj86BHqHxTBOgQEHgXC5Hr8pryuvW/iTCZfCzv1McqN+uP615JQB7J8PsjwlZZ9ZMf99tXn/xCff4ruv9lUH/AI6K9B8BoR4U08gkDDkj1+dq878d5Piq+z6r/wCgigBvgVd3iqw9mY/+Omu0+Kh/4kdsM/8ALwP/AEE1x/gEZ8VWXtv/APQTXX/FT/kDWo/6eP8A2U0AeX1Na3c9lOs9tM8Mq9HQ4IqKgUAeteANb1DW7C4kv5EkMThFYLgnjJzj8Ki134hRaJqk1gbF5jFjLiTGSQD6e9M+F6gaDOR1Nwc/98iuD8VSmbxHqLn/AJ7sv5cf0oEdTP8AFeTH7jS1B9Xlz/IVn3PxO1mbiGO1g+ilj+prkaD0oGe2m5e48LtczcvJZGR+MZJTJrxEdK9qm+Twg+44xYHP/fuvFqAQYr1z4dqB4VgxnmSQn/vo15JXrnw9/wCRUtuv3pP/AEI0IGeVagc6hdE95nP/AI8a9itSP+ESj4yPsI6d/krxy9/4/J/+ujfzNeyWI/4pSEcf8eQ6/wC5QgPFfxrvfhSD5uonttj/APZq4LFehfClR5eot3zGP50AY/xKJPiYg9oEA/WuV610/wARW3+J5R/djQfpn+tcyByB70Ae2XIFv4YkHaOyI/JK8SHFe53kXmaJNEOd1syj/vmvDAKAR0vw8GfFFv7I5/Sul+KcmNOso/70xP5D/wCvXN/DshfFEGccxuBn6V0PxUcfY7BO5kc/kB/jQI85rsvhfdrFrFxbMQPOhyvuVP8AgTXG1d0bUW0nVLa9XJ8pwWA7r3H5ZoGet+K9D/t7R5LZMeep8yIn+8O349K8cltJ4LlrWSF1nVthjI+bPpivdre4ju4I54GDxSKGVh3BpDZWpuftJt4fPxjzNg3fnTEc74C8Oz6JYSy3abLi4IJTuqgcA+/Jrm/idqQn1OCxRuLdNzj/AGm/+tj867/V9Vg0axlu7ggKg4GcF27KK8Uv7yXUbya7nOZZmLN/hSGQVb0m9/s7U7W7yQIZVY49M8/pVTFLQB77G6yoroQysAQR3FDMqKWYgKBkk9hXkej+OtW0e2FsrRzxKMIJQSVHoD6UzWPGur6zEYZJVghPWOEY3fU9TRcQ7xn4jbX9SKxN/okBKxD+96t+Nc/TWkRFLMwAHUmq9zfJawG4kKJBgnzJG2r+Z7+1Fh3LO4Zx3pPMTnLDr0zXBat4xurh4zZGWOKVWCqqfOT0HPIGfz+lZUep63IxSOa0smwHUygyOcDPU5GeMdK0VO5DnY9Na6GVESSSknGFXJqrqOtDTIle4sr75v7sDEfnWF4ev9V1y2YR+JYIblV+eMOBtHTIO3AqVm8T6jZNDb6shljI2h8AsFycsoHPT/8AXRyWeoue60Jz440sHDSvHJu2bHjYFT78cVvWc1vqMKSWWpafcM/SMTAOT0xtPPX2rzy18WanYW6/2lo8FxGx3b0YBDnOCQQck8+nbGK29GsvC/jBI3tZRaXgzugiwrhvo3BHTkDr+l+zRLm0dPqUOr6ZE8kuk3Mqp1MOGA9+vSuauPHdnZ5S6guLaQHDJNEVI/StnVNI8U+HLO6m03UJNQQRDyELeYw9sN+PT0xXMQ/E1Zh9n8VaKrnlQzRgnn1B54x2pci6BzvqdZp+oR31us8TB0YZBQ5wPfFSpfQSS+Ukis2OgNVPD+l+DtYti+k6oNOnV9v7lzECQAThT1HI5q3rfhHXUSWaym07VNuShkHlyOcn5c9zwe9S4W3Gp32Jwc85oyD3FcraR+JIpZFfRruIklkVblWGP7vIxkfX8K1tLk1G+le1e0voZ0znfb5GPqpxmpcfMtM1aKzri5vdPbZdWzjv90qSPoR+lQWnivSbuQxJdKsq/eR+CKVn0G3bc2MUGo4bmK4XMUivzjg08MDSGGKKWigBKKWigBKKWigBKSlNL5bbd21tvrjigBtSQ209ySIIZJSOoRS38qZiu58DeJdOsraLS5o5YriWbHmIOHLHjPf2oA5y38I67dDdHplwB/tjZ/PFW4/h94gkOPssaf70orvfFuujw7ZRTJD58kr7FV3IA45NcU/xE1Uvujhtox6AMf60AUL7wVrtgpZ7F5FAyWhO/wDlzWIyFSVYEEcEEciu+0v4mt5ipqFqFQ9XjOcfgef1rQ8b6LYajob6vbxKJ0VZBIgxvXjr68UAeYVtweCdeuIUmSxbY6hhuZQcfQmsZWKMGHVTkV7D4S1uXX9IFzcxojq5Q7Rw2AOfbrQB54PAPiA/8uQ/7+L/AI1Mnw5198ZhgT/elH9KuT/EnUknlWK2s9gchcoc4zx3qXTPiNqdxqNtDPHarDJIqPtQg4Jx60Ac1rfhvUfD7Ri9jULJ910bKk+mau+CItJl1lU1UBtwCwowyrOT3rpvipG7WdhKB+7WRlPsSOP5GuJ8Psqa9pzN90XMef8AvoUAeo31h4Z0FEuruys7cO20Fo85P0qpq2qeELnSZDI9jKgU7UjAD57YA5BrO+KqM1np787VldSPcgY/ka85xQA3FPhKLNGZFLRhgWUdxnkU2jFAHp58f+HoIo0gjcRooVUFvkr7dRV3Q/GOn69ffYbbz0kKFhuiUA4/E15Fiuj+Hs4g8UQbuN6Og+uP/rUAd/rHinS/D94trdzTiVlDny4lPB45/KsDxD8QNKu9JurO0iuJ5JlMYMqAKM96zfijbsmtwTkYEsAA+oJ/xFcZQA0ivRNG0jwjp2kW+oX1zaXExQMd8m75upAQHt06V55RigD3S2urP+xRf20Q+zeUZlWOIKSoGeAa878Y+M7HXtPSztIJvvhy0yqNuM9MV6NolqIdAsrZsELbIp9/lGa8R1KzbTtQubR/vQyMn5GgCG1hSe5iillWFHcK0jdEBPJP0ruFs/h/pShZ7iTUH7lWYj/x3Arg8UlAHtWmaVot74fZ9K0+BIbqNigkTknkDOcnr714pJG0TtG6lWUlSD2Ne3+CCP8AhFdNx/zy/qa83+Iuk/2b4jllRcRXYEy/Xo368/jQCNX4ZaBp2px3d3e2qXDwuqxh+VHBzx0P41o3XiXwREtxbPpsZwxRlW3A3EdwaT4TnGmah6+cv/oNeb3mftc+c58xs/nQBC5BdiikKScD0Feqx6B4T0jQ4H1W0jLiJGlkYNuLEA9vc9K8vs3iju4HnUvCsis6jqVB5H5V2PjvxlY6/YW9npwl2K++Qum3oOBQM6HRZfBGr3i2FhpkUkuCw3QHGB7ml1g+CNFuzaX2nW6SsobAhJ4PuK5X4Wj/AIqf/tg/9KZ8Tzu8UuOeIUH86BHY+Hm8Fajcta6bZWzTFSxV4iSR9W+tcP8AEjS7bS/EZW0iSKKWJZdiDABJIP8AKqPhPXh4b1lL54TNHtMbqDg4PcflR4u8QDxLrL3qRGKMKI0Vjk7Rnk/nQBiGkwadRQMt9Ksacu+/tRjkzIP/AB4VBVvSONVsj/03j/8AQhQI9X+ITAeFLsE9SgH/AH2K8dxXsHxFz/witz/vx5/76FeQYoYI9o8DDb4V0/8A3Cf/AB415p43bf4pvz6OB/46K9N8FAjwtp4xj93/AFNeY+NOfFGoHP8Ay0/oKBFn4ernxTbcdFc/+Omup+KjY0uzT1nJ/wDHT/jXN/DdQfE8Z9InNdB8VT/oVgM/8tWP6UDPN8UUtFAHqPwwGNAm/wCvhv5CvP8AxIpXxBqIPX7Q/wDOvRPhmu3w6x9Z2/pXA+LSW8S6gWIz5xFAGRSgZIA5zxSYqeyTzLy3T+9Io/UUAexa7+58KXY6bbQr/wCO4rxfFex+NpPI8LXvuip+bAV47QwQmK9f8Dps8JWfbKu3/j7V5BXsnh9fsvg+2PTbal/0JoQHj05zPIfVj/OvZ7bC+FI88AWQ/wDQK8WPOT617U//ACK5x/z5f+yUAzxSvR/hXGRZX8nZpFH5D/69ecV6r8Nrcw+HfMIx50zMPoMD+lAM434gMH8U3QHG1UB/75Fc5Wx4vm8/xLqDA5AlK/lgf0rHoA94tlDWES9QYlH14rwy5hMFzLEwwUdlI+hr2PwlqP8AaXh6znLZZU8t/qvH9K8o8RyxXGvX8sHMbTsQfXmgQvhzUk0nW7S8kz5cb/Pjk7SMH+dS+JfEE3iHUTcONsSZWJP7q57+/rWRS0DCiiigDp/CPjOXQWFpcgy2Tt68xepHt7V1eofEfR7aMm0Et1KRwApVc+5NeW0UAaWt6/fa/cCa8kGF4SNeFT6D+tZ1AooAKKQkA8kCsu78QW0Nx9liDTz9Nic4+p6U0m9hNpGmWVRknArJv/EVvDJ9mtWjmuSpIBbCLj1Nc9rmu3s6PbxmNZFIV1DfKpPqe/4GqVxpeq3GnQpZafcG3LDG8bVZ8ctk9Tn271rGCXxMzcpP4UUtR8X3UmoxAlbiEENIq5Cgc5BHX/Gt22tNS8RbLvU7qWe34EUBwqxf7W3op4HasA6fb6WVGr3SW0zoW8qCHcxyNw+b345967HwtqGm3Fs8J0nVL14wCryruLLxjGOnXvRUa6BTRU1nRhDbpZm/06whjUtkPl9wByMj/PNcaYfC3mRveXt3cTFN0gZiWDnpjjBHr0NevR3dtChV/BDqu3bnbgnHGcfiea4PXNU8NJqH2K40Y20ci5JkXAQkZzx+XAqacr6fqXJW1f5E3h/QfDdxeTw20zTSBMOI5AcA/wB0Hk4zjIz3rZ1LwNcacpu9M1AxZGBFuIkY4zgnGCMdR+FZeg+FfCurX9rcaVfPFcK+2RZsMgJB6Lw2M8ZOO3Jrc1Hw94q8PxoLK7DQKAWnQ5G3dxnr6n/Grlo+xCu9tTzbUNd1XStSe3v7NZI4QUXeowueeB93p0x0zWxoNnZ6xby3um7YriCPzG2SbWLA8jaMHPK8jj9ag1TX4ri/az1eIxQsRj5d8ZOMbs5z7cU2z0KGGddS0O98kjf5g3KVjxkjax65wPUfnWiM5Lob3/CZa14cL295C8kAU7WdgzOBjLByfXOKnj8c+EPEtv8AZtTjWJ2jyZryPhH7gbT044Oe/aotK8W2N1Y/2d4hCwzRFg0ci4Ehxx2+XPGa5658CWd4jSWd+nmOgk2swEYycBQ3G7JHXoKJLuKL7Ox2dh4J8M6jbzPa3kvkxMrGRJFeMbhxgc9CMdT6VpRfD6MG2EOsXqW54jVSQWB/HAznPPWuF0bwRcLdeTa3YlkYIWt3R0bHfI6gAnr0OBV+TwPri27RPPbbWG9QszE7jwB05YdcDsaVl5g79bF1vBc19dzS2niHVLc+aYIsyEMuOMvlvlGegq3ovhfxfp13G1l4pN0rgIw3MN3HOOowD3PXNef6t4Q1xJLiSJQYgUEhSXgOeMnJ498+tR2V54s8N3duGkuyts7XEaS/OgPdsN9BSa6XGr9kezDW/G2js0c+lW+qW2AC+wH6gbeCfw7VxXiHxb4ZmvJE1zwtJaXUqDbcWmFK84yejAjHTn8a3rD4rXUMa3N1bb5AjK3O3YSeCvsMHkDv2qr4l+I2janFaNeWs3kKzCVXiV1LcE/UEd/X2rNR16F82nU5vwZrWi3t5Npl3qt3DK0mLaaTCrInYsT0YfWu18TaP4g8G2Z1GNo9VsOMsmSYwfX29+a47U7D4f8AiDL2V7b2UxAMcrbohuIznacDOTjA446jv1fhFL2XTptOtNamj1K2jQvGSDbzq4ypQk4IIz265FE7rUcWnomZeneP7G6dknXySuAeeh9x1ro7a8gu0DwSK6kZyDXFeOtFn0Ge3uZdPZpJEAkkjUbHxgYAHbGM+hNVNKtUv0N/4Z1aO3n3bWtZiTyenA/oKfIpK6DmcXZno9LXHaf4zubci31azeGcEqSOnHeups7+C+hEsL7l9+orJxaLUkzd8M6Xa6xq0drd3AgiILE5ALY7Amu7/szwZpo8uX7AWHXzJN5/nXl/BopFHp51jwbYqfLTTz6iOHcT+lVdS8d6FJpk9rBavLvQosZjCrz3/CvOqKAEFavhzT7u71W1lt7aWZIZ42dlXIUbh1NZddd4R8Ypo1sunPZ7/MlyJEbB5wORQB0HxD0i91S0tPsVvJO0cjblTsCOv6Vw48I683TS7jj1AH9a9J8U67L4esEuooxMWkCbWOMcE+ntXJn4nX2f+PKH/vo5oAq6T8PdTvJQ1+os7ccsWILEewH9a6Xxnqtno/h7+yoGxLLEIo4+6p0JP4Vp6TqUmvaE1xC/l3MiMFbqEft+RxXkd5NcXFzJJdSPJOWw7OcnI4oAgr0/4ZyLJoM0fGUnYH8QK8xxXo/wuJ/s69GeBMD/AOOigGee30Xk3txGBjZIy/kTUAJByDgjvVzVv+QreY/57v8A+hGqlAGhqfiLU9Xt4re8uTLHFyoxjJ9T6ms+KQxSpIvDIwYfUGkIpMUAepePFW88IC5IG5WjkBPbJx/WvLMV6pr4Fx8PNygn/R4W/IrXlmKAQ2ilNGKAG1o+HJfI1/T5M4xcIPzOKz6mspPIvIJf7kit+RoA7r4sR5XTJcf89Fz/AN8157ivUPifEsuhW04AJSYYPsQa8wxQCG1Y021N7qNrajrLKqfmagrc8EW/2jxPYjaWCsXPHTANAHq13qkWn3+naewGbsugOem1c/8A1q83+JOmm010XarhLpA3/Ahwf6fnXR+OtM1i+1fTp9LtZJDbLvDggANu9/pUvxG05r3w+t0Y8S27LIQOoB4YfqPyoEeUkUmKeaTGaBnrem3Umk/DyK7hILxWvmLx3zn+tVvGllD4n8KRarajc8C+ep7lMfMP8+lOCGX4YkLgn7Hnj2//AFVV+Gd8l5pN1pkrAmMkBSeqN/8AXz+dAiP4UjGn6icZ/eL/ACrzm75upiR1dv516v4B0ubRZNX0+YcxzrtP95SOD+VeWX6hb65A6CVwPzNAytSU7FJQM674Wnb4mIPe3f8AmKi+JgI8UyMf4okI/KnfDQZ8Ux84/dP/ACqT4pJt8SoeebdP5mgRxtFLRQA00lOooAtirOmNs1G0b0mQ/wDjwqvUls/l3ET/AN1wf1oA9e8fqG8KXme2w/8Aj4rx7FeyeNB5vhO+I5zGrf8AjwNeN0MEe0eC2J8L6eT/AM88fqa8w8YYPibUcf8APU/yFeqeE08vw3py/wDTBT+fNeT+KWLeI9SJOf8ASHH60Aa/w0QN4kz/AHYHP6itn4rMfJ05c8FnOPwFZXwxQt4glbsts2f++lrS+K2P+Jbz/wA9OP8AvmgDz+jFLRQB674Ai8rwtaH++Xb/AMeNeeeMwB4n1DAA/eDp9BXpfgwY8L6eOP8AVn/0I15n4y3HxPqG7r5n6YFAjFq9ocXna1YR4zuuIx/48KpYrU8MAf8ACRabn/n4T+dAz0T4jSbPDMi/35UX9c/0ryfFeofE4/8AEihH/Twv8jXmFAIQ17VcILXwtIg6R2RA/BK8Wr2zVF3+HLpVzzaPgd/uGhAzxIDivbNHxeeHbTB/1lqo55/hxXideweBLoXXhm1GctDmI/gf8MUIR5DLG0UjxsMMjFSPcV7R4XtfsXh2wjPXyQ5+p5/rXnmveGrpvFz2cULlLqXzEYDjaTlj+GTXqExWzsHOdqQxHn0AFCA8P1CX7Rf3Mx/5aSs35k1BRknn1ooGaun+JdQ0vTbnT7Z1WK4PJIyV4wcemayqKKACilqOaWOCNpZXVEUZLMcAUAPFFZDeIllt3ubK1muYUyWcEKMDkkZ5IA54pb/xVptlAhDC4uW6wo6gL0OGYkYJBzxn0qlBvYlySNNpUTBZ1UHuTikFzCQcSo2OuDnFeQ6r401m5vWnMUcSLhVhKb1Qjvg9zz1zUC+M9cjijaynMabcMPLTBYZyQQPb9a09iR7Q9nE0ZwQwPOOKrX2pRWcTSfM+3nCDNecaZr+v3OnR2y3LOIpAWKRb2JbkE4G7r/hXQ2F/4pupFWyEV0yxmUfuB+8XA45XBAOAR6nHWj2Vuoc/kZfiLxLrNxBI0Fu8MAba0YwWYEcc1z0J1i6kiFwI4ImOWWOTaxXHQkZNbWr33jTTL0CdUXzRvBdUCrz79O3X6Vft9W8arAdml2sghK5kKjcA2cZ5AI/DtzxV7bCSvujR8PaXoOizxPMHv5M7vLMDEKeegPp8uGPoeO9a+s+JLgQzo+k6p9nEbOFVQgVepZWxwT7Y71a0rxR4quLKPUpNGh8tg4CKv+sIJyAMk88+2KlHjvWPs4N14ecq/wAgSNjsXORjp/n2rG2pZ51P4tVLlp7XwZF8o8x2uS8zOOfmJK8dR+VdV4V+MWqRX7R3GmWaRlPljSMxkAdgCemOc0h+J9lapD9s0++t7kAQSAR/IsefmUEnJrp9A8X+ENbvVDXyRXEkflBJoyvAHXkYPXqTntVuLtogTXW50Fv8VbaIrHqGnGJ2PyiGTeCueTyB0rM8WXng/wAQanDDeiyMrIFUS4SRSCc554HB6njFbd14Y8P62ZNsUTGP92WtpANoOfTj8q8u+IfwumN6p064FxIlsAwlUDkEkAMO/bkenNZQ31RT8mTXvwqtpbyKfQrx/NXbIRgmPORjDZH+etao8T674SkVdVsZLgcqGkYKUGBja3I/i/EfSvMrPxD4r8ByLZ3DS/Z1O5rKc5Q5HbHT1yD2r27RfH2h+LIRp+qxW8EzDJiuFVlYY6g9j3wexrSSttqQn/McN4mj0Dx9HCG+zWd1IhImkcRurdcjON/cY9vcVxUOi674M1L7Rawyz2KnDGMkh1GM8A8HJ616T8Q/hXBPax3mjqA+07YgANw4yQfXv2/GuC0zxffaFP8A2b4ihkdYwY/McEyIDjqDwRx/Ln1uDXQUk+uqNyN9D8ao3n2Xk3EOZAQFVyc9ASw39DnPr0rjr9db8J3t2LMPJE2UK7N4CkZwRzjhulekar4OsfEltPd6HeRhmBZSSAhbjIwMlT1HPqOlcLq3ifVNE1CSDWLWRDJFFEB0aNVxnb/CQQD1H41d/kzNJ+qKuj/EHUmnRJEtSC6szuCGkYEDJP046dzXQnxmEzKdMjVvklAZjhAjEdBg8+n065pmnxeE9WuLaWWa3KzziLarLGYo/ccEnJAPbHQnqN638F6fLPDPAs1nbr5shLSnK7XwoyT14GBxT16iaicjq3xFLSKrabIo/iUzMMjP3QMcduxqOy8d2qOAyTRxlgzb1DFsAD72c9OOwwOnNdPrXhHRgU1FbWXHlB5Y5JOEOB8oY/dHTk5PPHtgr4I0q7FvNLcNB5gMpXqyw5I8zkAYyMep9KTfkNRT6neRa54ZvIFd72yC7Nqh4dgXGQMKRwCDySe9Z/ijw5oN5pkU8dr5kJkRsRykEITyBjPYjGP0605fhzu0+0/s+7ikNweUnOWKjo2RyVxj2rD8TeCtRt9OkezW5WIJlGVjvO3acDpkAZHFZ6XL17mbN8NbCaCRFu5IZ4QXlVlyiZ+4Nw4IPTOfU1Jb+FdX8MaTY+IIp5sRsVm+zzEMFJ28oRyVJ9Oc1xcGp6rpImiRp4hIqod656HcCM9ORwf5V6Z4L8VR6p4a1DStQtUijvd0BniJJJKYzhj7DoeuOKckrXTBN3s0dVc+IoL2ytbHXLZrhEPz3cQ2+XnIyy9u3PH0rgPH3w5fR76LUNEuvLguJCg3Er5ROTz6DPFd/ZXlr408FXUKQpZvFblfKQYYsAQGYjnOQT9Ca5C98UX1xoVzpl/IJ3X5GWNFj2uvKtkMTyV79RxjNKnFinI599b1SG2gGp2BZEwN0uMsccDIx6jk1q6ZrWi+Iitqt1LoWqqQiOD/AKw+jA8Grek+MtFubv8A0giMXLeVJFcRjlcct056nv3x2rS8T/CnS9at/wC0tMc2s8TESCIgow7kZ+ufpirl5omPZMhF9rehXjW2oRfbIcbhdIcBs9Pqfat6y1GG8QFThh1VuCDXJaPomv2jQaYl8s1qGbo5DZx0KHI3cgfhUd1e+JvBbF7zTGvLHjzcxMrITzncPlzzjI61k4p9TRSfY7wc80YrJsPEFlf2EN9aSPJbyHDBh88J9GHpz1FaiSJIoZGDKehHNZtNGiaY6tPQNFu9XvFFsECxMrPI7YVeazMVp6N4hv8AQjILNk2y/eSRdwJ9aQz0fxppc+r6E0NmglmWRXCgjnsf515Zf6ddaZcG3u4TFKADtJzwe/FdNP8AEO8ljUR2cMMg++6McN+Fc5qOo3Oq3TXN0+5yMD0UdgKAOq+GupmO8m05mOJR5iegYdf0/lWV460v+ztflZRiO4HnL9T1/XP51naHfHTdWtbrOAkg3f7p4P6Gu5+I1gLrSYNQQAtA2GI/ut/9fFAHm+K9B+Fsn7i/i9HVv0Irz6u2+GMub27tyPlMYk/EHH9aAKOpeCNbudWvHgswYnmZldnUAgnPrWFqmj3ujXAgvoTE5GRzkMPYiu18R+N9Q0XW57K3htmjiK8uGJOVB9feuQ1zXrzX7oXF2VG0bURBhVFAGYaKWjFAHqVvi++HeAf+XMj8VH/1q8rr1DwohbwLMGJIKTYz6c15hQA3FFLRigBuKAMA/SlpccGgD03xiTceBIZW+8Vhf+X+NeX16jrCLN8OEI7W8R/IivL8UAhuK674ZtJ/bksaKNrQks2OVwRXJ4rtfhbBu1G8nPRIwv5n/wCtQBe8XeN9S0bWZLGz8opGqkl1yckZrU8K6u3ivQLpL/a0u5opMDA2sOCB+P6V5/4xn+0eJtQfOQJdn5DH9K3fhdd7NSu7NiMTRbwD3Kn/AANAHF3Vu1rcSwOMNE5Q/UHFRYre8a2TWfiS7BGFlIlX6MM/zzWFQB6j4dP2r4eTRkk4glT+defeHdWfRdXt7pWwu4JIPVD1/wAfwr0DwBvn8IXMXo0qr+K//Xry7FAH0BEEYGdVG9wAWH8QHT+Z/OvDfEUPka9qMZxxcP0/3jXqfgfVv7U0CEEjzYV8l/Uleh/LFedeOIRF4ovsDAdlf81BoAwKTFOPNJQB1Hw1XPimI5xiKQ/pVj4qsG8Qwr/dtl/9Caovhku7xOp/uwuf5VJ8UwP+Ejjwcn7OufblqAONxSYp2KQ0ANpKcRSUAy5ilBwc0gpaAPadVxd+FLgnBElmW/8AHc14vXqtlqy3fw/kuASXitWhfHXcq4/wNeVYoEe3+G+NA08f9O6fyryTxRz4i1HkH/SH6H3r1LwbqY1Tw9ayZzJGvlP9V4/livJ9bx/bV/zkfaZOf+BGgDqfhZGDqV7J/dhC/m3/ANarHxV+/po9pP8A2WofhbOi317AQN7xq4OecA8j9al+KifvdOf/AGZB/wCg0AcFS0UYoGexeCXWTwvYFTkBCDn1DGvPPHW0eKLzZn+HOfXaK6X4feI7ODS5LC8uI4GgYuhkYAMp5OPof51xniDUv7X1m6vAAFd8Lj+6OB+goEZ1bPg63e48S2CoM7JPMPsBzWPiui8BXAt/E1tkgCRWj/Mf/WoGdX8TjjRIB63A/wDQTXmNeh/FK6AhsLUHlmaQj6AAfzNee0AOhUPKis2wMwBb05617nLGp0942YspiKlj3GOteFV3t143jbwfHEkw/tCRPIZR1UDgt+I/nQBwRABIFd98LtRw13pzMO0yD9D/AErgcVd0bVJdF1KG9i5MZ+Zc/eXuKAPcK5nx/qy6doT26tia7/dqP9n+I/lx+NX08WaK9j9r+3wKmMlSw3g+m3rmvLfEmvzeIdRa5kGyNfliT+6uf50CMmilooGJRSqrSOI41LueigZJqj4s1KLwzo8VzIyyXNznZD/cGOGb26U4pt2Qm7K7ItY1630lCpIecjKx/wBT7VzfiVpH07TbvVbiWP7VcK6RwrlY4wQQTweSB39RxzXDaxrU6SyNKZWMZDS/MOO/v3wfpmrnivxHDquk28BkVZIoI9oQ43AYKHHIG0HGByec10OMYGKk5HTeNdWubDQ4oY5orpmCo0skwcxrklSuMAIQcdM88YGK56XWZLDThutbCFEjIkUWjbnQ4+becqCd2Mgn7o69uM1bx8+sWMlpKGQEqxVOQXx6Y4A7AY44rDj1HU5GeOOOZ0kBB5IwDjPAPHQUlJJWG02dpYzQ6vpU6zs63Ug3rhgFRhwd3B5OMdvvZBqoJ7ZbdIXk2uQCoV9wwT0P8XB565x61ymnR6lBO8sSbH55ViT09v8APNTf2fqEswQyxb3OdvUk5x0GTVKo+wnA9U8O+J4dOELxulrFISHWLlwRznpkA+mcZ/GvQNK8RWTyhVlZEEDSCNnIKJglVbI44HJz3GDjGPmy807VrGbY00e5QSPm5GR+f6Vdttc8TWMRjSX5QpTdIcEKTkgE84OP0p+0v0JdNnuWs6tc6pDdCWN7CK3kEsayRb/NkwBnfzkH5j6D+WJp+vNvYJOY3jWJIxKuyMseOcHpjPpwc968rPirxKLYwxyXjKT1EhI/P6E1lvr2qBXhlBQORuIX0+ntVKrFbidOR9OeEte02+vrq3u22wYZkQzDDOD9/wBx82ASTwOfSuqh1LRzb7Ulimk2BxGJUZpMkDJAI7nAOeT2r5E0vxVPpuqQ3LzuwSQOSwzkZGRhuo4xg8V6FZ+LbCaO236fbtcTT+Y1ykphUtkncB/C3zcY44HtWc3Fu6LimlZno/ju8042VrLbzIVidjfx7iNpH3AwOSDuXGcAH0Nclc6n4fZGkHlrPBMSpjQssqk9AOB2GMkd/pUPiifQr22ubq1vZ7pjIE2oSY0OfvAHoDkAITxhuelcTLeNHILghn3cgNyFPXBz37g+1XCMWtRSbT0Z6/oiS3qLqmjyCQxKUmhMgV8jjJIPI9+wqr4q8YeJ9DtrGa5t0Nu7sfKlBB9VO4Yx1Pft0qP4OOJ9Nuri0R5pTPGN0JBKLk7g/GcHI6cnHbFdlrv2SWxuLO7tGmnmi86OKRGYTnHy8jO057YzjGQK5/hnobL3o3Zw+ieO9K1CJLXUIYLUyH99JL+8VR0AAPb613U/hTT9XtPt2gXCq9wpAlTBXb/FnuBjPTPWvME8IaBq1ibmO/W2ZIfMuJYiWVGPITHrjHTrzwK1/D+k694fs0vLJpLtggEcMTESMucqXjHYjp7VpOPUiLfRj9X1bxN4ChtlkluJLZZTGyMxMbDA5V+o4GMA8c8VctdZ8KeP0hs7qOOzuCpIjJIdW7sGJ2kEfrWhc+NU1XTZLXXrGG2IKqyuhZAScbiMHGM9+mD0rib34fQ3iXNxoN008kLAYK7UZjwFVieoP86S1WoddDrrrwrq3gxjqOjyrc2ccZKhxktnuw7gDByPSsq6vNI8Y4t9TWKG7ULuQuQ0h2kfu25754x1Ire8JfEDUNLWDS/E0UsirDtbchEiKDtwQeWHX61W8a+CNP8AF0cWo+F3iWQAt8rAI5xkqB2YHHH8qrXrsSt+zOVn+F99Z3sM+lSJJCHLlJ8Bo/mwASflOOPx/CnXHhvX9HuZRHYXxd1O6SB8qFKnLYXtz1/rWTbeI/EHhm9+x3yXFyA3zxXGVLMe+7GTjHB5r0ez+KNpMytc6ZcKcb1SP7pOO+MZPynjvn65pX+yxS395Hm+uW+rpGj2q6pHKfmnU7irKRlcHr2/r9Mg+INcicsby5VkQQhXHRVbIUAj15r2ab4g+G7gwONSZSHGfMRkU4HoATjnjJA/XFQaxoOpCYrc6bOilWZp9vmOjOPukgFjkc9Djjmk3Ma5LGJ4e8Z3x0mVr1EuPNiO5nbYWySDghhxziunj8caetq0stncp+6I3QZKyEqSQo6jgLnnjnHat/RPDum3WmlEtbCWIuDG8KCPy0PZdpJJySeT3xk4Bps3gGwt41jsmuIpdrKglG9d21eWzwPpyOfyzctdSuVPZnnNjqtlrttLGtvBNJHbYMZTBQBidz5QnHOOPwxmun8J+F7C6luZbWRoHldsAKGh8sKQSoB3E5OevUfSvLdZ8Ca7pM8jeS08WSnmWxDAtn25HJHBHeuz+GvjPUIrmWK88y6VAokYBVlVQDkdDngHPGTgcirnZxElKLJFsY9Gu/EL3clx9qJJWOGQpgNFkEngYIOcev4Zq+ELXTvEOnq95H9meNiGmiYqSwBw53ZHG4DHcmvQotUtL+XxJJbJbSW5toTg5IOY3Vjt4yQAowR2ryO9vLrwTdCO2tDNBeIkpjmjJIIyOuT0I79x0op3tqKp3QzXvBE9xaPNaEMbAvDMWA3MN3yZx3IIH0HrS6H4h17QbaK0tzdq0W4tE0Z+ZM5+6RjgH8dwFdpoWvaXqmn3tpeXaWbSs0qRyYy4ZEGQR8pIIOO5/Oq8V2YpwZYt5DcrJh0TIG1WI4zkH6Z46Vqk9jJtM5TVPHOrRql+VjljDt5iBTGwJbqcEgZGfw/Cu68F/GHT9aQaTrlo8Ujq580ksjr6eo4+tXbnwj4duwJorGMJdjbsX5AVCZ46Yzg8en1riNT+HMekag0lm01uU+aGV5CMnuuR1+vTms2lLRopaapnU3Xhext9ZLabMjRX6HYwYbW/ujjjvg/Wsc6xeeFdcbTtdgNqkv8Aqbpl2oy5wNwxj8RUeuRX+labG9rZGKSII0beY0iyrk5ABOB0HTn24rptK8Z+Gvihoy6Nr9vFBqUYwC4JBYD7yt26cismmldGqd99Czb3kNyAEdSSMgAjketWK46PwnLot49jYakVlQho0ckoQSMAHnr2zWxpmsytLLZ6jA9teRHDIw7djnuPeocexal3NiigcjNLUlFrSbD+09St7Pfs85wpb0Fesvo7zaK2lzuJozH5e4jDYHQ9eteOglSCCQR0I7VZ/tXUBGYvt1zsPVfNbH86ANrxb4Xs/D0cBgvGllkODE5GQP73FWPho4XXZl/vW7f+hLXKM7SHc7Fj6sc10vw8LDxGm3p5ThvpxQBF8QIfK8Tzt/z0RH/8dx/SucxXU/EbB8RcdfJTP61y9ADcUVqXfhzUrHTotQnt9lvJjB3DIz0yO1ZlAHp3gY/aPCcsLZABkT8CoP8AWvLyMceleo/Dxc+HZcHOZW49PlFeYyqVkdT1BINABDBLczJDDG0kjnCooySafeWNzp05gu4HhlAztcYOK1vBUoh8TWRYAhmKfmCK1PiaP+JzbnH/ACwx+poA42l7GjFLjg0AemLiX4afNji1OPwPFeYV6fpEZvPhw0Sct5EowPUE15jQCExXofw1gEWm3lyf4mP5KP8A65rz3Feh6WDpHgK5nHyyPAefdycfoRQBwF7O11eT3DHLSyM5/E5q34c1H+ydbtLvPyo4D/7p4P6Gs/FIaAPQPibpYeCDUkX/AFbeWxHdW5H6/wA688r1eNG8T+BUVTula32jP/PRDx/L9a8qK4JB60AemfCybfo11AeQk5P5qP8ACvNbqLybqaLH3JGX8jXoHwqc+TfoD0dG/QiuG1iEwareREY2zOPT+I0AdL8M9UNtq0lgzYS5Xcv++v8AiM/pTPidZGHW4roIRHPCBn/aUkH9MVg+H7yPTtbsrqU7Y45VLH0HQ16H4/m0vUPDPn/aYncMr25VgSxPX9M0AeVUmKcRSYoA6v4ZLu8Rn/r3f+YpvxNYt4oYHtCg/nVv4W2zSa1czDpHBjPuSP8AA1S+JJJ8UzZ7RoB+VAHKmkIp2KQ8UANo59aXFJxQBcxRS0dKALtvrF5babcadFJtt7hgzjHPHp+n5VSoFLQB0HhrxbN4ctbuFIfNM2DHk4CN0z79vyrBlkeaV5XO53Ysx9SeTTcUuKBGt4T1FdK1+0uJHCRFtkhPQKeP8K1viHrVvquoQQWkoljt1OXU5UscdPyrk6KBhijFLRQAmKXFLRQAlWdOvG0/ULa7XkwyK+PXBqviigDY8U68fEGpmdQywINsStjIHfP41jYpaKAEopcUlACUUtJQAlFLRigBKxfEPiiz8PW7vO48zHyoASfx9qTxJ4g/smxmnhhe4EKl5GQgKoAJIJ7cDtk14Fr3iW61KZ7lpWcyDLKSeOc4H54/OtacE9ZGU5PaJ7baeMLzSrB7q+aEXEoS4QQE+ZHEPmO09Cduw9vv4PavMfHXj+81ee3uHv45SXkUpGuIwGx2PJOQc59BXNf2zdagEjsy6EuuWZiwYgYGSfTPAHaq8lnZ2jb71mmlz84GCRn9B+OT7URve6HK1tRkWpa9fFRHPIVG5Qe3PX69qlfTI7YRrf3b5AI2r9Om0c/mRVafW5ACsKiPIILKTlvx6/yrOlnaRQCTycnim2uuoJPpoazXmn23EEK4BxufknjGcDA/PNRPrbbdqxr7gnj/AL5GBWOTk5Bozn1GKn2j6D5TQm1aeQbTKcY4AOAOMdBxTH1a4ZdokcD2OMfgOKoZ7etLk4I61POyuVGgNTuGYbZTG2MHHAP1qIX88DnEh3dNw6kfXrVPOTk07dnhuRS5mOyLy6zdBt24Of8AbG7+eatL4gkKlZ4lfjHsPwGKx+V+ZeRTQcimpsXKjpYdT0ifdHc2yKSQPMCgDvngKT39e1T/ANiabdRiSwvTE4O4AkKvXj7ze/p2rlAc9KfHK0bhlyCOapTXVCcX0Z2E2n+Ibi2kUfvxIOsZOWGBwcDGORWfDJeafKqajbywoSPmABK/h+FV7bxRf2xBMgnG0riUbsA54GenXNdLYeOrS6HlXcQiyfvY4OTk8Lt/vN371pFroyJJ9Udf8LvEFvpmmXaHCIyvtZE2SsrfeAcckjaMAe/bNeoyavHF4bn1NvOMotR5M0hiXYQMEIDg8gxnH+03vXiEdtsPm6deokb/ADtCxBXdg8gAtzlT19RTr/VtUt1lt77TVlhlyxuI49vzcYfLDPcZ6ZyKn2bT1Gp6aERSRNzwFvK5b74yGHXI+h+ldj4J8R341e4e5lmuRNFtEjcNGVYYxx0yQMYxz2HNY+nW2m61Zm6sLp43aZITFMwkYg/xYGMDPAABx3PNdd4V8H3C6RJfiBz50ggt2jRCh56twdnIABxySckDNbzasZxV2avibTNI8UzfYUWWC+mG+SbyyFRgDk4zhuePl9q81tNe17wgogdi1sz71HBUsDjcD/Ca9K1OBLy4bS3S4V0DtNPxIpCAErlOuGXjJHAH96uMvNcFvey6RrQidIowU+XiXHKrng4OcjHrWcNSpabnd+HdZ0PxxpllDdRW8F3nH7w7pWwTyGGBnCng+vTnnlPEk2v+CLyG7sLhpbGZiS2f3b98MASAenP0NLp3hRLiO5uNHkktnjUStHcsFEOcnjBzjgEZHbqatSeNJ9M0v+y9WjJRCnlyGINsU4BB4Gerc/zqrW2Jv3NTS/HfhrxjDHb6lb21vPhdxuFUkknHytxzyT6/zrrtQ+E+l31yLi0mmstqZAGHTOcjgHJ79Sc5/CvMde+HWm6hJJqGg3G7L4WKBQ6nr3B+UcHseK0C3jLwesE0M961s0XyyRyedHGepPPHXAx/kxZehd301NbxP8HpZYBLbalHJNgbnlQrtUAc4GTyeMe/tXG6p8I/E1pEVhjguozwHhmXJPOcZIOMD8K3r/4reJ7KOaSW3tp4TgGWZSHGWOAdvQj046VY0X4z2c8T/brU21w7bTcIDIgTHy9SSMMT0XGD0p8sujBSXVGJ4Ph1i1tmRTLZqriSQudjA87dqnryOmOcdRxXa6P481lJXE7m5XLh2mh8tUjG0Fsj+L5vTjp3rvfB+t6V4r0t/JltLpBKBgkHA6nIPQ8nj+XQN1f4faZeRB7NzaSj5SY+A4HJGeCM57H8KzlJp6jSi1oeXaZ450K7vEtZ5zZOjvGm4kLjf8rKQoC55/rXT6L4XsNVW8lCwWk1wqy7lKyrM2W+8oGOOuenTrXk+v8Aw813T5HmggF1HFKdv2cF25OACCoO49eBnGOnFaXwn8S3/h/UbxJJALFY90kTsUI5/h6fN14z+dXOzWgkpRZ1GueHtV8M6nELIym6lsrhmukYbW2gNhsnGMk4579BXnbyxeJVVZEW2lt4yzOiYWTnqTx36H3AyTXumo3Oma1qGms0yrbkTQCPy9pmd49wG4HDLlT8w7ivLdc8J2vhuRNQtGS4gJCNFuKru2bsqwYk/wB4Z6kDiii7aMKmuqMbSNMb7Pfw3EJkNjH5nnpkZxlFUg9AeDkZOMDvWTqYl0/Uv+JfdmC3dTIqo3O3J4+XuOhPqD611fhzX7R/FDWazhIrseVgqDvbcGGSOMj1z2PODW74q0Ow1PMi2iqkeU3M+0lB1PHA+noelb21Oe/c4zQdf1RY/K+2s+1zLif5i4IOQGPb5OnOc/n0+v8AjJV0y0TUil5LH5gMvlkMFbG35SScEflkisbR9Ihiuo5bO4e3GGWUo5C7C2EB+XPUDPQfka3dU8E3L2l2huY5Fu4mUNub5Jsgqd+MdupJyW6UpXW4JLodD8NvEljr1i+lMIpkXMsaXHzHbu6bT1556dD7Vj+KfANn4f1pNSsC9ocGaPYuU3d0I645J+hArzbT477w/qCSzQS7ImxKUY4B7n5e4PIH0Fegale6zqGnSyLOjCARvbExk/w4K59PlPr0PtWUklK5pG9rFnxH4b1dtGg13TZJHnjjGEiTcsig5K7cnGOQPYUaZ4n0v4hwrFPENO161XEcjNw59jxkcdDU3wi+ItrPdy6LqM3kib95CR08zuPx6/hTPF/gq18P+IV1HSYzClwpkBB+Q+o475ww7VFmnyv5FJ3XMt+o6016e2vIrK9thCH+UPv4yPTuBXRY4rhLyZtKnhtdegL6ddsEadlJ8tiOG3fn9PxrZ0u8n0S5TTL+YT28pzZ3QOQ6dlJ9aUo31RcZa2Z0WKKWkxWRoJXTfDxiviNAATmNwfYYrmsV6L4avPDml2ME0VzaR3TRhZnkJDknkj86AMT4kW5j11JcHbLCuD6kEj/CuUr1LUNS8MasyNeT2E7RghS0hGM9e1VYr/wdYglIbHOMHaN+R+IoEP8AEkhufAUcrdWihY/XivNFUswVRkk4AHc16R4n8SaJP4cltraaOUyqEjijGNmDwSOwGK86hlaCaOVMbo2DDIzyDmgZ6j4F0m90nTJUvU8sySb1TIOBgelcpq3gTWW1G5kt4ElheVmRvNUcE56E01viBqTf8sLYnvneR+W7FOT4haiuP9DsCf8Armf8aAHeH/Bur2+r2lxNHFCkMquxMqsTg5wACat/FG3cXFjcbfkKMmc98g1EnxN1Bc77K0Ppt3D+tYniDxNeeIpIzcBI44/uRoOAT1NAGNipRazjOYJBkZ5Q0+ymS2vIZpUEiRuGKkZBAPp3rvJfiRabcLFJLj1hxz/33QBpeAYW/wCEZWCaORPncFXUjIJ/+vXmmq6ZPp19c27wuoikKg44xnjn6V2yfE2Mt89s4X2X/wCvWlaeP9EuUK3MxjJ6hojj+tAjyrFej+Lo/sPguOADbuaFMfRc/wBK5bxdqen6jrK3GmxKIlQBiE2h2BPOPyFT+J/GT+IbOG0W2EEaEO+WyWYDj8KBnMkUmKXFFAHffDLVAyz6XIxDKfOjz0x0YfyrlPFVra2mvXkVnIHhD546KTyV/A5rNVmQ7lYqfUHFNNAHW/DzWLHS5r4X1ytusiKVLZ5IJ/xrB8RXlvqOt3l1a58mWTchIxn3/Gs/FJQAlIc4606kxQA2jFKaQ0Aavh7xJeeGriWa1WJ/NUK6yAkHH0qnq2p3GsX0t7dMDLIecDAA7AVWxSEUANNIadSUAIRSZ9qdikzQBbopaKBCYpcUYpaBiCloooEFApcUCgAxRS0UDEpcUUUAFJS0UAJRS4ooASkp1JQAhpKXrRigArC1/X0spodPiKtc3GerBQqjrknoT0Hua09Uv4dL06e9nbbHChY8ZJ9h714HqGu31zq738jmRpSzENnGOwAPpkd+1XCN1cznLWx0PivXFEPkXNi9lfeW0MwinyrDszDpkkEZ9Oa81i003I82R9sKgFlBzn3+nvxWzqF++oStNM8ixKiqc8FiBjnFYt/qJbdFGSI8bTgYz+H+NaLRak7vQmudUjt4fLsSYxjBVR/7N/hxWU07zHLEn1yetRPn1JpMHPNQ5NlpWDOPx7U1iSxJJz0pTyO+aaeOP5VBQdBTSeKG68Umc0DCjNITSFsUgHE0oPvUW6kL0ATh8HIoLKevB9qrGXmjzjRYdyzkg9cj1o3AmqvnN2o85vagVy5u5pcjHBqkJ2FOFye4oHc1rPUrqyJ8i5lizyQjde/9BXV6P4wSSMQ3scYZFx5mAOMY9CT279q4FbkdxUqXKn+KrjUlEhxiz1i1trG5kN/pN7/Z8hfIkRtikhgwzufPHsP4a7Xwt4+k8PCO31C0fh8G5hJa22kk4Jb+L7+Cc8nrxXz/AGWqT2Lh7eQqQe1dfpfj0zuU1CNGyMByA5zwckvnuPT+I1qpxl5EOLR9B6X4x0bUtPt9SMRa1R3lgSSUGRpl6HIBIcgDHbArzjxf4Xn1Ga51e0lMhlYXLxsCHBfkKm4ZbAI5zWB9hS4KXui3Is2Rw6PgFMjGMlwqjqucD1p1p471axuYRq2I2LhRNIm2NfRlKjjBHb8q0jZbkO5oeD9e1aCcaYJD5c6GMrMmNoHPHt7d/wAq6z+0tJ8UaOtjqtpi6AMSSAkmNsn7o/Dge1WdB+x65oaTTRwzCXesNyygSg7iWdcduOc9QCOlTaj4MFhp/wBqsAs67fM8mJi7p8q4BbvycgYAG0802+5Nr6o83Vtc8KtLHby3EdoZOQQULEdMjqPqMV6j4a+J2my6XaRXFu1sIWXY4/eKOT1yBgkceteeweJfs+pSWk87NbO6yK00eQpPXPWuk0PQrLxJBJb2TRwKQ7EABhIOSOrdcii3cdzt9f0/w34kju2EkGQAGLS7Xy/CsT/dzyAeDwe9ec6r8M9gmnsLrfDbgF0n+TqcdeQRnGCQPwqW88O63pls10WEiOgZHgcblXJ7qe2B6gZrP0T4nXFsos9UHm2+/LNF8rqMY+UZAHHfjoPpU8vYpN9TQ8KafqHhNZ5LkXcFxCW2wopRumC2cglOQT2+ma7nRPivqunIiaiovYiofeAUZFx3YZHXJyfTHJrX8F6/ouv6DNdo0ZDzgSwznLsAeOOgJAA9CeueTV3VPA1jqFhLHZxDT3kLsCqoUT5eNw6npnjuT6msW2nqWkmc7o/xT8NXs/kCeSxVidv2qPy+pz94lh13cnHH97v02j6DoXihpPPtopyIwftiY3Z+UgDGTjAHtjoOteG6l8K9df8Af28cVxG6NJ/rFEmF6/ITu46H+dWvAWs+IvBmsSQjz1QqP9GcsqZLLzt7HBHbt+TmotDXMmegeMPBd54ZsYp7S6RLe3mRopIywbO8dc5UHDMAT/8Aq8/0vxSdanXR9ZtJp97tbxzxAq5LcKWA4JGe2M89c17JJ480rxH4dmgv1jhu/K81be45SV0OQAfcgcehFedX/gjTNXmh1TRrtNP1A4mFqWBVHGDtwOQAcnv+FTTlbRhNX1PP9e8J3nhnVFtrhCGWXClhneB0/A1v299erpCoJrncZPLe2mO4q2DkbdvtgDJ6HoDW/wDEi5gns9P1A26pdgok6sgCM4Ykcjjna3A9BUvha9tnCWKxp5fmK0WHJI/ibAI5+YdR0HB611Ru1c552vqedz69qumSZUNJbnLRpImBzzye55BzXZ+F/iMk9vDDrCZeNl3OVO1l/vE5HOQvB4ra1bSdO1vRp7lLBG+V2UiNdy4blgRjK4JGOw57Vx9t4Wt766thZuId42soUuAowCzZ6ZY9yBnJ4pq+zJajujW1PU9ON1IIHEDSNtXzQyFV6AAenqeeeM11fhyLT9Z0OK3gW2luydsjMo3FRJ8p54wPQdcivOvGPhS/0zT3laPzIRKCXj5C4BBX1Az/AD7kVD8PtevdN1uG2aJmWb5UVo9zRkHjHPGSfT9KmVpKw0mncm8R+Grvwr4ha6s2EojkFwsYY7kX/aHfkEf5Fdv4h1Q/8I9FOZ5JZLZVmRWC/MhJ3dOR+PGB9ao+L7yKe3spbgLFOsnkypsKZBLndyAOeR07emK6DSdGg8W+FTbSXLCSH9yZAMsB2ABPII45/rWcvhUkXHWTTK+gyad8QfCUttMd80C+U6gAN0G3Hfjj24rirO8utCSfR9ThM1rCwMXmKdyjPY+2OlQeE/7S8HeIrzT5xKqTh4/MjKk5UnkZ9sjr371u3Go2F34ga1ulyl4xJ8wcZzg4yM+9NLXTqGy16HQ6VfEhIZZPNSRd8Ew6SL7+hFalech5vCGvHSdQnf7Bdtm3uFyBC/Ygdvce9d5ZXSyNLaySIbi3O2QKevcMPYjmsZxtqjWEujLWKKWjFZmglFLSUAJRiloxQA2lpcUlACGkxTqSgBMUlOpKAEpMU6kNACYoxS0lACUmKdikxQA2jFLiigBtGKdTaAEpMU7FS29nPeSeVbQyTPjO1FycUAQUmKkjieaVYo0LO5Cqo6kntU2o6ddaVdNa3kRimUAlSQeD7igCpSU40GgBlGK1vDep2mkamt1e2f2uMIw2cHBPfB4qjfTR3N7cTxRCGOSRnWMdEBPAoArUYpSKKALVAopaBCUtKBRQMSgClooAKOtFL0oAKKXFFACUUtGKAEoro/D3gq812D7SZFtrfOFZlJL/AEHp71i6jYyabfT2cpBeFipI6H3oAq9KWjFFACUlKaSgAoFFVtSvF0+wuLtukMbP+QoQrnEfETUJ9RnTRrPlFBebBAPAyevHArxmeOWSWUSujxI21t3OTk4wAfard14jNxLdSXaJJK8m8E5wx54+nSqJviIpYpCpWY5O3gA89Pb9PrW+xktdyvf37ufLU4Xpz6f0H0rOfGevNTzwkDsQOAV5H41CUJBJOcVLdy0rEeefc0hJ6dc0rZH0PemHI61BQE9cU08H+tKepzTCfSkAHgHBppPXNB47U1qBgWppfFNJ9aYTSsFxxemk5oxmlCGmA2ipBGaXy/alcOVkeKSpfLIpuw0XDlG0U7bxRtouFhuKMUuKUCgLCAkdCRUqXLr15qPHtRigDb0vxJdafIDBOyZ4IJ7Yx/Ku50nxVY6xGYdRGZFXLGT+L1G47jyc9AOpryrFSw3EtuwaNiCORg1pGbRLjfU9jWLUNNuIbjRLiZoVA8qF9wIUHOEGdxBBzzgcntXb6D8R7RrWa2uUuRbEgXKXEpHlKoHRc8g/MuB9O9eF6H43ubEiOY+ZGSMq3IP9DwSOc9a7RrjSPFFrGZHHnr9xt5DgfX2ODtRe55raMk9jKUe51WpaLpOu2wm06RI55RkRoFAAP3QQWyp4IwPUc1z2ltqeg6kUiuCCsb7gp3KeOVJ6c57etUkOs6DJGkm/ULJZNyxyMyujbujAZAP3vl68niu38GazourvDFcW8e/dG6SRqSIJAR1z8u3PJGDmtLp7bku632NvTvG1vIzW2pwxwAJ5arBht3UbnJIJGeenXoaw9a8I6dqXnz2s1urli3mQyAxgHs/oc/z+mNC90qPRZIbhJMR3DxMHaUeWDk4UsWBGMD8+griZ9Zure7lWCaSa18wsIpQ2D/tY45455/PrRa4bbGx4OjvNA1S6gKul1hTEEQHdjODhvU4A4BJI5Ga9R0zx7fwWzLqNqt5lzGrErCQ6rynoxxnO3v65rD+G+rWesfbY2EeZY/3lukJJIHGNw6jBxwKteIPCDCxF3aRtMRHMQisJPKITBzk/MAOgzxx14rGatKxpDVD7Pxto97LEyXaRynZaiE4TC7sHJAC9AO59vWuk8J2cOovcPMBKk6uEidfliAbptBxgf7xPrjpXzlIksDNDMHSRmKlVTleehwOufr7V33wf8R3+iajPCjvLbbP3kcpciL5l57qD9SBx1q5pcrsJOSZrfFiy/scX81o2J1ht4/OCAModiCcjnooxk8Z7V5tD4Uup9Lj1HTrnznVN0oVikkbjG4A98f5zXs3iyWz8WTopmIGs2xtSzLgQ3C/NCc9CGIIBzzmvPdA0oz6LqelaikiIbnZMnR42wv5YZa8OtKUG/X8D06aUkjFOr6iujm11jN1bXkCiC53Z8piAVz2GCoBPXANYccN/pksdwPNt2UFflJ+bnPXuOPxxXT61p8nhvw5dWEcVxIDkx3CqGBDNkhh/Dhc89Pep/C9yLUR6Rq4imhaItaSFi8bBhkoMdTnHH9K7MJiW3Zs58RQSV0jS0HxFfQRRC2uzellaTyjCZcjaMB+RwAXGAc5GOlZd54rWTUpW+xG33Mdzx5L8ngkZPr/+qu50jwXa3mjyyLbm1ffuijyXUZQ5yARtA3Zzn/aA554Txd4evrG/8+7iSZjGWaSJzhiDjOOOSPx7epr1FLU87k0PQ9HvoNW0+2uoJY/mGWXapXcOvJPHfJwTnPtXFXfhyyOpRBYJ7V1YFpWPydiT/tDDfU/Wm+HZPIt4TbbRJErRZSTDKpbBX5TlUO8EE9wfQAwTeJxDq90twEYkiNNhyvGAp/TOeTz+RZXsJXS0Nrxf4c1JNLnvJLe3NvHAjpLFkbccnIxkZyW/XPGKqfCnxLcW2p3GmPO4jmbzI1J6le3LDgg8969G0nVbDV9JtYbMwXAuIcSFXBI4C8jd1z2PIHPSuG0vQ4NN1+3Nu8drula3LIMqSfk6A55Yk568Vik+Vo0bTsy/rlzp1t4wjcyC4jmMc0gYDd97kY6dmP0IrO+Jfh2SGOPU7DcqpKXPJ3IpwV4yflyP16d6i+Lunz2ElndTSrG+Wj3RqVLYyRxn69hjgdAK6HSdWXxL4MWP7Q0lwbURsjYBLLjJXBxk4x24z6URd4pg1aTTMJzB4y8L20d3Mj6hjGN2CGBIB6fe9frUOm3U2j3dgblskkQLJuBJBHf1APSqCadcQ2kl1bmRBGu8xqQCjHr06L1JbpxV6KNfFvgy5mtisd1ZtvU4O9G64znof6fWrkiYvZHoincMjB+lOxWN4S1CXUtEtppgBLsAcD+93rZrkas7HUndXDFJinAUUhjcUU6kxQAlJinYpKAG4op2KTFACEUmPalq/f6HfaZawXN1GEjn+783PTPI+lAGfRQaKAExSYrofCNjpN9Pcx6kHeTy/wBzGucse+MdT7VhSxtFK8boyMpIKsMEfWgCPFJTjSYoA0NG0G812SVLQJ+6TexdsAVVsbF76+hs0IDyuIwT0HNanhbSLjWLuaGC/FniI72zyy+mM81kywiG6eHzVISQp5i9Dg4yKALWv6O2hak9k0yTFQG3KMdfbtWditvxPp+mafcQLpt/9sDx7pG3BsN9R/KsSgBMV0ngb+1G1SaPSpLeJ2hO9pgSuM+3Oc1zlavhe1S81mKGS+axUhv3qttPToD70AZ7GeyvSVcrPDIcOp6MD1H41r+MdPu7O8gmvdQS8uLmIOxAxsxjA+lZWpW8Vrf3EEMwnijkKrIDw49a1br+zZvC0DW9jOb6KTE1ztbaB6E9OeMCgDn6QinEUlAGv4U1Cz03VhPe2bXcflsAioGIPrg/jWbfzx3V7cTwxCGOSRnWMdEBPSum+Hccg1K6uI5reNooD/rhnOfxHpzXL3DGSeR225ZyTt6de1AEJ4opaTFAFrHNLijrS0CCr2laPcavM6Q7ESNd0ksh2pGvqTVKunuIv7N8C2+w4k1C43Oe5UA4H04H50AY2s6Lc6JdCC52sGXcjocq6+oqhXWeMoi2kaDcDlTb7CffCn/GuUAoASlPtRRQMKWjFFABToommlSJBlnYKPqabiui8C6cL/X43dcx26mU/Xt+v8qBHf2hNpqFnpcRwlvZ7nA4B5Cj+TV5r4vcSeJb8g5Akx+QArv9BuPt2s6zfk5jR1t0Psmc/qa8uu52urqWdusjlz+JoAhoxS4pKAENJSkcU00AFcR8XtUk0/wo0UThHupBFk8YGCT/ACrt683+NciDSdPiLRB2nJCyYwflP+fxqo7ilseEqA9wWYHKjqfXt1qScmVupJ45Hek2mOaQjClXPA6//Wo5ycnGfQ1YiNWaPG18fSn+aj4DpnnHy8ZphG3gjLelIQuDg5JpWGDwLk7H5HY8YqNoXUZKnHrSN97JOSf1pC7g5yc47GkAxxx71GTjjFTNI3fB+oqNmVv4QB7UgIyTnrUZNSMVPAzUT46AmgY1jmhVzSAZNTonpUtlRVxFSpBHUqR+oqdYhxWbkbKJVEVOEJNXFh9jUqW5qecpQM8wU0wH0rVNvimPbcUlMbgZRiPpSGI+laRtvaka246dapTJ5DMMeKaUxWi1t7VEbfHaq5iXApYo21aaH2qMx4HSnclxIStJtqXbSEU7k2IsVYtL+eykDxOykehqLFIwppk2O/0Hx/udIrrjOFLZ/P8AkpwMZwa7W9sNO1XTRrelzRQXqFWliGNkpB6YAHORgbcADGTXhPIOQSDW74e8UzaLNll81DwcgHHvz3rZTv8AEQ422PU4viDc2Olrp17avb3Mk3mg7VK4YYbnjAOFIIqncfZIpw9rIk0DEMZBMCOegJIySMjPBqra6/pviuH7LdlW84gsXJARuec9c5PJ54bgDFVRZv4fk82UPdadv2tIqjzEABzkcjsfXGPWtlOxlydjuvhxp1zHf3ep28U0EKp5YmKfudxPQ5Ix0zkjHFeo6V4jgu7WeLb+9WOTKx/6pvk5Py9iMY3AZyfw5Dwp4m0jUFsdE0gvbxXECyQtDMu8yKjZVwqZPbjB59uaTxHfxWmkT39hBBC8m1RsRQYWO4MhAYgHAOG2jt0rP4mXZJEt3Fa3Vpbm8t7OCOdtwYqqvJkBQu0twRj73QDHHSn+A/CZjS8e2u1Mk0BilS4RW+UEnCZOTgqD2wPwI4nSfFlxpqMqSwzxYMaP98kt37c8Dpk/Tt7b8O0P9lPdspKtKBFvYY2g7du4D58Hd19vStaytEinJuRzesabd3uk3libgCTAmJVSGhlAJDNtJ9Bg5JYnAwDXCnVJvF4GqWTLa+KrRALu36DUYwMeag/ib+8vfrXsvjmVf+Ea1USPlLeJ1lM7LumbHBHU4GWwOM4PAxXzdPot9Ba2twHktnUtNb3W/DIM+vUcnIHHX6443hvaxdtzpVfkfkdvZ+KbG/iUTzrZ3P3ZIpchc+zEY/A8/wA653xpenSoba3tI4Yxv87aigYUHPH1Y/zqbUTeNp8d54r0x4vNAVdVsQAk/GQXB4Y/kax4NG07UJY2tr+fUVZhsghgILHPCkk4AzXlRo8k9Ud7qc0dz1jwjr2n3VpcW6+TFfMU3GaQgkDkkeg6j3z7VpeLFPkwKsAw0ZhKs3XJ3ZwRnJ55JwMDrmvJIItU0nWPtV7FLbJIW34U9MjpnIxnHP0robjxJcjSIJYmM9xZjeVlYltjDht5PXjI/HtgV9BDVJvc8WV1JpbHV6N4fivrGeK2CQmFmPyRlg4IHAA+deSTnkZA4OK4Dxl4NvNKu1xbFoymFkij4JHbjkevPP512Hg3x7Z3eqGK7f7M0qtvJHykYwQTyTwc7j78c11WuXEV1bFYTnyUWYfvPm+Y7CB6YxgjPbtTaaYlJHA+BdQWPRgsV1fC4jLKoUhQu7b/AAjJJOQASMflVDVtUk0jxM07xMI5JEuIy38QBycjtgg9s967zwx4b0rU7820sEcZmjZ5dy5bAyAuBjOOTk9Ocda5v4s6FNb3EOoK0UsGwjbGdmz+LJAzk85znHPbHMp2nYppOJ2Hja2g8T+CTdtFAXYLMu1txBz1BIA7kfp2riPD2haha+HZDazJJGLsjLOYw67F49Dz6/410ejzuPhkslpYmQPaGELInHyFsvy2ByOvXP8Au1B8Pbsa1p2oRzRCaIyRP9mwCEHOchjj+H0zwKiK91obeqbOY8B3/wBov7jTbx4XZUIBYH5wvGAR97qen19qp2Dnwd4wu7cSM9lMG3J13A8YwOMjNRS6bcaT46kURyorytsYH5k3Ennvn+lat2G1jxEnlwoXQAlAoOeOGAHY4rbfUyta6NTwqVsNWu40Yi1nxIgbjnJB4Pvj867KvMLTUjoniO6ttUibyhK8kQzkopBBwfTHIx3Fel2shmgVjw3Qj3rmqxs7nRTlpYlpKWisjUSjHpS10ug2tjp1jJfazp8rxS4ELsm5T7Y7E+tAFS68H6naadHeOikyEAQry4z04rGmhlgkaOVGjdeCrDBH4Vv6b4wvrO8DSFrm3wUWFjyATxg+o4qDxRBqj3ovtStRbm4A2gEY4HQ+9AGJikxTsUlAGz4TktodSZ7qwkvIxGflSPfs98fp+NaN2uj6nodzfzXkiXCu32e2MufKGeFC+hpPB6atbWt9faelsyIuD52eSBnjHsao6ddaImj3v2+Bpb+QnyzjpkcEHtz1oAwsUYpaSgDU8NX17Yaor2FstzO6lPLK5yO/06daqarPcXOpXM12nlztId6AY2n0qxoFzqFrqcbaYm+5cFFQjO4Hr/Kq+qLdjUJ/tylbkuTID2J5oAqUlLijFAGr4Y0201TUjb3l21rH5ZIYMF3H0yfbNUNQghtr6eG3l86GNyqSf3gD1q/4bs9LvdQMerXBggCEg7tuW9M/nWfdpCl1Mtu5eAOwjY9SueD+VAGlr8WhxWdh/ZUjSTlMzkk9eOuehznpWJWxqdlpdvpNjNaXfnXkuTOmeE46Y7VkUAJWl4cNgNXhOpQPPb85RFLZOOOByaziK2fCMt/DrUTadbxz3G1htk4GMcnPagDLvzA17ObZGjgMjbFbqq54ro/Dh1bV/D9/o9klsIUG9mfIY5Odo+uO9c7qBma+uDcqFnMjGQDs2ea0/CN2sOqCCbUJbG2nUrI6MFzxxyen1oAwmBUkEYI4xSVc1WC2t9RuIrOYz26ORHIf4hVXFAGtoWn6ZeWmoS6hem2khjzCoIG88/n0Ax71jGt/S/D1tf6BfalJeiKa3PyR5HzYGee/PQVgkUANxRz6UtJigC1S0lKKBABXY+MoDa6DocC/cWPr77R/9euPrtvGD/a/C2i3Cjrhf/HP/rUAV/EWU8GaIj/ePI+mD/iK5Guv8eEW9vpGnj70EGWHpwB/Q1yNACYoxS0UAGKKWjFACV3fgeMaZoGpasw5IIX6KD/U1wwRmBKqSB1wOleiNam18CWtmnEl35acdy7An9DQA2wlOh+BJbmQ7ZroNIPUs/A/TmvO8V3XxHnWG3sNOjOAgLlfYDA/rXNaJ4cvdeExtDF+5AJ3tjOegH5UAZNGKuahpV7pcxivLd4mHcjIP0PQ1TxQAlJTjSGgBmK8R+PchTV7EbjhrcqB/wAC6/yr3CvGfjxZFbyyu2xsaIoCVyMj/wDXTTsJnlFqp8scg+lHUdenrSwbvLOTx068GpHkYgZXnGK0WwiuRjIxz3ppBVV649etSEAZHGR7dKjPPOf60ARk5PrTe1SEHnkflmmNknp9TSGRsMnB6VG+Ceop7Hriom6YpAMY8c5qM09j6UwDJqWMfGuetW4481FCmavQxZxWcmbQQ6OLgd6tRxcdOtOii4FW4ohjGOawlI6YxIEhz2qZIMdasJD7fhUy25BPHNZORrGBW+z5pptW54GK0ktz3qQ2+QBip5y/ZmN9myOF5FH2U88ZrXW2Bx6ihrYKQO/tzT5xezMRrXrxUTWuB0rce0z1GPxxUD2pB4FUpkOkYclv7VC9v7VuPaEE8fWoHtM5OK0UzN02YbwH0qFosVtvZ8cCq723tWimjJ0zJKH0ppStCS2PpUDwEVakZuJTK03bVhoyKjKmquZtCRyyRkFGIxXV6L4yaFFgvWLISOR1H5+4Bx04965Tb7UhWqUmhNXPRLeNfMFzpEsYbkmLcdpOMYx19Onb1Oaz317VrMpBfebH5KeXEnO0AHkDt1H6Vy9hqtxpzho2PByOe/rXSL4gtdVja2ukUN0BPRP8emPpj0Faxl1RDj3Ol8Opca3eJBbsxErAvKnJUFsDIGD1PqfpX0Fo99pulaPFDB5baW5CW63G4bSq/OSSQMkfMBkYPRTmvmewmu9Dfz7NnlXaybUkKsvHXI7AH6c55roIPitDp6WsMWmSSXVs2fMnl27eoICjgg55znOPelOUpaMIpRWh6d448fRz28Oi2KRiCVpRKokLKDlsFmwCMKM9SMNWDeXOnJYqxhwojRJdqCMSAEYUY4z1Oev6V5/b+KJr26kurud5ZZsGQj/WHGAoz2wMdM9K077V4b9Le3txKxuWEm1VLMJTgbQTknqBxgcV1QtGJhO7ke4WviLTdT8C4kWawm1GXZGpi3BgXCfJnjJUMcDHIPQCui13w/p3hrRoNO0m2ijOz5WRUUsAMYLHrncenPP415bpllJJ9ksLea5dbWBjNHw62854RiclVALFsDjjPPa74j+IcL6rb6ddXUl1YxW+VuGjMZVieuMDcMkjoPue9YqCczVtqJpwxHUtVtrWe1DBCF/eMHUHAwAPQjjt174qXxV4Hcx3k1htaKaMxsEUMxPfBPqCPpgYqHwVfwalqeNNkFwsAIDMAMtjKgDPXvjHb6V1PieSO30mWNAjtuKKZFOcegx1IOT+VVP4rGcXoeB6fpk+k6/b+cxgZJ1DN8uEXdgtluMYzyc9K6qe7vRa3sCTzoqRCQLFEpPThic4X5SenPCg5NdNoenpqN/YwSwwTx/64bsEDBznaeeD2PUVn+PfCh0+2n1PS7ObYQySqW+4GYjjPXIK8e575NU3qJK5m/DjxVNLrlrHJEzSZbYqIEU/ISNx+vfB+7XefEe8hW0sVxCY5C7iRnBDcDoR1GD6dK8t8EafdvcSyxRyM1vGy56H5sDAJwobBz9Mj6bvjTxIsN1a6ckkk0VtuL7hkoxI9BtHGTjpjGPYfvTQl7sTtfDHhm0bwCPJSDbKZWlAIBPJAweceuCP8K8u+H2qvo+t3MRcpE8RaRXyyHaw4OBkexAzn2zXt/huSLSvBMU0WwJ9naYZAwM5YcjqeR7815Ho+hTz6/5+nxiO8McjFN338jGB2z/njJrKG8i5bRLeqXNprniJj5Jj84pnaCcMVHy8gZxx1z0rlPEMM3hnxJbSLI2zKhsx7W2jjnII3Ec8dBitLxTqU2meLLWYPJuCoZVaFo84kPTPPI79ySe9T+O4E1jyJ1aMlVPl7pD8x4PQ8jr689a2WyaM3u0yp4ojtru103UbNWuPL+ZQ/O5epB985/Cu28Lax/akDK0ZjeMAEHvjjP4jFcJc3jwWC2t6SCjIQw54YZGPbqOv15zXR6XdS6f4jiiVAtneIhBPXeUB9e+Onb1rOoroum9TtaMUYoxXKdI6KF55UijUs7sFVR3Jrc1671q2tINK1HYsaqCu0AlgOmT7VkWbzx3UL2u7z1cGPaMndnirmvT6pPdJ/aqskqphVKhQF9se9AGYCVIIJBHIPpXRavb39/oVtqt9qaTH7qQkAHH4dT61ztbSaNaHw4dSk1FROGISAEHv09c96AMTFJinUUAbtnHZxeGLmU6pJHcyNgWyPgNjpkdeeeaZ4b1qw0eO7+2WQuXkXEZKg49jnoKTUtBt7DQ7O/F6sk9xgmIY4BGf0qDw/qlvpN/9oubJbtdpVVPVT6jNAGWx3MTgDJzgU2rF7N9qu5pxEsQkcsEUYC5PSoKANDw//aA1aH+yyBc87SemMc59qj1sXv8Aatx/aJBut37wjpnHGPbGKTSmvU1CEaczLdM21Np6k07WrO+sdQkj1Hm5b52O7dnPfNAFCkNOIpCKANXw1ZaZfXrx6pceRCqFhltuT9fpms26SJLmZYGLwh2CMepXPB/KtLw5p+m6hdSpqV39mjSMspBA3H6msuQKJHCEsgY7SepHagDevNXsp/CdvYQ2DrPG43zbBtB9d3qa5yt9PERHhh9GFkCN2TMD05zyMdfxrBxQA3FavhiO+l1qCPTrlbe4bIEjdAMc8d6zMVoaDpE2taklpBMsLkFt5PTHp70AVdShlt7+5inkEsqSMHcHIY55NMsvs4u4Tdhjbh18wL1K55pb22e0u5reRg7xuVZgcgkHrUOKANDxAdMfUnbSEdLQgYDA/e74zzisyukaa61bwqtvBpa+XYNukuVI6fTrnnn6VzlAGtpsOivo1897M6X6/wDHuozg8fl1rHxWvBYaY+gXF3Ne7L5ZAscA/iHHb8+fasmgBpFJTiKSgRaopaKACvQ/DNtF4j8M2trMRmyuQfqAc4/IkV57XefDRJjBqB5ERKgH/awf/rUAc14t1D+0tfupFOY0by0+i8fzzWRWoPDmqzXs1vFZTSMjlWbbhc565PFW7rwXqVjZyXd1JaQKg3bXl+ZvYcdaAMCilooATFdZovhq0s7H+2NeYpbYzHB3fPTP+FVfBeh/2vqgklTdbW/zvnox7D/PpTfGOsyarq0kQJW3tmMcadORwTigDf0rxrpzahFYQaYltaSsI1YYByeBkYrrp7KOeS3ZgNtu29VxxnBA/LNeP6RE02rWUafeadB/48K9Q8V6uNI0eWRTiaUeXGPc9/wFAHm3iXUm1XWrm4JJQMY4x6KOB/j+NdTpWfDHgua/zturrlMjoTwv6c1x+kae+q6lb2a5/ePhj6DqT+VdJ8RL9Tc22mQnEdum5lHQE9B+A/nQBteEddvPENtd/wBoRQPFCAMhcbiQc5HTtXm0xVpnKDapYkD0Ga7vwWfJ8KapMv3h5h/JK4LFAFvSLH+0tUtbTtLIFPsO/wCld1rfw/sr3L6ZIttMo+aMnKH+orN+HmmIHuNXuABHACiE9AcZY/gP51zmr6xPf6vdXsUskYlbA2sQdo4HT2FACa7oUug3MdvPNDLI6byIyTt9jXk3x00xr3wkk8aktbzhjjqFIINekuzOxZmLMeSSck1meItLXWtFvLBhkTRMo+uOP1ppgz5Ttt5QEbQD0pz56HjB6kU+aCS1uZIGUKVYqeOh9Kax2NvPIPNaR1RD3IZMjjpn1poPy4B608hSfp1qOTGOOPQUxjWznauT9eaYwK5GeMetKVbOCee+OaYfTBApAMbP0pjc/SnHk00+9SxkEnU/lT4k9qaRk8etWoo8YrOTLiiSCPNaVtD04qG1gLEcVs2lt2/nXPUlY66ULjIbfvV2K1+WrUFqBjj3q7BabuQBiuWUzthTKUNqCQcdKtJbDdjHNX4bInsCKsxWWdx2jn3rJzN40zL+yj0p/wBmwv3a2BZ+2fanLZnGAMVDqFqmYr2pyOw68U57QgHaO2PwrXNltwMc5qT7HjA2KPal7QPZGCLPJAbJPTFI9jhtpHbpgV0UenqWyw6nqKkNlEvJXJzxxzT9oDpo5b+ziWPyjnvUT6ccEkAY9q7JNODMQsbAkA/U/THvTJNHZj8mGPoOfzqlMhwRxD6dz90VXk0w/wB3FdrJokgzhATnBOOai/sNywyuT3GenbpWiqGUqaOEk0w5+6KqSaeRn5c16BLoEoXdtBzxge/eqMuiEMfkyR2HNaqqzGVJHBSaeT/DiqsliwzxXdTaJJ2j69DVKXRHwxMeOe9axrGMqBxLW7L2qNo8V10ujE5+Xp+lUZtHI6L+VaKqjJ0GjnClIMqwYdRWvLpbDtVSSzdP4a0U0ZOm0TadrtxZybnYyDGOeo9K1bmex1qMFcRyAZ+Ucj2/Dt7celc48RWmDchypIIrRSM3E3LOX+z5x9p5UHG9Rxg/5Brt9Gn0+cFrKFzetgwvGwRIz1xgjBOOcDvXnUOrEL5cyho+4x29Kv2Opy6dKs1o5MbHJTtn/wCtT5n0FyrqewaXdRaAbkXjokYikSdgCXkO3gjLBSdxxg5xgcHoOLvda/tPUJ5nTiaUFUZtxVRuwCfYn+fSs2fX31tY2vHMsMI4Q9jnJH6VY0zSJVmju3MRtmy2ZXKAkcgE9Tjjge1a05mc4noXgqe70gNeQ3KF9ymVkDMG4DRLkcEkbhjnAzntW9rnxBiuTbWlxcyi4t03OwA2S8nkjkZIPTpz3rhYL5IkguJjGkFrGisjx70ZiyLkBurFSxIIwOPbGC2oPdMJZZpR5SpESF5IAwPYDAxW6ab1MWj6G8GygI91FcxuGiMaF2OSxI4DY/UZpfGchNpa2IM8Zdy7rJkuiZwvI6Dn9K878NXl1oEFtGqyOpYXTxgNiWID+HHGfmK44555xmuxtNRXxd4mEP7yN4wqjzCCZFCknO0njgD6jrzUve4LRWZZHgb7Bp4a1KvLOd8r7A4UMQpPPoFIyPfkV5JI8l/rjBLd4o7idY0hDF/LG4Aeg9vpX0x4j8yz0SY7jIzJ5I8tArEcK3ftz6da8qsfC8eqeJLa9hgkZIAJypUMp2jgkdPvH/OainKycmVNXtE6Hxf4hj8MeHX0qaeci42xpHJGB93bu+UcYAx09e5zVL4fRW0kdxft5syOoCQhtxKL1znjnCjH+RwnxE1qW98RpZxiaQW4Kjnd8z9eMAZyw/75HXFej+F549J0WGzby5YbUbybiIGQEffAxjofmwM8EeuSkrQ9Qb944D4l2Nvda601qjrFEERx5m7DdcDPQc4/P8ZNVmtk02C2KMyvMxt9o+Rdvyna5OSD2BHYf3quWtrLr+tyCeVWG95jOVO3HPOBnjgfTNY3jezbRfJUfKtxI0kbLuCMoXqe24sxz+nWtlpZGb1F8bWkr6XDeytHG8jJF5W3BIUdSeAD+AzmtS9v5Zp9B8uMiB4rfBB3FnUHOPQYb+VQ65qtvqvhrT4YowCVQudxbkqBkZy2M1X0/T7geJbO1M+4xJGxXoVUeo9elTMcD05fmAPP40uDSr0pa4zrJLO6lsruK5hx5kTBlyM81peIV1eeWO81SEx7xtTgADvjHbr3rKVijBlOCpyK6WO11bxlCbma4iSOHKrkYBbA7D8OaAOXopxGCR6UlAhppRycUU6KJ55UijG53YKo9SelAzR1fw7faLDBNdCPZN93a2cHrg0zw/qB03VIp1tBdt91YyOST6e9T+I7PVdPmgt9UuTORGDHhywUdMc1V0bU5NI1GK8ijWVkyNjd88UAM1iea61K4muIfIld8tHtxt9qp4q/rd1d3upS3N7C0M0mDsKlcDGB19qoUATWT3EV3C1oWFwHHl7eu7tVvxFDqcOon+1m3XLIGzkH5e3SqNu00dxE9uWEysChXruzxirOsSajJesdU837TgZEgwcduKAKOKSlooA2NGstHn068m1G5aOaP/VoGweh5A788Vi1sab/AGIulXTXoke9wREoyAOOCMe/XNZGKANWz182ehXelC1ib7S2fNPUdPz6cVj10vgkzG9uo4LOC5doDzK20IPyPXiubxQA01reHdFuNYuJvs90tq0EZk8wkj+VZVXtJ0a/1iWRLCIu0a5Y7sACgCgckkk5J702nEEHBGCKTFAHR+DtStomudN1G58qxuUO4E4+bjv24rn7xIUu5lt2Lwq7CNj3XPBpihdw3ZC55I9K0NdXSxdp/ZJkMPljfv7N7ZoEWo/DIfws+t/a1DK+0RY7Zx19e9YJFb15oS2vhi11MX4Zp5P+PcdO/T3GOfrWFigBCOKTj1p1JigCzS4opyMUYMpKspyCOxoA6bSfAd1dwrc386WMDAEbuWI+naukuNT03wJaRWEUcs8j5kIBGT7k/wCelYOgzXOqTS6zrNzLLZ2I3BWPys/YAdP8iud1TUZtVv5byYndIcgZ+6OwoA7rxdqmpHS7bUNJuStnIv7wxqNy56HPb0rz+a4nuXLzzSSse7sSa6Hwj4jj08vp2ofNYXHHzciMnr+B70/xD4LnsybrTA11Zv8AMAvLIP6j3oA5fFOiieeVIo1LO5Cqo6kmpUsLt5PLW1nZ842hDmuv0nR7fwnbf2xrBBusfubcHkH/AB/lQB0el6W/h/w68MCq9ysbSMf7z4/yK8od2kdnclmY5JPc13/hbxe2pXtxa6g6oZ2LQ5PA/wBj/PvToPh5p8Nw81zdvJAGyqcKMehP/wCqgDN8AaDJNdDVZl2wxZEeR99vUewrT+I9rJNp1rPGCyxSENjngjr+lVvFHi22t7Q6Xo7LjGxpI+FRfRff3rN0fx1dabZLaT263SIMIzNggeh65pgXvCNiug6fca9qC+WNm2JW4Yj/AOvwK4+9u5b+7lupjmSVix9qva54ivNelDTkJEn3Il+6Pf3NZdIDt/h1cJPbX+mydGG8e4Iwf6Vyf9j3T6s2mRRs06yGPH0PX6d6dourTaJqEd5CA23hkPRlPUV1EvxCtkZ5rXSES5kHzSORz9SBk0AO8S3MPhrQIdBtH3Tyr+9Yddp6n8T+lcrpOh3WtfaBalN0CeYVY4LD0FV728m1C6kubhy8shyT/ntXU/DWRV1O6jJ5aHIH0P8A9egDjSCCQRimnmt/xnpo07XrgJjZN++A9M9R+dYFAHh3xi8FHTdTGu2MZFtcn98qjhHA6/j/ADrzZiVX5gASOK+rdY0qDWbCWxuADFMpVuOce1fNfi7QLnwrrUljcLujXmJyOHX1qosTRg7RjHA96jcfO2DnB6471K0nIAA5457UxsZIAGAO9aEkbLxzyfQVGegP5+1SHoT+FRnA60hoaw7iom+lTMpA/WoXOBn+dSxjI1y5rQt4i7ACqltGW98mug061AAJ61hOVjopxuWbGzP41uWdn046+1Q2kIXkDn+dbVrGDjPcY9RXBUkelSiRxwYwOMZ61pRWoC5PTH0pIoSOO+c9K0I4gGI/TGa5Zs64IjhtcrhVOM1YS26YHXircK7jsYZ+npVqC33EcjbzWDkdEYoofZCpVhgHr07097bAHUhuQavtEew4zjnrSbCAVJ47EipuWolEwMTgA4xgnFPkjBU4AKjGSeoFTBdqkkFQoxmo5Z4kXdxlTgnOM9800myW0gMSABI85x0PUVJBAFIJG1mx948ZrNfXbS2LZbe6gldpxvx2+vFczd+Lp5ZkRP3aBthHoM//AFq6KdKUjlqV4xO1fUI7MyNuAWIfOG6nHt26j86bF4g0yxtpJ5ZDLJEUzsGCXYZA6dfbtivOZ7+e4jlZpXYzSGNfmwQOD39lqtd35MsMMW/IzIfm4zjCn8AK7IUEtziqYlvY9IPimEWrSC1UlpGjiR25JU859Mck/hWI/im5lmM2Y47YjIOzh+cfKD6/0rkxqB8pYgocqFDF+ucc/mc5qF4vtOJ5pHWNeVHTJzx+HvW8acUYSqyZ1Fx45kM6rBEGwQDvChTxz0HtU0vjWAuwOnuZuBtUDA9a4l52K+TDEsWOGZDksfr6e1amm6U8o8yZnigVcvMVDcegU8n9MU3Th2IVSfc6611zRrxVMxWGVzk7V+Xnt/8AXq22iRyxF4ikg6Ag8H3rlYrO0OyPS1upCMDfM6IpPoD+dW7SHV9NvVNuzpE/bfvwMZzgEg96zlRT+E3hXa+LU138PhwDt7ZPHX8apz+HSckR4Pf2ra0PWrt9qahbOoQ8ySMBuPGBtPJ7dK6yPTY5I/MUKT69c+mfzHNck+eG5203CotDyW50Ij+AfhWRc6LgEFMfUV7De6BGEO1c+nH6/wAq52+0IAMSnQcVMcTZ6lywqa0PKrjReuFrLuNIeMkAGvTpdK3My7Ruz271l3WkbvvLyB6V1QxByVMKeay2zpwRUaM8RyCfpXa3ui9SEx61iXOkkZO3iuqFVM450GjKjvSrhvunPUV0eneJFSPbcoWUNuDKckVz09iyE4GRVcB4ScZVvWtUzncWtzvr3UBrCRANsMnDuq/dGSRnBx6Vc0jRpbaZbhitwsSvIEUrk7cEK6npnPvmvPLfUZ7duDlcg47E10Fj4vMO5yqrMRw44OfU1optGbimd3c6zJGgb96nkeW9oGYlIzuLMmDx97+XNdJ8MtWe01W7vY2MUsabUkOAhdjgKRjgH5iPpXla3p1FoJmctNkqCEzvOOD26+teh+DZF0DSlkeWSC6RpWkZSoYKuPlLHnBHdeea19pdGTgeueLvH2nXMNrpl1cLC8rl9wy0TADaSHxnOc8Z9M9hVrwX9ntLXUNVl2Jb8sis3JC/McE46njivnLxL4m/4SLWXmhCCCBhFEckAhcDIBOBkDOBXbeHPF2pa9psOkWNpsht0GY2kJaTB9f6UP4eVCWjuy0PDlxrfiie/RHlAkNxMg6hM/MeP4v1PtV/xhqkunWEtu7TjeTHCtzAUlIbksZATkFflwT2r0rwl4Zl06we6u0E08qq7KHw+QeUxkd/59a83+MllczXyQ2h3W1goJUEEqfm46cYBA49PycZc0rdBONl5lj4Y6kiJO0sMyyKNuVO4bc89M5bpxg8VS+IOnjVr9kjiWJ08vYse4qSeR1x1GB07VR8Gzx6bpc945aO4Qj50/2iAvHJ4I6Dr0PHFaGjyf8ACQ6zkMnzyZKBcbiATyMccfTFbtatmKdjA1R7bTLiG1guC6xYjcliI1J5PynOCCcfh9a6u5hjtfH1g6R5E1oOVPBOPT/PSsD4kK8L20SwhBNumcRn5S/59fr6fhW4Ei/t/QXZZI5ltgrCQYYEZBz+lZT1RpDRncDpRS9KK5DqExVmzup4j5Ed1JBFKwEm1iBj1NV6KBG34k0ex00QGxuGmLZ8zkMB0wcj1zWHW3Z64Y9FfSobPdLLuBkHO4H2x1FYro0blHVlYHBBGCKBjasadZ3F/exW9r/rnPynOMY5zmq9SW1xNaTpNbyNHKpyrL1FAFrW4r6DUZIdRlaW4jwCxbdx2wai0mZ7bU7WVFjZllXAk+7171DPNJcSvLM7PI5yzMckmmoV3r5mdmRux1xQBt+Np3n1xw88UpRFX90MBe+PfrWDWv4ivdMu5oBpdp5EUSbWJGC59T/jWRQIltbmSzuYrmEjzImDrkZGRVnXL691K/NxfxGKVlGEKFcL261UglME8coVWKMG2t0ODnmtHxDrFxrd3Hcz24gGwKigHkeue9AzJxSU6mmgDaSTSh4adPssj3+/mXacLzxz0xjtWIa6iW8v7DwfFavYxJBck4nDDcwJzyPXjr6Vy9AG14TuNLtdReXVGZYxGdhGcZ9Dj2zWPP5ZmkMQKxliVB7DPFWNMtoLvUIILqbyIXcB5P7op2s2trZalPb2c/nwIQFk4OeBnp70AUa2fD9rrMkV5caTI0axx/vSGxuHoPfrWPWtpkWtR6ZeXVgZUs8bZyrAA+vHsD2oAxz9aQ040hoENrRsJdMTTr1LyJnunUC3Zc/Kaz6ktGaO7hdEV2WRSqnoxz0oGaF/pNta6JZXiXu+4mZhJbkjKe+Oo/H1rIrd8Z3M9zrsv2mCGGWNVRliO4dM8nueaw8UAIRTadSY96BFqrWm2D6jcrCrrGg5kkc4WNe5NVqeJ5BAYA2Iy24qO596ANnX9Zhmhh0rTsrYW3AbvM3djWHiiloAStXSfE2p6Ouy2nzF/wA8pBuX8PSsuigDqm+IurMhAhtFP94KeP1rnr/ULrVLg3F3M0sh7noB6Adqr0CgAp7TyunltLIU/uliR+VNpKACiloFACUYoxRigBMUYpaKAG12Xw3053vZ9QORHGnlj3J6/kB+tc5o+jXWtXawW6HBPzSEfKg9TXoV7f2PgnRUtoSHlAPlxk/M7Hqx9qAOR8fXaXWuMiqB5KiMnuf85NcwRVi6uJLy4kuJW3SSMWY+5qHFADcYrjfih4TXxL4eYwxg3dqTLER1PqPyrszSEAjBoA+QZYRE5AJDA8g9qiUe4PvXtnxH+EUV8suraCvlXWS8tuPuydyR6H2rxiS3e2fZJhXB5H/66tS7icSArngHI7VGQRlev0qVwOOepzzUbZ29zVEjHJ5AxVeU5PFSucn6dM0kUYeUZ4A5JNQy0aGnWxIHGTXQWoCFfQCucN/5WBGRx3xU0d7K7rvckg/lXPKLZ0xmona27LkYI4HWtOCdVAxiuLXUHQAKeBjJH8J/wqzHrM0PU5BPOO1YToHRDEHbiUOQR8p65q/bspwxJ989a4qHXmDRgtuAwfrW5b6ws+MrhRwcd65Z0WjrhWTOmjcgEZXPb2rQtZRtJySMdu5/xrmLbVFYA8Y6Ek8f56VrWc3C5bIxwCe1cs4WOynUTNbzQQeoB/So2ZSSxIGRjPpVI3exgBz70y6uMoeFJYYz6Gs1E0c7DNS1eGyG1yrNkZUn7uf6Vyeq6211I0QYBY8bD9Omalu4/tzSGQkvgg8df8+tZd3bbeTtbPyk88/X0/8A113U4RRwVakpGdLctJIzbtpzyB0HPUUP8zI2ACu1iPoT/jT3tioxg9Dn1x2p0MTPGzgDPcdee38q6U0clmMkiBZY2BXYxOPwpRbhpZJgvJxs54UYwK1ILU3P7xlwc5J9sf8A16tCzQCMOMbcfL2J9ah1bFqg2ZMWlCWQI+VVz8x6YUf1P9a0LjTGvf3UKhEUAk45x2ArRtrVpW+VcsRyelbVhopwGO4HqRWE8TY6qeD5jEs9FjhjCRorNjqU6H1HpWnFp6usTPIqvFxGCoIX6g5HvXTWmjxsELAghcjA5PtWja6DuBCB9i8khQR+X5Vh9Zkzo+qRR59NoN7JIZUSaaXr50jFVHrgA9KjjszpiyRvePJwSfIyoLH27getentoB24KgYOAeoPp+FQT6XBIpjmitnIP8QByD15xW8MU1uc9TBx6Hm8CXbpm0aaaP/Wsbkj9247g5zj8a1tN8U3Nmgt7wJNIQNrBgA469QfrWpf+Fkjw0EMqvwdpyB+Z61zmoaI4UrO0YcEEGPcxHp+FdPtYVFZnJ7GdN3R6BZa1Y6tbqySKGZTlG6g+h/AfrUOp2isDj0/HPT+leWC3vLOcfZroxOv8ZG3Ht34/lXZ6T4oN3b+TfKI7mJQpfdlZBzz7HkelcNfD2XNE9DDYht8shbiyCsGC4wcGqNxYhsYQ9MYHb3roSizxAqRgDAwc5qsbYhWU85xXJGbR6DgmcvPpYkVgBjGeawLzRiuflyP5V6DJbZXBwPXjNZN9pzEE+nc966aVbU5quHTPObjSTknb+lZVzpJLYUfmK9Hk0rg+vfP9KzbzSQULBRn19q7adc86rhdDza7sNh4qm8JTIINdxf6cUi2bAd3HA6c1jXVgQhZo/ujFdkKlzzp0rMz9J1JrRsNuKgggjqK6KPWI9X3LPO0YKsxZBlmODgHPr0z2rnn0xgCyqxwOfY1BF9osZlePIKnPTNaqS6GTi1oew+DPhzJ4i0m5nubZoUKOUnB/1TKpwzL3XkdMn61Q8ItLHr9u7QytNE5lURMRuK/NjAyeCOnpWb4Y+MOpaLayWjLE0jR7I5AuSM+oP4cV1XhS4sNcvIIFtrJRPGYJllkIQbhlST1U7lHI71vTk9bmFRLY9x0Lx3ayWjQ6pcxPPFEJXaRdsgUruXfwFDZwDgjnsK46+uZNSv3lkeIrOcsWRfu8lRxj15rzrxlJqmg28WnPcTT6fK4lS438nIB2vg4wDnBPXFa3w61WTUry1hvD51tH8y7BzkYABHcZPJHp6VrTirXMZ32Z2HiHwwbLShqFqgkNrIsyW8b7dhXGG/IEn6jpya898E61NpniKC9LSMQcOqoOSVIPAPT3/IE17Rr8sKaTc7ykm0YUljk5AAIB68E8deDxXkVr4ZubXVLi5XHkIMEsAqo5zwehx15B469BVQfcmS0Os8ZWkWsGyt7VUnNyhKgtjLlvvE9CfyqG4YQ+KtNsxnHk/LkEYw3X8cfjTPDlzJP43tba4eRvLxtjcZKAEsQD3HcEYGD0qDUUeH4rqNxcHBA7ICM4x2qZdi4a6nouKKB0FLXIdAmKKWigDT8P6x/Yt8ZzB5wdShXoefSjxBHfPeG8vLdofOxtz6ADr74xWdFI0MiSIcOhDA+hFbviQavdwW99fpEsbAYWM/dJ7kdicUDOeNaXh2/OmamlytoboqpGwDnp1FZxrW8O6vdaRcTS2tp9pZo8HgkqPXjtQI2xYeHNWmju7m+aG4nJlliVgBk87fbH9KzbqTw5bafd29vFLPc+biOVv7ueoP0rCmlaeaSZ8b5GLNj1JzUeKANjxHdafeG2fTbFraFUKs5TbvP9cVjVu6hq95e+HrS1axMdtCceeFO1yOB24rCNACEVra5rk+r29lHLapAtuhVSoOH6D8uKycVqazrsuswWsckEcQtl2gp/FwP8KAMqkpaMGgZqarbarbafZLfSE25XMMZbJUdefwrJrZ8Qabeactot3eC4Zk+VAxPljjj6f4Vj0CJbL7OLuH7Xv+z7x5mzrt74qTVnspdQnbT42jtSf3at1HH+Oard+a1fEFxpFxLB/ZNu0KJHh938Tf570DMg10NnZ6mvhC7uob5UszJh7fHLcgE57duPaufrVuILGLw/BJDqEjXUkn7223fKOvOPy5oAxzSYp1IRQA2prK1a9vIbZXSNpXCBmOAMnqaixVvSUsZNRhXUXaO1LfvGXrigQ3VrP7BqNxaidZ/KbHmL/FVOrN/9mN7P9jDC33nyw3Xbniq+KBiUmKXFGPpQBZpaSloEFFFLQAUlLU1taT3knl20Ekz/AN1FJoAi6UV0Fp4G1q6xvhS3U95W/oM1ojwVptgN2razHHjqqEL/AD5/SgDjqWuxFp4Ii4N1LJ75f+gpDJ4IiORHPJ7fPQBx1Lj8a6//AISDwtaf8e2iGRh0LqP6k07/AIT+FOItHhUdvmH+FMDkEglkOEjdj7KTV6Dw7q1zjytPuDnuy7R+tbsnxFvcEQ2NrH6Zyf8ACqM/jnW5xgTxxf8AXNAP55oAmtPh/qs2DcNDar33NuI/L/GtAaJ4V0Q51C++1Sr1QHP6L/U1yl1q1/fZ+03k8oPZnOPyqrSA7C88eR20RttFsY7eMcB2A/8AQRXJ3l5cX87T3Uryyt1ZjUVBFADMUGlxSEUANNIadit7w74RudfikmEiwwqdodhnc3t9KAOfxkYrhPGnwp0nxRDJPCotb8KSkkYwrH3H9a9Ev7GbTb2a0nAEkTbTjofeqxFAHyZr/h3U/DF69pqluyOM7HAyGHqD3FY5wDw30INfWfiTwvp/iWwa1voFk+UhWx8yH1Br5y8efD7UPB2oHAaW0flJgOPofemmFjk3BBIzS5woUdfWgHdneCCKcF8x8KMDpQ2CGKpJ6gE1egfaV3rnjBP8qWOyyBuFSi2cLgAjHao5kaKDFLbJVKDcPYULKcnkkE/lTAJIyM7h+NAVSchvzqW9ClFouQylcHIIB54rSs71kfA5U1iqMHmpomaPoR+VZSSZtFtHVW98SzElSD1B7Gt+21FVjQAdABXBWt06yhtw44xWxbXjNjLY7YrlqUzrpVTs0uxKflPA9qn8xfLJbqR0PWsGxufMxnNbKoJEBA+ntXHJcp6ELyRm3SSqzMCcAYzjr7VQktXfLOAwbh+efrXSGxldMBc+gx2qs2lumSMr689aqNVEyoNmBJpzDapZsHuecU9LBUYcZK8ZA6+lbph3LhG4PY9RVWSMqu08kcdKftmCw63INgRMKBx6D9Klgh81gWzg0BTj6HpUF3fLafKq7pD0FRrJ2Rryxgrs37RIYFBYgL74q2PEukWpCy3MbN6A5NcPNIbohr6dihI+RDjFb2lWyWwzHBFEqyBSwXoD0yfwNKdBJXkx08Q5O0UdPF4y08xjyYLk4bIYQMc/Xiui03x3ocYYXAkgyoDebEV2nPrjpWDoCNNCJDMRgMBnuytgj+X513OhWl3Lo8N0sdtcQSIihmAAY4JPXj9etRTiuayNKj927ZbtNf0DVQDbXkQJ44I/OqupWME7GRRCWA+Vjgtj8Km1LwZ4fu/mvdGXTrhuk1vmMg/UcfrXHavo/iDwuTJpt22rWgz+5mYCVfx6H9PrW1SLsY05K5fuWaI7JBxjgH/6/Ssm6ggfcSmVJyVVQAT+FVLDxdbapmGQGC5Q4aGQYIP0NWJpFGcKQD2rlU5RdmdLpxktDM1G3Ty2EajhdpR1yGyP8965yexELB4SEcZ+VckgfpxXWlvNXY2xSexB5rMuIFWXcqsOecH+ldEKzOSdCzLOhXZe22ytvK8ZHT6VqOqyAMeB2+tYkKiIkqPm/wA9cVp21yJEGWywH3c9K56kbu6OqlLSzJXRGUjqBzmqzwjZ3Kj+VWmwQMjgnmmP8424IBPI96zRszHltRuOAOOlU3tWK4OMHg46c1uTwAvnn5R0z1qv5QB25Awc/WtYzM5Quc1daXbtvR45GZRu4Xg5Pr9cVg6loclqsaOuI2b5SeTivQLmFRA7MWBPG5e3+TWNqtqZYrZ32JLyVDnCnHTr36120azbPNxFBI5L+yDcxpEseDt+dm45Az0/z1rEl0wEqeJMkgjtkZyP0rvTMI7dgqZLYdG6nkc/j06VkyQSeSGaL9180gVAOPeumFRrc4qlJPY4HVNKktZyHXax+YGtDwx4sn8OXSvgyZyro3ClT9K2dQ00XEY3fvAFDBw2TjH/ANcVzOo6XPG2x4mBUdcde55rrhUvoziqUmtUexz6xo/ibw7kw2lrfyshjWNmYNgYbK8gD5uKzdLi/sW0muHjje1RvJlAKrJFycNkgFwctjB4288CvL9M1L+zEU+dKJxKrLj7u0Z59QQa9W8E6xa69p93Be3VvDiL5WYEn738QB5GCc9/m4rspyVrHHOLOog8XRyLb2F5Mbh0bIcHClifuk45xnAI7Cu08P6eP7JmmlVS0pB3kbtmAQuR27kHv7GvE7jRpNO8QpaRAW8TSDYpJZYg3OD6gHv6jr0r2TRPE7TaRKwlJ8tV3BeAwCDaVDc8NkEH9K1ltoZLRnG+EFW1+IE88kTIsMjRgR/KsZJ2gHsQRnpVyUmf4mfa8xyLJMyBoxwPk9DyKs6HALXW7zWbiB5o5CAHXAO9fm+6evqeQQBmqngiaLU9XlulJJed3CsMFRj24BqJdS0eiqMDFLSiiuY3Eoqf7Fc/ZvtXkSeRnHmbTtz9ahoAStu9i1m60SK6uCWtEx1IyR/CSO/U1iVtSRay/h4SM5+wKRxuGcdBx1xmgDErZ0DxG+gxXKx20crTgYZjjaR/Mc1j1t6HqWlWOnXsd7aCeeQfu8qCOnTPbmgDDYlmLHGSc0lLikoA6a7utVn8Hwq1rFHZKwXzAeXAPHH171zHWuhhsZbjwrJPNqm2CJiY7bPG7PQ+57Vz+KAG10Os3EieHdMtH00W4I3iYkZf3GOec55rnyK1tQttWl0e0vLyUvaDKQhm5UfT04/SgDHpUVS6h22qSATjOBRipLdGkuI0WMyksAIx1bnpQBp+JYdLikthpl09wNhDlnLYx0+nfisXFbniuaOTUURNP+w+XGFKFQCe+eOKxKAErZ1TU9NudFsrS1svKuYuZZSoyePXvk81j4rTK6P/AMI+CGkOqGTkc4C5/LGPxzQBlVva5EtpoOkQgWrGRDKWjX5+exP4/pWDtya09c8P3GhG3E8kbmePeNn8PqKAMs0lLSEUAIa0NBvrPTr/AM++sxdxBCBGcEBuxwaz60dJ1ZdKS7H2WKeSeIxq79Y89SKAM6Qh5GYAKCSQB29qbS0lAxKKWkx9KBFmiilFABirOn6bdanOILSFpXPXHQD1J7U7S9Om1W+is4B80h69lHc112sazbeFLf8AsnR0UXAH72YjJBx+p/lQBDF4Z0XQY1l168WSY8iCMn+Q5P6Uy48dRWkZg0XT4rePszqP5D/GuTmmluJGlmkaSRjksxyTTaANG88Ratf8T30xU/wqdo/IYrOOSck5NLSUAGKKWigBKKWigBKMUtFABSVNbWst0ziJc7ELsTwFUDkmoqAEpKdikoAQikIp2KTFAD7e3e6njgiGZJGCKPcnFex6ZYRaZYQ2kQAWJQPqe5/OuA+H+mrd6s9zIMraruA/2jwP613etX39naTdXTfKUQ7fqeB+uKYHlniW4W716+lQgqZSAR3A4/pWbilOSSScmgUgG4qG90211O2e1vII54ZBhkcZBqzjNOUUAfPnxT+Glr4dm+2aPG6wOMtCcts9SD6Djr615xbxqHzjH9K+qfiBo76r4auhCpM0a7lx14POPwr5pksWt53jdSHRiCCKT2KjuSQDPAArUttMFyo+X361l+ZHajcx5H8NbmkRXd3OvmzpZRN8vPJB7fTNcdW8dT0KFpOwj+Hww6Y+tULrQTGMp2rs5fDtuEmE2r3IaIZOCtV4vAd5f2sEtvqcoM4O1XAYDgnk8f3a5oVvM7Z4fyODktGiJBHNRAMuQeldJq/hDxHpDEXMAlGwPwMEL64/rWKp2yeVPG0UndXGDXUpXRwyhZ22Io2BNX7R/nHX61C1pxlcUkDFJAD2NG4l7r1Or0lDI4Hriu60fSGlwByCcVynhiFZuO/bNeueGbNVjVWBzgda8bGVLOyPoMFC8eYrx+F5iuQvHoOeajuvCbqpBQEhu9egW1iu0d8dfrSzWCg5GeT0rFUp2ua+1jex5FqGhNbqzKuCO1c5dQsD8y9D16V7Rqmi/aC2UBxk9M15zrmkNbTlVUEDkUQk09S2lJaHFzu0OckqvrisOe5LyFnA3E/ePt2ro9ciaK2IIAPUk+lcLfXjZKxA56ZzXqYaN1c8jGSs7Et9q0SAGP5pwcHuCP8AGs+58U37Dyy7/KNoweg9K3NB8LvfW0l2RuZVJxXPXNiYpnVhj5jXZFRvZnBOU7XRa0rxHr017FBYvI088gREU/fdjgD8eK6258TeNfA0tna6lbX2mi2dWUOjJv8AbkfMOfpXBWJn0/UYLmIHzIZFkU+hBz/Su+8bfEXVPiP9igv7S1gEEjOBACA7NgZOT14/Wt3RpNXe5hHEVtkdpY/tCT3UJhvofPnkwis6hQo6DOOoHXFdDYeM9P1dZWtrxGSPEYXPLMeSB7dPzrB1D4Q2upaZaPGnkz+Su7Axzj9a8x1bQ9Y8JXRQFwiNwRx/KuGrhlP4WehQxri/eR6vrWk6dqxErKsVwPuSpwy/X1H1qpZi8sz9nu28xc4WQDrXB6P40uHkVLpi5ZhkgYwB2/SvQNP1SC8AB2spH5e9efVpSgrSPVo1oVNYk/2dT8/y5z+FNdAx5HB69qvCEKAUyR71BJFuJAGP1zXOrmskjMlhdXO0h/XIzmnW0Eg+dTkE4YelXDauTuVu3NT29nJvBIPAyT/jWjehlYiUkBkyd2M59KcMBSQTyOAR3qw8O1iCOfWoSpU4AyfY1FtTRMjkySCQMY7VE0eHyRnIqd1wM57dBULZDc0mUhhRWBBBx7VkalDE8KQXpZdmcHPPB6/lWw7hVPoOtYesz7CFmbC7izMB90DHGe//ANauigryObEtJHO3aTPbn7OxcRBt4zw2MAEVa0l/tNvPLJC8sjqNu3HOOoH4ipkMTI8SKSzYMZXAHJ5/DIqpbSywxSkIC6SE/eweT0/LPSvQu2rHlWs0xkUP2i2NgYZFlRsRkDnHXr9CaoGAXatZ3CERK7ID1IY5281duzc4kvUXYiqFUluvPr9KsSRwzacsaZiKsu8Bs7+wI/D+VUnZXIersefahprRxOpifdGSAxGB/wDXqlpmpXWiXiyxErnqCDgj0rrbyzchWSfzVZWJ3/w7e/p1H61hahZBgNh+bG8AcHryMV1wn3OKpTO3svES+JrSKX93DqEabDxjdjj8+a1BfXOi3VlYyvJDBNglhJ8jISOCo4ByAT3PWvLfDmpzaRqkMysoMbjIdcgj6V61LYT+J7uyvbS1iSLasjB+QehIPr36etdXtoxV5OxyqhKcuWCueoHSzL4EvPO/cyiKSeNpQPnJXC4yMHOcfiPqOG+FzmTUJImVQVXzV5BOOn9a7WS61C+0j7CI41DxxxEqxxhR0A7dunpXNeFfD8nh/wAQefIwFuYygJY8E9Bz2rCGMoyulLVnTPL8RBKTjoj0MUtIOaWqMTp1vdX1Hwq1vDZxizt12vLnlgvPArl66nwtb6hrFjdadHf/AGe1UZI2Bic9h6DiubuYDbXEsJZWMbFcjocGgRFWib3Vf7H+znzfsG4DOzjPYZrPrTuNduZtHi04xqsS4G8DlgOgoGZVbOkyaJHpd5/aEbSXZyIQM+nGO3X1rHrW0C/tbFbr7Rp32x3j+Q7c7Oufw56+1AGRSUp5JOAPaigDZtW0NfD8/nhm1IkhOvHpjtisWtrQ4tFazvZNTkPnKv7lASM9emOpzisSgQVprHq17oxbdLJp9s3QnhT7D8azDWpYf2vNo95Has32FBulGR+OPyoAyq0fD0VxNrNsLWVIpQ24O4yBgc8d+Kzq0NCsra/1BYbu6+zRbS2/IGT6ZNAx/ieSaTXLkTXCTshCb0GBwBxisqpruOOO6lSKQyRq5Cv/AHhnrUNACVrQpox0CVpHk/tPf8g5xjP5YxWVW1o2s2OnaTf2s9l509wCqPgEAYwPpg80CMWONpZFjQZZ2Cj6mtDXtHu9FuYre8lWRmjDKVYkAZPHP41QhjeWaOOP77MFXnHJPHNaXiTT77Tr9ItQuftMzRK2/cWwOeOfpQBk0lLSYoAStfT5ILXQ755tNkmkmxFFclfkjz7+tZNaM2q350WDTJE22gcyIdmC/wCPcc0AZlJTsUYoGNoxQaM0CLGKWiigDr/h8ghbUb0gEwxAD9T/AErlJpnuZnmlJaSRizE+pqxaapdWNtc20DhY7lQsnHOB6VWjieVwkaM7noqjJNACUU+WCWBtk0Txt/ddSD+tMoAKMU+KJppUjQZZ2Cj6muw8SeFrWztbC3sIWa8lfy87vv8AHJNAHGUfSu8TTtJ8G2C3F+iXd8/3Vxnn0UHoB61N4ngtr/wquoC2jilKxyKQMFc4yM/jTA89opa6rwPoC39y1/cpughOEUjhn/8ArUgG6H4Gnv4Rc30htYSMquPnI9eegqxL4Gtrq1efSdSFxtyMHBDEdsjpSeOPEbzTtpdq5WKPiYj+Jv7v0FZnhXxENBun81Xe2lGGVeoPY0AXIrM6T4MuZ5FCT3sgjAI52g9P0JrnrCxm1G7jtbdd0khwPT6mt7xnr9trD20Nk7NDECzErgFj/h/WtHwnaxaLotxrtym52BEY77c4wPcmgC3Z+ENGiT+zbljPesnms6nBQZxx6Dnv1rhdRtBY389sG3iKQqG9cGvQ9KEmlafea5qYIubj94yn+FR91a85up2urmW4fhpHLn8TmgCKr9poGqX0PnW9lLJH2YDAP0z1rf8AC3hSOWIapqm1LYDekbcBh/eb2p+p+Nbu6vo7TRtsUQcIrbQTIc46dhQBt+CNJk0zSma4iaOaZyzKwwQBwP6/nWV8RtSIW305G6/vZB+i/wBa7YEhAXIyBzjpXj+uXzanq1zdE8M5C+yjgfpTAoYpMU6ikAmKeKaKctAEiqGBUjINfPHxM0BNE8SyiOLy7eY+ZE38JHcD6dK+hiWWNioLEDgDrXlXxRuLLWNIYTJJDdwSEhgw2SYBzuGeDjvigd7Hil/MLWYyAqzn7p9BWfcanc4JMjAkYwD29KdqEYDF0clRzkmooLRprcS4yualxW5pGT2QxtX1B1w1xJg/7R5rtPhxbeMPFWpS2Ph+/X7VBA0yxySFd44UgH1w/fA965GSyBXA69Rmr2gy31jeK1lcTW8zfJuhcq2D2yKSjCS1G3Ui9Gez3+ueOfAbp/wk+hW13CybPMiYSADHILIcg/p9a5XxHrPhjxBAZre3e0fgCIgZT12kDj8OD3A619PfC3RZW8DWtrqYnvXdd7tcEtyfrzXCfF74K6KNMm1fS4EsbiNclYlwjfUVzuMN47HQq878k9z57hgMWI2kWWJuUkH8X+Bqvc25hmHHWktLiTT9TNlOFaBn2tnsfWtRrPz7yOJcEZ7c1Hws1fvRstzq/BVo7+WcHOetey6JDsRA/PHBrivB+j7YEUISQBkmvRbBPJUKE3H1NeBiJqdU+kw8HTo2ZtWmFRQCOeas5BXkcZ6iqMErnk8Y9BU5kwPU12U5aHFUg7kkdshcqcZbPAHPHvXH+M9JSNjMoJwOh7/55rrbefkliV9QeAKra/ALu3CDJLDA5685q504yiKFSUJ6nz14vjnuES0trZpp5FZyqDJCj/8AUTXBjSZWUyceuK9v13w9DDMZWzux94cHpjHFcpPodopLKFXd6cc+hralVVNcplWoupLnI/AKAWbwykBhxg+9Yvi7wu9tcyXMEXmwk/MF7Gup05LXTmB2ld3G5TkGt9JrObaZJBgjIUjk+9Ht7O5P1ZtWPChZMJfLVXbPQYr0/wCFfwzn1HUYtS1KEpaxEMqMOXNdZY6XpTzh7eFGkHPCgk12Ok6tI8scNtDHF8vBdsA9OnqeR+dV9au9EZSwUktWdFJY7hsSItxhUxkmvPfiH4bSKNYrgwPeS5220Y3yge+BgfnXW3Pit1tiGumMXRhbJ8z+uDj9DWJquphrQw6daRx+ZGztIHDOwbK4LZJzgnjPfpVSqab2HRw7UtVc8vXwfpzWrW1zpYsr9ZARdxSH5VHXcnOT+VaFh4A1OzCSYzF2mRgVbjrt6iuo0fwvNcT7h5nzuHYyjcVz1HNd/beHodPtNi5IOc5zisOaU3rsdbUKdmtzzez0+ZFCGQuvZj1/Lt+tTTaa6/OFznk49K66fTY1cnav3iAMfnVUWILFSc9Me2awdPU19roc9Bp52glSCwzj/IqVrPYmBuOPUV0sNkVHBHA9OvaoLm3BcYGCOwPP1q1SsjF1dTmJIVBbIODx7mqbwmN2A6epPFdFd2gYYMWMHGc9ax70Km5QD7Z6VnKNjWErmbM3I29KrsuVHTB55qaYA5GQPSoS2cDg8d6xZuiKUsFOc7cisbX/ACNheTJLAkfUf/rrbyCpHGc9+1ZGqYUqSokIOAp55PetaLtIxxCvE583T/aSPLYhTgkHnbzwR+IqO+lcWtyj7jI+CFx1A7fy/OtSC1SxjcS+WVdcknjvj+tY2sTGR5xEio2zjHQ4I7/hXo05Jy02PLqRajruAvhb6SA0Y80ny+uQOAQ2D6ioY7qCVU3qVcBSSOgGKitoDfghkUuUUEEdwOP0OPwq/DoVyY1O0ebHhRgZDr3zVzlGLs2RTpykrpGV9oFjO8UmSsseUbqCOelZ9xZm9nEUSsZVI2Ar9/Pt9K660+Ht3qs8ZuJNkCncEUZJ56c9q7/w34At7FlWO3CDOAWySah4mMfh1ZpHBylrPRHDeDvhUr3KXV+vmy5+VOqr9fWvbtP8OWehaYbi7MakL8oPQ8cdKspHp+gW5mYRkwjd83A69zXn2uXWr/EG68sForFSQFHG8f4VhNtu9R3f5HZSgkuWkrLv1ZS8S/FK3sb2WDSLX7RtYjdn5B9PWufX4kaxdELPHDsPUBea6VvAMcCbSijA9OtYmoeFDErbFOfYVilTeh2KEtzvfCHiBr22jiuXX5/9Wc5I9j/SupxXjvhGC4/tD7H5hXkEfUdK9asLg3FuC4xIp2uPcV6eErOS5Jbo8HMsKqcvaR2ZueGpIU1aIXNw0ED5DkOVDDHQn0pfE0dgmpt/Zy4tyByPulu+32rL/wA4rpNd1O41/So5LfTnitLY/PJ1AOMYHtXaeWczW5rniCDVNPtrWC1EIjO5uBgHGMD2rJtGhS6ia5UvCGBdQeoq74gudPur4HToBFCiBeBjcfXFAjLra8PeIH0WK5jjtFneYDB7jHr6isatfw5rTaNLcNHafaHlQAEdVx/T1oAx3YuzMcAsSeOlJT5pDNM8jAAuxYgDAGTTKANXRtGg1K0vbie7W3W2XIHBLHn9OKya19C0AazFdStdJAtuoJyM56/pxWRQAlaWmjVZ7O6hsTIbcLvmCkYxj/AHpWdW14ctdUvVvINPuRDGY/3u44DDkAdPrQBh1oaMdMWWY6osjJ5Z8sL3b3qiRgkHqK0bCbT4tNvFurWSS4cbYZQPlU/0oAzDSUtGKAG4rW0DWLbSDdGezW4aWPYhOPlP49jWUavaLqSaTfC6e1S5AUgKx6E96BlKKKSeVI4lLSOQqqOpJrS8SyTvfxpdWn2WaKFI2UvuLY/izVfT0ubvVYRZBUuHl3R9gpzn8hTtdkvpNUnGouHuUOxiMYGPT2oEZ9FLQaBjTWjq2uXWqwWtvOkaJapsVUXGeOpo0C3nudXtVtYUmkDhwjnCkDk59ql8U3E9zrt0blI0kQhCsbZC4Hr3oEZBpKWigBuKMU6koAnooqSCLzpFj3YZjheM5PpQBc0bR7nW7wW1uMd3c9EHqa6W91Ww8Iwmw0lEnvektwwztP8Ant2qa8kj8F6AlrAR/aN0Ms3deOT9B0FcMSSSSSSep9aAO98Q7dZ8HW+pTKonQK24DuTgj8a4Ou910fYvAttAx+Z1iX/2auCoA2vCFkbzX7YY+WE+a3tjp+uK9JvjbWitqNwB+4jbDHsO+Pc4FYHgHTPsumveSJiS4b5Sf7g6frmm/EHUDDp8NmjYM7ZYf7I/+vj8qYHF6rqU2s6jJcy5y7YVf7q9hXa+NnFl4bgtU4DMkYHsBn+lcVo0H2nVrOEjIaZcj2zXTfEe4zNZ2wPRWkI+vA/kaAOPtrd7u4jgiGXkYIo9zXq+yLw7oLCNRttoSeP4mx1/E1yHw/0zz9QkvnXKQLtUn+8f/rfzrovF12r+Grp4GDqzCMle3zYP8jQB5nI7SyNI5yzEsT6k02lp0MMlxIsUSNJIxwFUZJpAMAzwBya9dsbKCDSLOKdRtgjRju4AIHU1z3h7wnFpK/2nq7Rq8Y3KjH5Y/c+9XvEyy674dE2lyPIjEOVTgyL0Ix/T2pgct4r8TPrM5ggYrZxn5R/z0Pqf6U7wj4abVrgXVwpFnEcnP/LQ+n09adoPgu81CUSXqPbWwPIYYd/YDt9a7GPULISy6LYbVeKBsBDgKcdB780Acr418Q/apjplqwFvCcSFf4mHb6CqHgqzN34ggJXKwgyn8OB+pFZX2G7a6a28iVpwxUoFJOa9B8OaPB4X097u/lSOaUDzCTwg7KKAL/im+On6FdSqcOy+Wv1bivJq9C+Ipc6Vb7clPO+Yj6HFefYoASjFWLa1knZgkTSMFLFV7Adz6CoMUAJinLR1oFAEqdfSsfxBoNnq9vOs9pBOzIwHGHBx68VsJU4UOMMMj64pAfHGt6YbW8vLYAnypmTJGOhI/pTdJ8uKwdHIDJIUwf4gRW/4zjjTxdqyDkfapMAj/aqvBZ2SkLPuTJOSw/Xipk2jWnFPcyo9NuZpttviRT0B6ivUfhT8PE/tKLUtUKbY2DLGen1PtXHWl7a2DAw2kjsScFzgdcelbUevXk8SpJP5SHqqHFcFac9loelQpQe7ufTd18StC0CKO3tZDeTMuPKgORn39K5Hxd8S73W9MayfT1tY3JyVmBY+g5H615Rp+si3j8u2j2kjmRhktn0/xqY3E08m6STrwec1yurU22R2wwtJe9uzCvNNt0lllNujbv4m5Iq94T0n7Xdeew+UDAJHSk1powiwKcknmuu8G6cqRJkMTjkHtSrVXGldl0KKlW8kdbolmI9qopGB1zXWWcPyjf1rJsbbCjaACBxW1aNsJDryBx7mvLoxTldnp1pO1kXF6A4246cU1lG8DONvTIpyOJDjB9QKV4s9ec967raaHBfXUiAYn5TyBjFOMiSLsdGGOvcA00KRndnjuKkhVdwDd+M4zVQYprQ5/VNNEgzgyY4wRjOf84rhNb8PSF9qKF46g5JxXsFzYLLGcAAqOCOK56+03zMttAwefXHbFatEwnoeI3C31pKQPm28EGpF1SUMzm3Y5XaGPp6V3+p+Ho0cu6FmJJ5rEfQtjF4VIOThe9S5Jbmii3szCt9UYSrKsLI4bcSO5/8A1Vuabq5gZUVd5XLjfnhjjOOvpVu1tVyPMiV1bg8dcVu6Xp1ruxJb8bRkMNw/DNQ6q6Gip21Zn2V0JRj7OVJOSVc8nvXR2GkLIiAF41A6sQeDWlZ6TpgG5LZQx54Lf41rLZIgARTt6n1pKDerZMqqWiH6TZQ2sYCKCR3/AKVblRivzZyOCM01Sqr/AKvA9O5pWLNu4/M9K6VZKxxybbuzPmibzCcHnkNUCw7WIZcHv3rQkOSMx1AyFvmGOemfSoHfQpTIqgOoG4c4J6VSuASC4PXgccVbuOpAzkenBrPu2Y5Xgjpn0PrT5hKJnXrsVO07mB7muemZnYvISwbg898VvXQCgsvJB547YrnrsKkgCkkAdcdawqM6qSKEr9f61VkIIx6e/Wp5XLSHg+9VmJP3SBnpx1rA6BByMY6/pWfeoIyJGdvTaB+VX8gEHJ64plwnmwMjLwRySOlVB2ZE1dHN3k8v2Z22g7sBeecfhWI9rPDamOINI8h+cdh7/hzXVNbRZDHdskb7hGR9KpXA8u4IijUr9wnPQ/Su2FS2xwVKV9yTwxZGWDEqFSnI7cdq7nTdISWRdqjbWPocGxjI4X5/b+ldRp0gicBTj3HbpXBWq807ndSp8lOyOqsNBt7aNJH2lsA8cY9eaq6hex24McZPqSKsPrR+yqoA4XA9c+tclqeoKpZyx5zjJHvXUpx2gc8ISbvMr6s9zrEyafGSyjDSlRn6DNdn4X0QWtsqeUSMf3av/DnRYP7CFxcRYkuXMoJ646Lz9MV2NrpqIpKgbRzjit40G7O5jUxcVeNjjdW05EjB28/SuVuLNGYxsvXp7V6hrVhH5O9U7DOPxrz/AFODaxkRuV5rjxEPZzO7CVfaQOH1fSZNKuo7qByrFq63QL3zp2ySRNErg4xyOD/SnapZLeaUJgM7TzVTSmME1gpzgySJnH+z/wDWrfDy5asTPHJVMPLujpK3dM1e8u7GLw/EIkSZtnmkHIBOTWHSo7xuJI2KspyGBwQa9w+UOottG0zRtYeHUriKVBFvXzBgE85yPwrmLjyzPIYRiMsdo9s8Us9xNdSmWeR5ZD1Zzkmo8UCErZ8Napc6VNcPbWRu2dADgHKY78CsfFbnhvWbzTUuYLOy+0vMA3AJK478duaAMSaRppnlcAM7FiAO5NMIp8zO8rvJ99mJbjHOeabQBoaXodzqdrd3MUiRx2y7nLnG7gnH6Vm1s+H9KudXF3DFeG3hVA0gzw/pkZrHPBIpgNrT0FYmuZfO1B7FBEx3IcF/9ms2rujW9lc6jHFfzGG3OdzA45xwM9qQFFsAnByPWtV9ZmXw+ultaARl9yzcjPOfxqjeJCt5KlqWeEORGT1IzxWnr2o301taafeWotjboCB3bjAOO3SgDEpKWigBK0/DEcU2u2kc1v8AaEZ8FD0+p9QOtZlT2JRb2AyTPBH5i7pE4ZVzyRQMmvhJb63OLWNoZEnby0j5KkHgDFVLmSaWeR7hnaYnLl+ufetS8urfSde+1aRN58cZDK8vzZJHP161nXt3JfXc11LjfKxdsdMmgRBSUppKBmx4VsZL3UmMeoCwMKFzLnnHQgVk3DF55GaQyksfnPVvetOw0ywn0i7vbm/8qaI7Y4VAy5xx+FZNAhKKWkNACUlKaKBk1dF4GtoZ9aMkwBWCJpRnoCMc1z1dH4Ga3bUbi2nO03MDRq2cdeo+v+FAjK1rUX1TU7i6diwZyE9lzwPyrb8C6IuoXzXk6boLf7oI4Z//AK3+FJaeA703D/bpI7W1jJzKWB3D2/8Ar1d1fxTZ6XYrpegkYA2tMOg9cep96ALPxHcraWUY+6XY4+gH+NcnoelPrOpRWqg7CcyMP4VHWu01JdM8X6fb7NSigliO47sZGRyCCRVVNS0TwhbSRWEn2y8cYLA559yOAPYUwN3+1obbWrfRoUXb5JJx/Bj7o/IH9K43x7OZtdMeciGNV+mef61T0XVzF4hj1G9kJ3Mxkf6giqus6h/auqXF5t2iRuAewAwP5UgF0O8TT9XtbmThI3G4+g6H+ddv4h8M/wDCRXdveQXcSReXtZuuRkkEfnXndPE0qpsEjhf7oY4oA7jUNb07wzpP9naXKstwMjIOdpPVifX2rJ8L+ILaCCfTdUObWfJDEZCk9c/WuZpaAOyXwz4XLbxrAKf3fPT/AAq2mteGvDaMLBBPKRjMfzE/Vj/SuBxRQBp634hvdckzM2yEH5YU+6P8TS6P4l1DRVMdu6tETkxyDIz/AErLooA6C+8carewtEDFArcExAg/mTWTp2pT6XepdwEeYufvDIIPUGqtFAHYf8LGuPLGLCLf3Jc4/Kuf1nX77W5AbpwI15WJOFX/AOvWfRQB12l+L7O404adrkBkjChRIozkDpnuD7inLY+DGzIL2QD+4Wbj9M1x1GKYHUax4i0+GwfTdDg8qKQYllIwWHp6n6muXFFFABilxSilFIB6VMnHXpUKDmpWbbGSCBgZyegoA+VPGDifxnqTKcg3cnPX+I1l3NyTtGOg/E1Z1af7Z4ivbvcD5lxI4P1YmoYrbzXG7ofes5ysb0o3FjNzdFFQFlQYGO3rmtrTrNVK+ad7Dt2H+NLY2uMKq/L3x2rVhtSkeW4z3FcFSpc9WjSsT2bkjp6cVekuFgjYsRuHrVJfk+XB9iKiWGW+uVt4skseT1xWHKm7s63Oysixo9lJq9/vOdiHAz0r1fRtPW2hRQB05NY3hjQEsIlRVyQOTiuut7VI0A5JrzsTV55WWyO7DUfZx13ZctYwV649cGr6AqMbi1UoFw38QH6Vbjyx479/Ws4qxpN3J0mKDg++KuJKJVDBsjP6VRZPlwQaegaPG1hxXTCdjmnBMvyIpXA71EGwQeBj9famrOAOehpmQSPQ+prW/YxUWtzTgmz3wSPpVWeFdsq4BwOPU0QSYO0nmp3UMQRxk881snzIytys5vUNPEqbggJPr6isc2J2qCuDnPI57V2cqRrk7ckDGaoT2qSMeDn7v6da55bnVB6HMR2Ixhxxu5x06da17e1Owxr8obGTirqWIAACnI9f6U9bd06ZVsjn0qEjRyFt02IuFJU/KBj7o7E/yq9bPLuMbcpjAOe+e1Q24Ei7VOcDGT2x1qzGBtXkr2xitoHNNlhVMg+Q/mKmwqk5BC460QnoOCR2JqRoVKFsAHpnOa64rQ45PUgePfwRnI5qo6hA2OlXn+Ubvb1qrLyuMVLQlIybnbvWTPTj3rHvJCrFACAOVxxg1r3nQAn5hngdMVi3zbsqeMjmsJM6aauZl7NwVJ3HOCR3rBvH3DP8IzWlcPuJVCcDjP8ASsu7XBbmueU7nZCNjPmcrwFznvVdipIG7pU0rYABB9KgbJI6AfzFIbY9CMEc0MNwCnJBNRqxHHBp7lhuwD04P+NIb2KF7GGQyAowxgKepPUfyqvBbRE4KEOMMR2qxONzhYtozxxzxmqolkfUWRWBjGCc9ulbdLHP1udFZH5EBAGR0ratkHynvnrWTp53xAng9q27YIcbhzXFLVnX0G312YkCjA7/AFrmbiYX2oQ2sriNZ3Cs2eVHc/lW14jgmhsmnCEiPk49K8w8SR6jqE8f2VnQIc5U45rqw0G2YVJaWR9Raf4h0i3hjSO8hjCADBOBjH/1q2P+Eq0wQK0d1G4YA4Ug/UV8dQX3iCzfy57iVsHjdzn8a6jRfEl8gAMh3Z5BNdkq1SmtEjljgYVHuz6bi1ywu18nevO0AE4GAPX1rk9csTE5OdwPQgcGuN0bXnkCMWyetdlFdtqdk0bgF1GVbd0/yK5alb26tJao6IYf6vK8XozNs2R9KuoiMmPnr0H+TVFIAllYzqBvN2AcdQMVNpFwiTX9u3/LSMimhGFppkRBy9wzBj3Arajq4v8ArcjEO0Jr+tjYFFLRXunygmKDRig0AJW94UvNQtZrlNPtEuGkj+bccbcdDn8elYVXtHu9RtblhpvmGWRSpVF3ZH0oApzmR5pGl/1hYls+ueajxT5VdZXEgYSAncG6575ppoGa3h3RBrD3G68FskSZb1YHP6cc1kMMMQDkZ6+tavhu3064v2XU5vKhCEgbtoY+mazbgRieQQ58redmeu3PFAiPFWtLezjv4Xv0Z7YHLqvU1Vp0UnlSpJtDbGDYPQ4oAufZmv8AWDFpkTLvkLQr0wBzmk1uW+k1GRdRcNcxYjbGMcfStRr7U9d1cahptqLeW3hz8uMBec9eDnJrBubiW7nknmcvJIdzMe5pgRUlLRSASljCNIgdiqFgGI7DuaSjpzQBvyW3hs62sQuJRYeVkyDPL/l0rAlCCVxGSUDHaT1I7V09xfaV4gHmXSGwW2tSsSqQBI/oOOg44965bFACUGlxUlvby3UyQwRNLIxwqKMk0AX7m/05tDt7OGy2XgbdLOQPm69D1rKra8TalNeXENtNZJZtaJ5ZjXHXufp0rFoASilpKAENFLiigCWlBIOQSCO4pDRQBK9zPIpV5pWU9i5IqOiloAKWkpaAFooooAKWigUAFFFFABSUtFACUUUtMBKKWikAlFFFMAooooAKKKWkACnAU3pT1oAeorP8VXo03wzqd3jJjtnIGcc4wP51orXIfF+8Nr4InjXObmaOLj0zuP8A6DSHbofOywkt0yec1p21qqgE/TpTbaAORWpbQADB5P0rhq1D1aFLqWbKJVJUrV8IoUHHGMZFV4UO72A79KslRGSp+b3Brik7s9GCsivMQMKo56D3rqfCmjhE81lBduTmuVjkD3CnOVHIr0Hw5IBbqAM5qK7cYepWHSlO/Y6qyhCxqirtHete1tGcDCkj261S09cLnn1NdFpEsLfMScqTgHp061yUaSk7M6q1VwjdDRpjALujJPXGRTZYTEOV2gdz2rrrNreVAMKMEjn881R1WzT5mXnIJIznJr0J4NKN0ebDGtz5ZI53aQCx61HvJ61NcWsuAMHHcYqAReUcHtXC4tHoRkmSGVNwBI5607IZgQeM8imDaygkA47igKB8y9Qc4pphZFyAhs7gBg8ZOKuhQox0PXk9/wD9VZUMhWQfMc9z7cVro6vGpHzZ55711Ummjmqpple4GSWAJz1JqqrCRSPUgEj1q3MUJEa8kd+gFVDHswucgHnPasqi1NaWwsfQlsFgcD8/51PKqOpOAARkse4xVWM+nGSDirKuGxuxjHPpUwfQqa1uJHbqjYG3kHPH5/0qVI95UE8r0/OgDcuQxBJ3Egc/SnRxqHEmTzwOfetoo55smUeUvAVj1y1S73cAAg/Q4we9NG1vvFD/AJ4pm4Jwc8HIOeD7V0pHLJ3Fd+2V45rPlucsTjPbB71NcuI1wzHcxwMcE/8A1qy5nMY2hTx3PAqZMcIkd1OFBVsc9x/KsG/YNll6e57Veu5GkycZHoTWZdEKp46nJJrkqSOymrGbcFUBP3ffFZF0wLNk8HvmtC6+fjtxnFZU4OMZyck1gdUSpMMsG7Z6VXJwT60+fcepP4VHtyM+9XYm+oRko2SAT61M4LjhhzxUCjHqD1qUhs5TBXOCwPFKw7mVeSSWjkouVyMD1PtUEdu0MofeHmnYbmPYDn8sVa1G4VcpIdynIyOhzj9ME/lWSDNcXqmQIInDICDzkHOPft+ddMYtxOOU0pHa2K7Y0wcnGDW9YDdLj9a5vT7jy41Eh6HbXRaZN82OOOcmvNkrSPQveJu6pZRt4eueA2Yzz+FcvoOgW1/ZElE3qxPTqO1egNbLc+HnZiNrJ0HfIrmvCloYIwpO7DbTn2rr1jY5qbvd9hJPh7b6jZOywL5keBhUGSPr7VxGoeDprKUmJSCpP6V794fso5pSzbSrD7p6Z9azfFfh2OKRyoVg3IrrlBumpoyp4pKq6bPFdJimt5V3dM16T4UDyS4HzB1xt+tc3faaIbkbQM57V0nhiIrOTIowqkfT6/nXHBXqI7K8r0mZMACeIXTgZ3fj7VpzqsusRKF+W3h3H6ngf1rLhdZ/F8jKflQEnHQDFalgwuLq7uQcqZNgPqB/+uu/CRvJHl4+paDLvWkpaSvXPngo+tFGKAENa3hie9h1ZF0+OOSaRSmJPu46k/pWTViwv7jTblbm2fZKuQDjPWgB+sW91a6lOl4FE5Ys208HPPFU6mu7qa+uHuLiQySucljUNAGv4YNr/aW25sXvSykRxqAefcH2rNvIzHdTI0RhIdh5Z/g56fhT7C/n0y6S6tmCyLnGRkc1Hc3El3cSTzNukkYsx9SaAIqSlooA6291Ga70EalZzJYiJRbtChy0mcA/T2H1rkKX2ooGNoxS0UCEopaQ0DNG51prnRrfTDbxqIGLCQdT1/xrMNOpKBCVueFIokuJ759RWze1TcuVBL5BHQ9f/r1h0UASXVzLeXMlxM++SRtzMe9Q0uKDQAhFJilooASkpTScUAS0tFFABRRS4oAKBRS0AFLRT4oZJmIijdyBkhRnigBtFGMHBGDRigAoxVqz0u9v0eS1tZJUj+8yjgVV6GgAooq1p2m3OqXIt7WMu55PYKPU0AVcUYrodU8F6hplqbkPHcIgy4jzlR6+4rnqACilrd8GWlne6x5d2gkwhZEYZUn3oAwe9P8AIlxu8p8eu016DqetaL4eujbrpqGfAY+XEo4PvUMPxBsHk2S2c0UZ43cN+lMDgantLC6v2K2tvLMVGTsXOK7rXvDNnrNkL7S1iWYrvUxgBZR6fWuY0DxHN4e8+NbZJRIRkMcEEUgH2vgrWbnBMCQj1lcD9Bmtey+Hbbgby9GO6xL/AFP+FZV3431i5J2Spbqe0af1NbngS/utQN6Lq6mlK7SN7E460wJ00fwrpTFLiS3eUHnzpdxH4f8A1qmXVvC1oreX9lA77Is5/SuH11QutXoGeJm6/WqgpAWrySCW9mktkMcLOSinqBXl/wAdrlo9G0y2BIEs7uf+AqP/AIqvSV615X8emPl6IueMzk/+OUmXHdHl9mu8849K2LVFwD15x6VmWIKgeufWteFdqggZz6CvMrbntYfY0o0+XPJyOneoZOWJGRxznsKnVgsIOQTisjVb8QyGEEg4ya5qceaR11ZqEblOTUlS6wnAU9+9egeENUSRF5BxXj13clZ8g9a6Hw7rLWcqHcQPrXViKPNDQ4sLX5ZtM+grO7UoCpznrUwvvKJZT1/OuH0fxGskKnIz9a2UvxKCQ34V5fK07HrXurnQJ4lurdiFkIBGBWrp3iaZ2VVdW9c/415fq2pywZPYe9Yv/CxrfSZf30ygemea1p+1v7pjUVK3vWPoq2u7a9U7lIB6ntRJp8U3zJtGRnk/pXjGifGCwnZUW5UZGCN1d3p3jW2ulVlkUj0B610Oaek0c3spLWm9DemsfKO5cDnoP61RLEOytwP5U2fXvO6d6pz36z52kAAY4rkq8q1idlHma94mklEMoOcgdq34GEtquzOcAj2781yE90MZJz7V0Gg3S/Zl3SfKD09P/rU6EtbFYiPupkhudhZWHPQCmeZz8xOQecev/wCqpNVtGBM0Q5HJ/wAapxzEMWIJ3NTndOzFTs43RYjz9zqQePb3qTCqQvJyOlVg67gQScYyMe9OW4ClUds8YDfWkhu/QvxSBjkfMoOMjp04FTQ99xJP8OOMVQjkWPOz7vfb681OkwYBgcZ7CuiBy1EXiu0MW7AADHOaiYpEORjJyfl60wSkrnOPpVeWVihBchsYyM5/+tW9zms2R3E29SyjnHUnFYt04LMVZjk5+tWrqX92UXLgcEZrJnmYqflyR0ANYTkbwiRXEuIScsrHgAc1nzykYGCc9O/FSSyOHyQfTGeBVOb7xO41yylc6YoozsWzhj16VRuWHGM1amYjLbQOvFZ9xsLfNnJ6c81JqitOpyO2ahCng9SeKkmbzH4P3aY391QTnvVokdGm7oCecZpNgOUBAAzkk0gyBkMRzxRI3lQYZCXxuIHXjNCQmzJvka6lFqw2K2WDgDkgYwOnrn8KzNOtz9vE0h+QAELkkk4A5/StYXUZ2ySJ5m0fKHOFPTt6ViSTS6Zfo7yDy5wzoucKpzyuT/nrXZFNrlOKdlLmOsgl8yPGDyxGPwBrZ0+VwmWPzA9M+9cpp91mea2dgHVmYAHOR1GPwrXhvMXCpnCuARmvPqU7Ox6FOfNG56TqGux6ZoCROw3FcYxyfaq3hS3mSNZZYyhJ3Yzzk1lafp51zUzNMQ9va4RUPRmxya9AstMgtrNrmdo4YohljkAIK3jFzMeaNNO/U6HQoQ2SBtHQnPNVPFdwjy7DjCCsSHxfIQy2EICcgPIOT9BWZqtzeXYJkm25HPFbyrr2fJE5YYeXtfaT2MTVJElvCsYyR2HY1be5Okac8zsgdhgAn2/nzVWAwWG6WZfOxzz1J9Kw7qS98R3zJyIy3JI5A9KxhC3vdTunPm93oW/D5eT7XqMrYL5APsK6PS4jFYxAjBYbz9TzVGW2jt7GCxRVDSME68nuT+Wa2AAAAOAO1elg47s8TMql7RA0hpcUEV3nlCUUYoxQA2ilxRigBKDS0mKAEopcUUAJikpcUUDExSGnYpOlACUUUUCExRS0lACUUUUwEIpMUtFIBKKDRQAlJTqSmAhpMUtGKAJKKKWkAVu+HvC8usq1xNJ9ntEPLkct64/xrHtLZ7y6it0+9K4Qfia7jxvONM0e1022IRX4IH9xR0/PFAFmxtvCl0GsLeO2ldBjLfeb3Dd/wrlvE3h06LOssBL2kp+Rj1U/3TWLG7ROrocMpyD7136zReJvDUwEYEpTO0fwyKM8fWgDz8V6D8PbZU0ua42DdJKRu7kAf/rrz2vU/CEJg8O2gPVgX/NiaAPP/EalNdvgQB+9J4rOrc8bRGPxDOcffVWH5Y/pWTY2jX15DbJndIwX6e9MD0Xwwn2DwqkrAA7HmPv1I/TFebO5kdnPViSa9W1WNbTw/dxxjCx2zqPptxXk9ABXo+kW9v4W8Ptdzp+9ZBJJ6seyiuH0GzF/q9rAwyjPlvoOT/Kuj+IV8xNtZqfk5kYDueg/rQBr+GPEkmvrcxzwxq8ZzhehU/WuE1yyGnatc2wGFVyV/wB08j9DWr4DuDFrnl54liYfiOf6UePIhHru4D/WRKx+vI/pQBztbfgx9niG3OOoYf8AjprErX8I/wDIw2n1b/0E0AXfHy41tGxjMK/zNc1XUfEAEatCf+mI/ma5egDrfAesPDdNp0jkxSjdGD/C3f8AOq3jjShYamLiPAjugWx6MOv881i6ZI8OpWsiHDLMhH5iuy+Iir9gtCeXEpAPtjn+lAHB11/w7fF1eJ6op/I//Xrka6b4fuRrMqgjDQnP5ikBmeJIzHr16p6+YT+fNZ4rY8Zrs8RXPHUKf/HRWMKARIhry746Rbk0WQ9AZh/6BXp6mvOfjau7TNLfH3ZpB09VH+FSy1ueVWWNyq3QnH0rWiYldvPHXHGaxLSRd43KT9K1oZBjNebW3Paw70Lhm24J+lcr4mnb7YJBnBUc1v3LYjOG4HPvXK6zOsgwSflpUFaVysU7wsYF5fSb+P1q9pWrbsKxxIv61l3IVuQaqhHzuXIx3r0OVNWPJ5mnc9R0LXFUqjNjHqa7C31+OLaxJORzivC7bUpYCNzHI7jrXQ6Vr8hkQEhh79646mG1uehRxjtynR+JPEOsa1M9vYRvHCMjf3b6Vy8/hbVBG0skTMe+7rXommhr6FTbW5DHkkdM1oLoWoBw0sXyP3pRq8miRbw/tNWzxGSCe2kwyspFbmi+K9X0l1Mc0jRj+FjXqdx4SguiBLbBWPcCsPU/C1nZsEMTBv8AaGKt14zVmjOOFnB3izW0D4iyXEK72bJ6/WuntPGETYJYk15jBpSROfK5Poorc07QtRvCqxROMnAJ4zXHUoQeqPSpVp2tJHeJryXMiqGzn09K9C8NeYLVBKgRX5y3X6Vwvh3wZb6fsnupTJJ12A9/wNdzZyETRtvfYgPA5PPf61jCMYSua1ZucbI3WjypzyCcEDp0xj61lz2rRnKjjGABWtDIXUgYzjr1xUc8bHkjsc89q2nBSOaFRxZiRSkOo4Y5yF6U52V1DA5CqRyOtTXFoRKzLjnGPoKrtGANpUAdAeoH+cVgovY3c09UOX5d4LbcnoD0P+RVtZwm1ME4PUH61meYykoSpwRxjByKtxS4QZ4A/Ie1axRjNl4zqSCc44wSe9QzXKujHJA9+M1B5uI94ZlHQDOMVBLck5AAwPxyP/11o3oZcupBdO5YgbFAPTHes2VsZ+csWY5ap7mTagz1Y8gZ4rKvpXAOBnGa5ps6IIhuJdxBVd2P4s1VmnKhgCP6inMxH3mHrg1XuJf320jkjgYrFu5skV5slMEkt1IPFZ87YOChyOB9auXCN1AyB3zVWRcqWLAj0700NlI7ncZ+Yj070wzFCSecVIAQT270wMoODtyRzk9sgH+daJEN2F3sjpufJJOF9B6fnVD7VNHfmNmJBXGCeRgHp7VJdrJCVk8zdgEhcg5XP9OPesu7YpfRSFfuoRuVuTn3raELnPOdiprDPZiWVNpKlVweoBI/wpJ44tQsDDcs26H5oyOqkd/UdaW/uBJcxeZHGQwAZAOAQAOD34/nTLIWUYmkEqRh42ABO4uMkD/H8q3S0Rg37zDRrqPUL2G4LiLyiI5CDjcuMqD+ORXY4V5EmQkpjFcColtJ0ihULFclS6Y5C8n8+/5V3iErDGijhV9a5sSldNHRhJOzTOh8N6zc2JmjhtGud75DbsYHftXR+fqmsFftkrLAOVgXhB/jXP6HKLEg4yN3P412dtLb3SBTjB6HuKiLvombTvF7FjTbCGMpuPTk9TVfVyrsVQ5A9KspGxjwhLD171UvE2EOPvYwcmqastCE7yu2c7PbMW2uWC7ucHmrunwxafHhUG49f/r1Wv5yXKIMnNUmv2RREoZpnO1FHJJojfoVLzNiycahqbzYBFuNo/3j/wDWBrWqtpliLC0SIndIfmkb+8x61axXtUKfJBRZ83ia3tKjkthKSlxQRWxziYq5a6NqF9C09taySxrwWX19vWqhrrvAeqFZX06RhtbLx59e4/z70AceRSVs+KtN/s3WJlRcRS/vE/HqPzzVfQ9NOp6lFAfuD53P+yP8en40Aa8vgyOLQv7RN4RIIhKVK/L0zj1rl+ldp461BYLeDS4iBnEkgHYdh/n0rjCOKAOkvPB62uhf2l9rYuI1kKbeOe361lad4f1LVF321sxj/vt8q/metek2MUN7otrHKoeNoYyVPfAH+Fc5r/jU28jWmlhMp8pmIyAfRR0/GgDJfwLq6QvJtgYqM7FfLN9OK5+RHico6lWU4IIwRXS6V421GK8T7dMJoGYB8qAVHqMCtjxxo8d1Y/2nCF8yIDeR/Gh/woA4CkpaltbaW8uI7eFd0kjBVHvQBZ0rRL7WZGW0i3BfvOxwo/GpdW8Najo0ay3MSmM8b0bIB9/Su4ubiDwdoMcaKHdRtXtvc9TTdC1qPxNYS213Gm/bskAPXPfH+elAHmlT2un3V8JTbQvL5S7329hT9UsJNLv5rSTkxtgH1HY/lXUeAYwtnqlx3Chf0JpgcZWoPC+rvZpdpZSNG4yAPvY9cda2PBfh8XMp1S8UC3hJKBujMO/0FbEPjRbrxDHYW8ataufL8w9S3qPagDzt0aNirqVZTggjBFJXT/EGFY9bR1QL5kIJIHU5NcxQBreFbOK9122hniEsR3FlPTgE81Y8bWdpY6z5VpEsS+UrMq8DPPb6Yq18PbcyaxLN2iiP5kj/AOvWb4tuPtPiG8YHIV9g/AYoAxzSUuKKQCUc0UUAPpaSigDa8HqjeI7PfjALEZ9dpxWj8REkGqwM2dhh+U9s5Of6VzVpcvZ3UVxH9+Jgw/Cu98YWg1fQIr6ADMP73A7oRz/Q0Aee12fw9m3C6t+6lZB754NcZWpoWuNob3EkcQkklQKpJ4U5zk+tAFPUI1gvrmJPupKyj6AmvTo7ldL0nTlJ2hjFDz715blp5sscs7c+5JruvHVysGm2kKOBIsivtzyAAcGgCp8RLQrcWt4BwymNj7jkfzNV/AWnma/kvGUlIV2r7sf/AK3862vFCJqfhNbxRllWOYfjgH+Zpmm48P8AhA3PSV4zJz/ebAX+lMDV1a6jvPD1/LGSU8qVQfpkH+VeV139gx/4QFy3P7iUfq1ef0AdH4Fi3avJKVyIoWb8eB/jVfxfKZdbkU9Y0VT9cZP860/AUXzXkuD/AAJn6k1ga5L5+sXsnXMrD8Acf0oAl8MTeRr1k/rJt/Pj+tbnxEhxdWk2PvIyZ+hz/WuX0+b7PfW83QRyq35Gu0+IcQextJhn5ZCv5j/61AHC1qeF22a/ZH/bx+hrKrT8NHGvWP8A10ApAbHxC/5CVuf+mR5/GuVrrPiH/wAftp/1zP8AOuURGkdURSzMcAAZJNAGh4ds2vtatIlGQJA7ewByf5V0PxEuQz2duDkqHcjPrgD+Rq1oGnR+GNNmv70hZ3X5h/zzHZfqa4zUr+XU7yS6mPzOeAP4R2FAFaui8CEf28OcEwt/Sudrb8GuU8QW+D94Mv6GgCTxuu3xDKfVEP6Vg10Xjxca2pz1hX+ZrnKAFU1xHxij8zwkr/8APO5U59MqwrtQea5T4pQef4LvD3jeN/8Ax4D+tIpHhED7WxxWnbzBTyAfbNYsbbSGPODWhE+7k4wR3rgqo9WhLQl1CcpGSpA44xXI6jMXYgd637+XcuM5rCaAu5JqqMbak4iV9EZTRN1pYlkGRt4Ixitf7MCoURZY9Nucn2psdsRIRIhUr6jI/SulO5wyVinb6S9wwz3ruvC/gm3aVJJyGA5GCMGsiyC3aIuAg6vhAMc8Ad67SxkktYhFatKxC/KW4wcjr6VhiHK2h14VRvdnbab9k0hPLgjX5FBznGev+FaV7cmGCCWWJFaXGAW4zwcA9D+leVXPiKa11EwMu+JgiuW+8cDJP8uK1dJ8T+fq8Ntc3TtZoSWZskE54B/ADn3rkVCR2vERO9gnVmBa4DYLOJNuFRQcEE9setTRx2usgynbJCORI+AP157VyFtqwt7eUxzZS6ummIdCY1iHbI56k8Driur0fUrFy0zviONjHEsUZCFtoHB/vEnvTlRa3COIT2L9t4csmO9Yk2nG0rjp3/Cte30SFAAkQyPSowsCxCUiYbhu8tv7uTgHqMVfWVjECzIVz1ZTuGewGOlZewTN1iZIsW+ijJLjaB39a1IbZF42LgDn2qtHcbYlZPfAPb86kgvGbCv8oq40oxIlVlI04VAJIY4ORSsCy5Qge3qKqpdxlgxJAz61Orrx7nAq7dDK7WrIXg+6Rjae9V57Mxq4IHI49qvrERn5uAO386bPg5HOOoOanlK5zBmtyPmZVOD1wc81X3bGAba7enr7EVryAspYfN2z7f4VizqiuFAwQMdelQ9DSLuPklfCgkbRxjt9KglmAGC+OOdoPX/Cq9wzxgBcjPBAJIFVvOaMsdoH+2T1rKUjRRH3BAPzrjaOx5NZ9y6rktyc9B9akkk+Us5J59KozSnKgDOTyx/SsG7s1QxmQv8APzkZwB1qozDLszfKDx2Ip9xIUbDKu3vjrUTqFw5YZxkjtmpsWiGWTawXOU4qtM3VhjYMfnTnffyF3Lj+7+tUL+7S2VXeRdu/BHTGcjk1pGFyJz5UNZiZDuYBAdpz16Z4FV7mfJlKbQu4YC+lM1CbYYkjO1nTJYD7pPr/AC/CscXzNCVcbZV3PsU9QBwR+VdMKdzlnVszTllEr2o5VmHOOw29azdSmeKOIkqqo2SSOCwJ4/PgVct03XW7hDLGPvnhMAjv25/SsvVcxRBiwaN8GTPP4+tXBWkTN+6Jc2q+WVkVxMW37wepPQVWFobdWldN0WAqHOQuMg5H41cmnuWha4cLh8MFiw+0YGB+RNV7y4jisPKyU2tlySCRk/1q1e9iHy25hunk4jBw8iuYwuOQeK7K0XYnLFz1ye9cZplx9onjEgA3OZVw3IwO/vgCuujmaNdxJAAxz1rDEp3SZvhWrNo37OUTxMivzn16Vq2sV0u2WOR2HoDXmPhXX5bu+n8x1H7wgDPQZr0mz1cRoCSPesJ0uR2Z0xq86vE6C01yRF8s8HPr1qK7vXkYnP3u9ZkksMmJY9iZyfrVKe/KFsyYUck5xRvoO3VGlLNHbhnfqBV7RNGW2b7dcAtcyLwD/wAsx6fWsjw7azazP9rlU/Yom+Td1kYd/oK7CvUwdDlXPI8XMMTd+zi/UKXNFAUsQqgknsO9d55QlBrRh8PalOu5IB7BnUE/hmqdzazWkpiuInikH8LDBoAiq3o90bLVLacH7sgz9DwaqUUAdz4/tVksLe6C5aOTbn2I/wAQKZ4KsVs7GXUJhjzATk/wov8Aic/lV+4hbxB4VRYzmR41I/3gap+JZl0jw+lnCwBl2wr67AOf8+9AHHanetqN/PdMf9Y5I9h2H5VVpaSgD0OCWSTwigjLB2tDgg9AoOa875Nei+Hv3vhSMHH+qlX9TXnVABXpVuftHg39/wB7Q5J9lOP6V51a2st7cR28KlnkbAAr0HxPNFpfhp7ZGALKsCDuemf0oA83rqvAemGa8k1Bx8kA2p7sf/rfzrlq9HtgvhnwoJCAJFj3n3dun9PyoA5fxvqf23Vfs6NlLYbDjoWPX/D8Kb4LlZNSkCnGY935Ef0zWfaaRqGqv5kULsGbmRuAT9T1rsNB8OQaBm8vrpFlZCvzEKqg/XrTAw/H6BdcVgMF4FJ9zkitb4ewiTTb4P8AckcKf++f/r1i+NNRtNS1ON7R/MWOIIzjoTknj866bwPF5Hh1pf8Ano7v+XH9KAKXjXU10yyh0ezAjV1+fb/Cg6D8a5HRrmKy1W1uZiRHHIGbHPFSa5fnUdUuLgngttX6DgVn0AdF411qz1e6txZuZEhQgvgjJJ6c/Subp2KQ0Ad38O7cRWF5eNwGfbn2UZ/rXETu97dySKrM8rlgAMkkmvQ/CdnJ/wAImUiIEk4kILdATx/SqqW+j+CIPNlb7TfkcDjd+A/hHvQBm6J4ElnAuNVY20IGfLBwx+p7Vj+JrHT9P1AQ6bP50WwFvm3bW9M0mseI7/WnPnybIu0ScKP8ayqAEopaT86AH0opKWkAV3PgbVkntJNKuCDtB2g91PUf59a4ap7O6lsbqK5hOHjbcPf2oAueINHk0XUXt2BMZ+aJv7y1m16NqFvbeMdDWe3A+0RgtH6hu6n64rzplZGKsCGU4IPY0AWNNj8zUbVMZ3SoMfiK674jnEdio7lz+WP8a5fQV361YjH/AC2X+ddB8RpM3dnHn7sbMR9T/wDWoA2PDCJqnhMWsh4IeEkduaqePJ1g0q3tU+UPJ0/2VH/6qZ8OrsGG7tCeVIkX8eD/ACFUviFPnULW37Rw7j9ST/hTA0rP5fh85z/yxk/9CNcFXfBvL+HvHeAj82rgaAO58AoBp9w/rcAfkv8A9euLuHMtxLIerOT+tdx4DjJ0iQ883B/9BFY1r4G1Of5rhobVf9ptx/IUAc4CQRXf+M8y+HLZtu5iyHI/3TVaPwtoWlr5mpXjSn0J2KfwHP610GravBo+mLctC0kZwqKPccUAeU1o+HgTrljgZPmrVKeUzzSSlVXexbaOgzVvQrlrTWLSVTjEqqfoTg/oaQHdeIfDp1y8gleYxxRKQ2Bz19TUelP4c0q6FrbzQC4b5d+SxJ9N3T8qo/EGadFtRHNIsT7gyqSATx1rie9MDtfH1ld7IbhJGa0U7TGBwjev41xVej6DdJ4i8OvbXJ3SKphkz+h/l+VedzRmGV4mHzIxU/UUgGVs+EFLeIbXHYsf/HTWPW14NP8AxUNtzj73/oJoAsePW3a4B6Qr/M1zea6Tx6uNcBx1hX+Zrm6AEPWsTxtB9p8JarHjP7gt/wB88/0razVTWIxPo99ExOHt5F/NTQM+XtzIzA881ZhkOBj6VUm+WZvY1atl31y1IndSkLKhc+tQmBU5PGauSPHAf3gJHoDg5/I1k3Vz59yVBKhFJ255PriiMGx1JpCzyoArRqznOB6f/rpyTtbiMnLNKArSMoKDnnHGemOnr+FQwJaOFhkiuV3EtHtfcpyvQnAwenOKvadp19Owe2tMurY3jp0x0PsBzWzaitTlSlN6FvSovtl4kdovlCNQWBPJ5wSNwHHOee1bQvZLCG4LyQyyuSBKD1YjqOmPas2y0O6t2kkvEl2sDglurY7n05pL0gQlI3A/d7h1IZ89OnXFZT5ZHRBSic7NqrmZpi4D794QjO1s9vyFW7OU3MnmqZLdshlJJLu/Yj060W3hTUbwCZbN1J5z1Bz7V1+k+AdY1PYt3+7gDDkKAdv8x0FN1qcepKw9WfQp6HpJ1C+e1uJJ5bWM8xwtlpjxnBPQADk57d69Eu9btPCktlp8cAmAOAN4dYztxzwOCT39zWfY+GZbKyuLVoWihJIRUTdIW2nA3ZGBnqKxNU0TUI2lnlLs0sywpCr7zt4BLen14xSU4zLdOdPodla+PbiK8hszGZ5BIAznCIuAMID35+vSupt9etb24SIXHmzSYLRRyFsHbyC3qMjj3rxJ5L6LUDFFHs8tgqCJsIQ3BJPXOMDg10nhyw1Kzv0g+0Jau4BZ1C/6vDZYEDj/AOv1olSj0CFWSep7HHfPcIy+UqjcEyGwOe2atRPIIkJVsAYBHUAcZ59a4+81dbFrWO2mUxttkZyQFiQDAI9yfxqwnjGNE8hZ1VjEpQE5CkrwT7Z71g6bOhVUdPHd5kVeQ7NgA9RzxkfjVyC9RpmXJaNSVJzkA965G38UxIkUby+ZMxVY32/w5ALHv0IqVNZd0ikjMcYkHmZblQuTnp1OP5UuWxXPc7+GdHjLoVfAxlR+dR3ThQQBkkjjHSuVsNRTaZrZwGmJUAuSDjAz2/u1oyaz5pyBJ1+bOB+PHbv61MnoVBNMdcTtudRwRWXcOQSRjkZ4OOaZc3e4rzj3z198fiKreaGByxwOPf61yOWp2xjoRPcAErtbn3qHzJC5J+UY6HtS3BQnGCOMHFQsvygbskcbfT3rFs0siKe4kJIxwaqOzL90EnqeehqxNvA/eDcAevYVAYxk9S3dgOOB6VAyteKpXgh2IGfT9KgkG1M5+deueh/+tVq4VEdTxt9+P8iq928SRNBuKyupIPXA+vb/AOvVRjcTkjJeZrhlaF1OOTkgjj0/lj6ViXMwn0iedlUzbyGUj0x2/WppGSHVPJEpXGVKHoGIJz/n1qjqI+12twTMRNIM5Kj95zkD689a7IRSsck5N3Kw1D7beFZ45fLWFN+BwBjJz9eP8mo4EkjTdEqbpBIN5zxjgD8cVZs4s6TEHiEcqNhy4++Mj/A802K5F2URcZOEPsw/pzWrl2MlHuTaZeeZYwN8pdAArydMkAc/n3qo7PeGSNwzQsxVWHYHqPeoDAkKrEfLbzA5yARypHB/LFQm9NjbMN7Rsq7ShX72e/PA9Pxo5Ve6BydrMbayPZn7DNMDAhYqRyc//X4qtrTxS20ESgI4G/kElu2Pwx1/wpylZmDS4HmkPu2ngDvxVbVUP2hGhlcxDGwZOFbpwa0SXMrmUm+V2F0+MfaEdDiJMNhBkkk8k/gK6q6vBFptw6ux2Ix3evFcrp83kN8xyE24VACec9fz61s60xXSJ4VXA2Y/OpqR5pq5VKXLBtHE6Zq8mmXnmKeCfmr0HT/FyzQrh8nj3xXlr583FehfB6OM+LrZZAMMjjB7nbXTOhGpuc1PFTpLTY6y18SeaFSFXlkbhQi5P0AFdPonhW/1VhPqytb22c+SeJJPr/dH612cNpbxHMcESHuVUCrIHFTTwkIu7HVzGpNWWg2KJIIkijQIiAKqgcAelPpKUCus84ciM7KiglmOAPeuysdIsvDNn/aOokSTfwJjvjoBVPwXo4uJ2v5l/dxcJnu3r+FUPE+snVtQIRj9nhJWMevq340AXIPGF7c6lEJBGlq0gVogo6E469c1b8b2o+zW855eOQxE+oIyM1y1mM3kAHeRf512Pjggacq/3p1I/wC+TQBw9FLSUAd74GuvO0p4T1hcgfQ8/wCNc/4yvTc6r9mX/V2q7B9epP8An0rqvC1gNP0mHeNrsPNk+p6fpXLeNbX7PrbyAYWZA4+vQ/yoA5+ilpKAPQvBEgk0Ly2GQkjL+B5/rVO48NeHZ2MkN2VBP3IplOPwNP8AADg2FwmM4mB/Mf8A1q47UE8u/uU6bZXH6mgDtIJdD8MxSSQMvmkdWcNIfYAdP0rktb1qfWrgSS/KiZCID0/+vWfRQBseH/DV5q00c2zy7VWBaRuNwB6D1r0DVNQ0+whBv5I1XOVVhkk+wrH8E6pc31nJDMqCO2CohUYJ+tcz4yvjea3KucpAPLUfz/WgC7qnjmeVyunRiFOgkcAsR9Ogrmrq7uL2Qy3Mzyv6sc1FRQAlekaU62XglZDwBbu31JzXm5r0DWG+x+CIYs8vHGn54NMDz6ilpKAHRRSTyrFEjPI5AVVGSTXW6d4Lt7SH7ZrtwsSDkxBsY+p/oK5W1upbK4juIH2SxnKt6Gr7anfeINStIrycuGlVAoGFGT6CgDuPEN//AGJ4eD6eFh+6kQA+6D/9avM5pZJ5GlldndjksxyTXb/Ee42wWVqp4LM5H0GB/OuFoAKQ0tJQAlJzSmigB1LSUUgCloooA6DwfrZ0u/EMjfuJyFP+y3Y1b8daOLa6TUYEAin4fHZ/X8a5UEg5BwR3r0bS7lPFPhuS2lwZthRiR/GOh/kaAOM8M/8AIfsP+uorY+If/IVt/wDrj/U1keHEaLxFZIw2sswBHoa1fiH/AMhaDP8AzxH8zQBjaLrU+h3RuIERyylGV+4qPVNTn1e8a6uCu8gABeigdhVOigDvZ+Ph+vOP3K/+hVwdd3eER/D+IEdYk/Vq4SgD0LwG6pochx/y3bP/AHyK5O88UapeFv8ASTCjfww/KP8AGul8DH/iTyAdp3z/AN8CuEpgOZ2c7nYsx7k5Nd34ukVfC1ohzuby/wD0GuEUbmA9Tiu38fN5el2EAHG7P5L/APXoA4ftUtuds8ZHUMD+tRU+I4kQ+4pAdt8Qsmysyf8Anof5Vw9d34/BbTLRv+mn/stcJQB1vw8udt7dWxPEkYcD3B/+vWV4utvsuv3QAwHIkH4j/HNHhKf7Pr9qc4DkofxFaXj+ELqNvMB/rIsH6g//AF6AOWrW8Kvs8QWfu5H6GsmtHw2wXXrEn/nqBQBrfEAf8TWA4xmEfzNcsa6z4hIRqFs2OsRH5H/69coaAGU1xlGHHQ9elPprAlSAcH19KAPlrWrc2up3MLEZjlZDjpwSKaJhBbgk7S3ANXvFaH+3b9mzk3Ehyw65YnNc3qN5tIhXA6AnPbvUON2bKVkWJNUe9lZCzsgGFB7kDg/pVJCWmkzGrYGCoHzc9hReahGrfZ02mEMyhl5JHbn2xn8TVvT1W3iE8gXeRgAenr9aJPlQopydjT021t4WD3LswGSqjsO2a7LR/ENhDH5axqMdNvFedSTtI2QcHtT4biRGIQ8+lctSn7Tdno4eqqeiR7Bp97Zag3lPsJPOD3Nar6PpQi3NDDHkYztGa8Xsdantplbccg8Edq7ay8U/aoVVmBDdQfX1rinhpJ3T0PTpVqc0dbb6hZWiiOCNC20qu4d+elWf+E2e1TdbonytkjA6enrxXDSTefukyeGAPGOM+netHT53b5ZDKyk5K4JGPUVPsXHU39pB6WO1sviOixhZrOJtxHQEE9KvC68M+I4mgMQhYKWAPQe49/8ACuCmSIMC8WBJ39c+lV7m2wqtBNhc8kn7voDVpyRjOFN+R6FbeArK3xJpJaZwxJJKsQpz+v6Cs3UfD/8AZEU4WOSS6vdyliuVXjknHp74ri7fX9V0ST5Z2wp6KevpXYaL8S47uHyNQCuzcFnAzWiqtbmEsKn8LucRqF5fJazSRRzTQwyorb3JIQjaR0744NXdV1WWHRDcu0axzjYwxlhggjJ6/oOtegtZeGtbhkMbQwu7Bjt427QAv8u1YWr+DFeJ/KkxFKys6oTzgY6HHUD9a2jiIs4p4WUTiI/GbKVu3ZmlaEI+0YDY4x+vb0rom16W306xjuGY28SLvydpG4g54JyCD0rz2Oy8rW5LCQyC1iYsCVyRz09uprVm1iKW2dJJEChwSoUhmAGRjqBjH5+1btJ7HMm1ud/pesmz+yQwEGCVfNEmemC3ynAHt9a6k6jbxxyq7MjLyignIwDgj8OD9K8cg1sW2hxSoJYpFZdsbfMpGTk+g7ZFdlHqyO3m3E8IjliBKMxCxuQ24YA6ZIrmnA6qczqftzy53PhI85brg+/p9altZ5JoVDkkkffrm7HWYtsh8wJNuG9WOSx2jd+GMY+nvWrZXbeaglYGNgfKcgAn14rkqxsd1Gd0am3JIfGSeuOlRylYgTuP09KBIGVRuXLdAOeO1V7mRmzJGmSDyM8kVhY2bEeUOjNy4XnHc1VW4EtysasSQMkeuRTUvWEO62VPMzkgkZAHJ4rIfUUlvUZ2dQ8Q+fBGCRkdfcVSpkOZb1SfGnykKW3AgEclh9P8965p9Tmt5ZTcqWWNArN6kFcE9x0wTVi4uzJaTWqzHzWbegxyvIyc5rCuL9zcRxRyRySEbcA4wR1zzz3+ueK6acOhzVZ9SSeZW1lEkXZn5lXOSFPzf1q3qlsqXunSQ7GMRH8fDZ4yT6iqWoJcRSy3MVmzQCH7MGICumBjf9OvT3qrbxzTWMiGWQENhDjLYxjb9MY5FaNdUZp62ZNqVzPJJJCkZaVJDE2wkEAjOQO+asaXAkd0sZjUEbmjfbjB4z9eDxTrKBlmVym8EbpDFncjAf5/OpJ5UdERXeORTlGYgbs9h+XP0rKUr+6jaMbe8zO1SbySfKlXDOXbKAbTyefzrO1YvJNJbyDLSpklj9z5h0/yaW9uo7t5Ar+W7DbuJ3Fzz1H4D6ZqjM95NhBtKW4Lb2ABIPqR35+nSuinC1jnqzvcsRWkpKyBWMQDBXAI+bjp+may7u4MLvEJJFidzw3JXnjntxVzQ7oxXM0Od6ou5Q3qcf8A1qo6uwMu4S+UrnIBGVB4/KtEveszGTvC63LmjzM14+9gyHhflA/zzmtnVD5unSnGAwHFc/pbiHyy2MsM4I4BzXSNEZoTGMHLdqmekrl09Y2OGksSH6d67X4VgQeLrFiwX7wGe52nis27sMEkA1tfDiA/8JdYADI3tngdNpralO7OetT5Ys+gE5Ap4pFXFOxXScIU5FLMFUZJ4A9aTFdD4T0aC+uEuZrqNTFICsGfmcjn8qAN3UW/sDwssCfLK6iMYPO49T/OuXsPDV9e7WZRAjdDIDk/Retdn4h1u30YQGS28+VsmPphcY7/AI1x2oeKdSvmbE3kI38MXH5nrTA110zRdDKm7nBnHzZc7mz7KOB+NUvE3iGz1a2it7aKQFH3F3wM8VzxJJJJyT600jmgBa0dA08alqkMLDManfJ/uis4dK7fwpZxadpD31xgGbLk+ka0gJtZ1sWmr6fZI2B5gaYjjg8Afrn8qqePrbdBaXI/hZo2P15H8jXK317JfX0t25w8jbvp6V3OpINc8Ml0HzmJZlz6r1/rTA89pCKWikB2Pw+b93fL6GM/zrmtdTZrV8v/AE3f+ddF4A5+3pnqEP8A6FWF4kAGu3uP+ehNAGZSUtJ3oA9C8CwiDRGmIwZJGbPsOP6GuDv5jc3s8x/jct+Zr0Dw6dnhJSOojkP6mvOG6nmgBKSloNACEV3/AI5XZ4etkB4EqD/x01wI5YfWu7+ID40u1TsZM/kv/wBemBwVJS0lACVreFIPtHiCzU9A5f8AIE1lV0HgVQ3iCMntG5/SgCz8RJw+qQQg/wCrhyfqSf8ACuTrf8bMW8RXGeyqP0rBxQAlBpTSGgBKSlpM0AOopBS0gClpKKAFrqvAGoeRqEtox+WVdw+o/wDrfyrla0/DMvk69ZNngybT9CCP60AbV7afYfHsGMBZpklH/Auv65pnxDyNWgJ7w8fmau+L/wDR/EWk3PQ/KD+D/wD16j+IkB8y0nI/vJn8j/jQBxtGaKSgDvNZ/d+BLZfVIq4Wu78RfN4JtSvQLCf0rg6YHd+AsNpky+k5/wDQRXDEYJFdz8PcNp90vAImz/46K4ZhhiPQ0gHRNtlQ+jA13HxB+bTrJ/8ApocfitcPbxmaeOJfvOwUfia7H4hSbIrG29MsfwAFAHGUoOCDSUoPNAHfeOPn0C2fH/LRT/46a4GvQPGo3+G4XA4Dof0rz+gC3pMnlapZyf3ZkP8A48K6j4iLxYt2zIP5Vx8L7JUf+6wP612/j1DLplpPjAWT+Y/+tQBwtXdEbbrNiT2nj/8AQhVKrGnf8hC1+bb++Tn0+YUAdX8RYjusZe3zr/KuMNeg+P4o20mORnAdJRtX1yOa8+oASopiyxOUIDAZBIyKkqvfyxw2czysyoEIJUZIzxxQB8yeIb0XGratNkEfapCOAowTxxXH3Mm9i6qT3Oe/vW/rs2/V9YUkHdK/Tvz2rnCXy65JA+9zQO+hJConuAB90kY9hWlJJyRk8VnWeEdTmrEj8nmokrmsNCZWyRzzTxOyNnnP1qsswCHcpJ7GoWvSvbIqeU0T6miJN7ck88Vr6W2zrJhD0Poa5iPUiw4j6eprZszNNEGVVAYZ4FTKLOinOK6nVR3v2SRklG5ZUwH3E4P+RTP7XkjR9m77mchj/k9KxBFcAbdxOeAKg+z6o5ddzCPoMkDNR7K50fWEjr7bXGmX5icccNhgPoKadUaO5D5K/N/d4/I1yS2+qx7VjV5B/sKTUxsfEcigw2FwwHrEaXski/auWyf3Hdw3Fvfwn5AkoHO58qT6gdvpWbepHEzFeCBnK9FzWFaWnieMgvpM4/2hV2S21dV3z6beLgcnYen4VDpo0XOldong1u5sZNvmHaO+a6O08e3SpgzE5681w8rXDghrWccZyYj0qoUu8bkt58dfuGolhoy1D6zOOj1O3u9Wsr4gskMWxvMY8Zc9MHua5SYv9rN1HEpDOPlbow6YP1xWZdDUkIAtZwx6BkIzWxoslzER9qt3ifGASM4NXGLp9Tlm1UdrEEkjXFrHBFgKGLlc+gyc/TrXSJc+fpUexpChCuyOBt3Dpz1xVbUfD0CWj3MZKqXxkk5T8P8AIqOztza6a0hCPAxKHLY8tzgZPsenNU5KS0MlBxepe0rVJhqokmkkhlZc7mboBxjGOSK7nRtVkvTJK20JF8jbs5zj73415faW80+lGWOSOOSGbYO5VcjGT6fhXeaNIm6FHjQ9WMiYKvz27jGOM+9ZV4Jo6MPNpnVxXcUjQsxkAUbgVHykenFQpeW7vGEmARmDDIKkZPJI7AisXVb1zb/6O5RhhfNIUqcjjnPHvWXcXxjtJJFkWeJkVfJC4J9T2xjn865o09DqlU1NjUruIag0m5EWEsJNg/gwoxjt1z+FY+ozGJkntZWe0dvLcEDcnccnp0rK06Rn8mVn+WfIYsckqcgHn0xVk6osV09ojeYjIJAQNgRx2JJ7c/pWyjbY53O+4/zhBFDO1vvVJQu0YJK7sjPrkYHerGpmLUbiG6mhVGDhsg7CwyPzOD0+hqrqWoJc2mnhpEmWVQJFR8HOcbc468fhVJb63Fw4myjhfOKKOCAQDx64zj8KaTvcltWsXrYx6tvWVjDdM3zyN8vyc49s4wMViLcSW91JEzPKbMk8gBT0P1z1/SprfzZLi6VGQPbBJBjneRxtx3HzHP0qmrlzdTTlAzZYlTknceAB6Y6//qoitX2CTul3OgttSitbq5lmmfYVUqozjbk9fyFZGuyIzR3MDMJcsxEZGCOgJH40y6kiv5vISdXCgQZ2HI6fNu/MUzT40tj9kkwyKSu88hwcnr04/nUKFnzGjnzLkMo6VJ9qXllUDLMe7t/LvxRqayR3ao0hI2fMRgFuCCPzx0q/pV+Ule3RhIzkbNzYI6nH5CnX+nvNIlwrBJZmJw2AFH+Qa152pamXs04e6ZrW8Wk2kglk824nZTvGcKvTB7E5OfwFZ00TPcJby7ySQwD/ACcfyA4NaGorb3KiFSUdFAZh0z7DFU7ex/dhiWyp53HoB2HpW8ZLdnNOD2Rfs4djIpLOARjdzn/61dVpcIkXpj2xzXP2YVnBDAAHkYrs/D1v8hYg8fpXNWlaJ14eN5GXqdiApIGOORT/AAHFt8YacMcb26n/AGTWnqkG4HgVW8FxiPxjYfKWAc9v9k0YWV2gxkbRZ7cKWkpa9M8QUVb0m7FhqVtcsMrG4LfTvVTpS0wO48ZWD3thHcwjf5OX47oep/DiuHrpdD8Wizt0tL6N5I04SReWUehHerUuv6GjedHCrS+q2yq35mgDknikix5kbpnkbgRmmEVq61r0useWhjWKKLJVc5OfUmsugCxpli2o38Fquf3jYJHYdz+Vdb4xuksdOSyi4MoCADtGv/18VgeGtVttHvXnuYnfcm1WXqtQa3qn9rXxuAGVAoRAx5AFAGdXc+B7rz9Olt35+zvkD/Zbt/OuHq/o+s3GiztLAEbeNrI3Q0AR6xaGx1O5t8YCyHb/ALp5H6VSqzf302o3cl1OQZHPOOgHpVY0gOs+H5zPernqi/zNZHikBddusdCQf/HRWn8P3xqFyv8AeiB/I/8A16o+Mk2a7LxjKqf0oAxKbSmigD0XwmVuvDKRcdHjP5n/ABrzqRdjspBGDiuw8A6miNNp0hwXPmR+/HIrP8W6BLYX73MEbNbzHcNo+6x6igDnQpYgKCSeAB3qe90+609lW6geIuNy7u4rf8KeHZri6W8uonjhiO5d4xuP+FV/GGtpq16sMIHk2+VDf3j3P04oAwohulQerD+ddp8RGxBZJ7uf5Vxtrj7VDnpvX+ddr8RFH2S0fuHI/T/61AHCUUtJQAhroPArbfEEYP8AFG4/T/61YFXNFujZ6taT7ioWVcn2Jwf0pgaPjiJovEErEcOisPfjH9KwK7n4h2BeG3vlH3CY2I9DyP1z+dcNyTgcmgB9vbTXcywwRtJIxwFUcmmzQyQStFKjJIpwysMEV2Om2kPhnTXvbof6QQNw75PSMfzNchc3El3cS3Epy8jFifrQBCaT8KdSc+1ACV2dppNnN4IknWBGuCGfzMfMCD6/QVxma73wHcx3Wk3VhIQdjfdP91h/+ukBwdLVjUbGXTb6a1lUho2I57jsar0AFaXh2Fp9cskXOfNDHHoOT/Ks2uv8CaYqmbVZyFRAUQtx2+Zs+woAT4hXA+32aL96OLf+Z/8ArVoeMl+2eHorpRnDRvn2Ix/WuS1/Uxq2qz3SjEZO1B/sjgV10bnUfAT/AC5aOEj/AL4P+AoA4GiiigDvtQw/gGI9SIY//QhXBV30UsEngILNNGg8hlGTyWBOB+lcDQB23w8bMV0pPAkU/oa465XZcyr6Ow/Wui8GarY6Ul495MEJ2FVwSWxnpXO3cq3F1NMqlVd2YA9gTmgCXSjjU7Q+k6df94V0/wARXia6tFV1Miq25QeQMjGf1rjqUsWOWJJPcmgBaKSigDo9W8WDUNHi02K2MYCIruzZ+7jp+Vc7miimAo4rS1TxBfavHHFcsgjj6KgwM+prMpaQBS5pKKAJJp5bhg0sjyEDALNnAqI0tIaEAlRXKJJEfMOFX5s+mOc1LUN2HNtLsUs20kL6n0pgfJ/iWcf8JbqnlElJLuVhu4JBYkH24PSsDywZmUMP5V2nxS09tP8AGdxOCsiXOJlYAAc9sDoRnFceYikmMDJ6kdqTGhroEwF6461FJNKrYKk/Srzx5UHg/StCw02OdVZlOSPSo5jVRvoilpul3l/gqhVM4yRW/p/gKTUJBE0pBxktjgV1GlRQQoiLGBxn8a6y0sIplha3YKSMsOnzdvqMVhKtY9GhhU7cxzuh/A+3ukVp5HbnnnAArp7b4P6ZbNtjkeOMHGdxOT7Cungjms9MYeaWZmUegxV+MGNIo9x3mKWQ57npWDqt9T1oUaUdoowdP+FWgQxG4kkmcKcZZyOa6C08H+FdMMDC3hZmyem7P1NTSiNtMgRTtLSsevHGB/jViMQLZKNuSCBnPIGDn9cVPtG92aRhGOsY/gXYX0q3JAtFRAM7tmAfpT8xXnFrZRhehZhxTrOKPUXVJAT8u4KgJO3A6dgMg10MiWFnZPbJGYmyq7nUglj0qrNq9zOVaz5banLf8Ixey3Ajmt4gg5D54wavR6JaNHNDdxxMYRnIPJFac13EXtpAQpmVlYg7QuOeufqPxqpJMyw+bCXd1ifIxnJPfJ9wTRotjKU5yWpgpoenREEwJkEEKcf6tgfr0xmsa4tmhjWz0+whcEMgkSPlQcgg/UHvXeG0iR3muZNqqq7lzg5BI/l296zbnxBp+m2xitY13N8oLYBzk9/xrOXu7uwKfNtG5y0Xw78xReavOQxUbVz/ADPYY/lRdWlkLB7C1jIjQ71IPJYc/lxWjLqt1fbj8zHadpzwc/jzUR8t7ZDGGDE/KVBAAAxn0PU/nWXtEvhE4N/EeZ67ZusTzhXjRZSysep75zjjvXG6lLLaRuJGYLMTtiB4DbvQ+or1rxFaGSOC1MO9Zzl+MMehJJ/SuB8S2FzYxXkpiEnmHAWR8mIA54zzW1Geupy16el0YmhaVPNFstpBNb3LqkhkcKeOSBn0/qK17ixuNIaKW73pauxjMS/ecHIYj6/X8KoaLqENhbRfNPHJBICGVFY4Yj7ynr09a1tSR5EkQ6rHMsjK3HUuy9AM4HJ2n0K1vK5zwskat7f2h0sQrJHHcSqFLbuHAGANuOSSKraak15ZXkGoLKiRRbgG6kMPf/PNZOux2TKq2xlgS1I/eI2/LdwOxx+FZQvL2086HUGmIkIMhU4YNn+WPSs1TvHRmjq2lqjZtj5S+WMsIeiupO36fp+dU7lre7vZhIxiLFXBz95s4xx2wKqLdynUZVjkbZIQr7ACOSSPr3x/9atTVPKlsFYxIJ2YB32HgHgED8M09mid0ygbqytdIK28eZkkdsucrnOQAP5nvx6VTt2lkVZXDSHK+XkZwQc7R34zVqHRYpWjzdSNK+WQ+WCnQ+vBPJ96nMFhHGFLsjQ5JCnG7GcHHvxTlNWFGDFvUmCo6ErEGXO84JBGWH1xVOW5it3vp1VHaMhVjYFdynI3EdPSof8Aj5IElzcJcKVLRy9ST1OD6Zx+FN1OKJkNzFNHLKjhSQeg6HNLls7MTlfVFqCKKe1iuRmMupUYcEMc/wA+vWpXe5mMCg5VRnYygAbeOcVVWMLZypEreV/CFbOCe+O3b6VLC4063DtHI0ZBeOTBGTjkk1L6o2VtGasv2CGBJLdYy7KEZU9uDn6UmpeTFDHGjpJIqA7c5PI+9/OufvL0W93FIqusnl5YA5D565/Ol1PVFfyUiJLgBdo6oBgflx3rJUm2jR1kk0UbyUNcOjuVO7K7O3Hv/KpSy3BQHHckKRnI/nWbcB5brfIUZdwI+XBzx6VcCp5+BGCcBSRxiuzl2ODmbua1hGrqpXpgY3DmvQNGUxWicH5uT6Vw+kWu3ZGucevpXodnDthCp0HAz1rixT6HoYOPUp6kPlJGCAMVV8IQq3i7TyVLAOx4/wB01d1E/KRx9cYqPwUjf8JbaYHQP2/2TTwnxInHfAz10CnYoFLXsHgiUUtJQAUUUUAFFFFABRRmkoAKKKSgApKWkpAaGhaw2iX32kReapUoVzjj/IpNc1ZtavvtLRLEAoQKDngf/rrPooASilpKAHRSSQSrLE5R1OVZTyDXVWPxAnijVLu1EzDq6NtJ/CuTpKAOh1rxpd6nE0EEYtoW4bByzD0zXOU6koAfbj9/HkgDeOT25rsfiFcI0FnErqxLM2Ac8Yri6QknkkmgBCKKKKYCYooNBoA7jQtesdV0pdM1OREkVfL/AHhwsq9ufXikh0nQdIm+1GdQ68r5sysEPqAOSa4fFJQBq+IdaOr3CrGCttFkRqerHux9zWTS0lACGkpaM0AMxV/RtVl0e+S6j+YDh0/vL6VQpRSA9G1bR7PxVZxXlvOFkx8kuM8f3Wrjrjwzq1vKYzZySejRjcp/EVUsNSu9NlElrM0Z7gHg/Ud66H/hPZyFP2CAuBgnccE/SgCLSvBd1cfvr8/Z4V5ZcjcR9eg/zxUmveIbZLT+zNLG2LGxmXgBfQeue5rL1LxNqeqR+VNPtiJ/1cY2g/X1rLoAK6ew8Q2tn4Sn08szXUhdAm04Abvn865migAooooAXJxjJwO1FJS0AFFFFABSikpRQAUUUUALRRRQAUtJSimAUUUd6QBRRV+w0DUdTiaa1tmkReNxIAJ9BnrQBnGkPFXdT0q60idYbtAjsocYORiqJpgfPfx2ONftdsMcZSMsGQY3KTkZHqDnnuCK86DJJMuWZ+OeMEYFet/HjTZgUu+CGYKq+WflQDru6de3/wBavGS7biwXahONwFJgmaI2SKCu7qc1raRcKDs6Dtmsi25jwTzinxzNbvuUcVna5upWaZ3FvcbWyDjK/lXV6Dqyg+XLHhlXqvHavM7HXwjqZSGA4Nbtnr9sFUhgCBjI61zVKbZ62FxCR67DexuiIXLJtzgnBH+cVLNqKyMMu7YhIw4y3Lev415qvi1Au4uM4xx34p48WRu3+tyCOlcvs2ep7eDPRn1JWMa/MqKu4E56lc9Pek/tErA/7w4wCOORnHYGuDj8WhASJkztK4x2wakXxPG7b/NBORnnrUSps3p14npukazJGiGMoCDggY5GOfoK2ptRa48yRoiqZBROdzHIG7kAY615KnimFF+8qjOeOATRcfEWK1jMcUvbGAc5+tCcrWSJqezvz3PXpby3jgDeY4K5X5iRhTnr+fU/pWVqPj63smkSAbsA7ea8em8Y316P3cjBCcAsaS2F1dsd7eaSecHt/kUP2nocrqUb9zu7zxvd6i/zPkk8qOn4/wCNPtUa7O75WkxkBjx9TXP6fbgQJJtLE8DbkZH+TXUWEKwkb8hwP4x1GeP0Nc097s1UrrQ1ExC0cbzbsjbnaOgycfzqWCIQIq2+WyBwSMAe1Z0LshZmeJQrZUDJ9Pep1voZA+Ao2DG7JBJqOe4OBc1BIvLHmoQyDJYdfXGa8514272M8xjE0ts+6SDO84JJ+Yj8K1NT16O4Y27jy5S2QYj39j7jH51xt5LcS6ldGeKZIZ41JWI4Lbf4iP6fSuzDxd7s4cRJWsjmtRvR9pa4tUEZCjPmkMM46Ajrk45qbT9QfT/sczJM4t32oSATgsTgD1OT171n3EUdvcTk+ROgbMYZW9cZ4Ix2NU4nOQrJkgjyxjHzZzznrXqWutDyOazuztZLpVjihCt5dwm5GYYUAZ4I+oxXP6xps9rKJi48psur5zz0AxVu6vvtUCs6iOZNpUNkhTzx+Y/nVK4mur61imJUjLDy0JBXaoJb6YJ/I1jCDT0N6k01qGjzn7WcyBJMhQ2zL5UMR+vf6VryX8XlrDOhMTIEJ5zGQTiudspHt5jJIUfLHbKV3fn3q7qWoeYiCHe0C/65B1Ppjuemac4XkTCfLElgumj1RG3sYMgsD2wCOvbsOlacIimlvFIUqh3I+7rHnGM557Vz4mtp2QgzStOMyNt/h7nGfp6UkWpzWbziORpA4OwkcfzpShfYcaltzS1WFILpbiCRWVBgBVzkD1I6fWsu2kxcyRbwn7za28E44+lPgkZrOOWB3811JlCnGGyRgjGCO/41SsiHjulll2csUJON3B49KqEdLMmc/eujVt77zXjmdViG47AOnbGc1Lc3Ef2XzmLBJTtKKxYNzyB+NZCzMzqAwZfuumQw47+9MjuB5ixrv8vkhT91e5qHTu7lRq2Vi5darGTFF5e8KuwOQMkeh+naqUcgFxJcCQsXcKN2QCO9NuEBDSkI+Ttz1IPTp+FRSLLa+WrjYJVB24wcHofxxn8a2jExlN3Li3McTFXw2xckAdvWr1pH5rs6bwjcKTxnvnH5VjwbjOxQNIW4weQ4/SulsYWKElQjE+lKdoocG5M29AtiZdxGQOea7ONdkfqehB7fjWJoFm0YU9OfyreZRs4GC3515VaV5HtUI2iZ9/uZTuOB3NSeBFB8VW5XjCvknv8AKajvckEsfXjrU/gZc+KLfnBCuT78HiujCfEjkxvwM9Wooor1jwwpKWkoAKKKKADOKtWuk396u63tJpF9QvH511XhfwtHFEt9fR7pW+aONuijsSPWupAY8A7VHQCgDzdvCmsqu42Tfg6k/wA6zrm1ns5TFcRPE4/hYYNetbWHIYn61k+JNIXV9PdVUG5iG6M/0/GgDzWig0UAFJir+l6JfauxFrFlV6u3Cj2z61qjwHqhJ/e2o/4Ef8KQHN96K6GTwNqqDK/Z5PZX/wARWTf6Te6YcXdu8YPAY8g/iKYFOkpaQ0gCkpaSgApKWkNACUUGigApKKKYCUUUUAJQaKSgApppTSUAFJmijFADKUUlApAOpabS9aAHUUmaXNABS0lFAC0tJRmgBcUUUUAFFFFAC0VYt9OurzAtreWYkZOxCcfjU/8AYGqgMf7OucL1+Q0AUKKVlZGKupVhwQRgiuo8K+F7HXLNp55pw6SbWVcAdOOaAOWpa7LxlodjpekWxtYFRlkCl/4mGD1PeuM7UAXbbRtSu1V4LG4kRujBDg/jWlD4J1qVgGt0jB7vIOPyr0PT0RdPtliwqCNduPTFTvIkYy7qo9WOKYHlOs6Hc6FLHHcNG3mLuBQkiui8HaHpeqaZJLc23myiQoWLkYGBjGDTfiHJHI1mEmRiu7KA5I6c1L8OZsrew54yjj9RQBU8a6FaaXHay2UHlIxZHwSRnqOv41teAQw0NixODM232GB/XNWvGVp9q0C4IGWixIPbB5/TNReB02eH4T/edz+tAGH8RbVlu7W5H3XQxn6g5/rXHGvSfHdsLjRyQDvhbzRx2HB/n+lebN0oA4H4vafNP4ZubyDy2eKPYyMgYsp/u+h5z9PpXzOCqONyFgDyp4zX2D4ihgn0a7S5LCLZlygJbAPOMe1fIuq2sun6hNbSpteJypHpQA+CZX2jDbu5z1qzIpK9OtZscp8wE49BgYzWjFIXADHmoZpFlZ0YZAzmmedKqj5z71bdc9OtQPFx05pXKSfQY97PghXIUHj6U1Lyf/no3PNPMZ2hME07yEjLYOeDg9+lGg7y7jVvpiPmlY+ozyPenG5uVIxKxyAeD7VCkJKk8n+lTrA8hUoOMZ/pQ7AnLuWY7i4KBpHbqR1rUsLghd3UE9fUGqtkhWGSCSJXU/dJzlDxWraW3lIFB4zgj2rGcktjenGUnqaljGrLtPBzyDxjita1V8xtGQpReOec1n2aDzB5Zw+Plyep/wAa2rdCECspbPOOhz61w1J2PTpU7mtYSC3IL/MoTaCRwCMYP41rxXqFQVBYqD904/X+nvWPayrIpQKqBeDlck+2auw5YHpj1zgEVxzdztguVF86pGqqsjqUcZBHBrF1LUbuzWTyZS/mbiE3d89j7DtVK+YwkSD5iT5SoF2jb7Hv3Oay11OSVVVJUX7G2XmK5xxjGe/FdFOgtzmqYh7F+fUF1Eefal2VFKeW4+7kEY/AjNctJrU66gZJbgxOu5UOecnvjuP89q1TqyQxrNvECSKW3KvU9zx3rjpr/wAq5kllhW7jL/ugSflJPOOetdtCn3POxFXsQy3bxTzypOzycjcMdD16dMmkv9RtZbqCSG3wTxNsYYY9yq4G3j68961EtLa6kknljMORkfKcBiT6Dn8SKo6nFZiS0jRIFlz8zgkbs9M8n9MfT16U+hyNdS1K1vDI0MEryxHo7L0/+vyM1VnaSUrvmKFmxuUZzwT0pturWVq5kkA8xuBkn/8AX2P4VM+oLc28drGh88FiUAzkbeD9eWzSSs9Bt3WpTF67RpFgRhyCGPIwPXvil0+6lM3lAOQ7Mq7MrlT1x9cdKuNag2UJ3LJhT8hHA5Oee3NZobF78ztIiDAMfHbGR/nmnFp7Ckmty2ZZILl/JUqmwcDgc59ahe9a3fyyxHlrnAwRzziiS6aJvM851DMuTuIYgDHB547VRMz58qQqAjbNwGR16kjr/hVKKJcma+nXLwwtGhHmyZIH8QHNZ8srWczKmBg9Dg9u4qW3kZZUnHyc7V9ySccnt/hRcxMkrySRsXYna543HjPX6/qKlKzKbuhzXAaxiESfMq/vCByefvfy6Ux1OwMpGEbauWAZs57dT6UyNljdfMYoDgAxjgckHI/wph33t8qQqct0VR37/wAs1XKRzdCdlixA8hXqVaNCd4GeSc/j+VXNy6juupQfNdgMEdU9vQDAAFVYl+0vGqRhSONw78f5/Oti3s2QBDkgccjpSehUVcTTrR4387o4bKsO3THHqK6bT7bzZQDkk8kDvVKwtmBAVc54GR0/Cuo0qzRTvOR/X3rjrTO+hTNnT7dVRcAk49P5VcmUgbTkYOB6mnWaCNFyWb3ps44bDEsR1zXnPVnqLRGVdKcuenbrVnwUjDxPb7EDbVck+205NVbo9enA6+tbHwy2HxnaB3HzK6jd3O08V34RXmkedjXaDPRqKmvrb7FeyW4+5w8f+6e34HIqGvVlHldjxIu6uFFFFSMSrmjWwu9VtYGGQ0gyPUDk/wAqp1c0i6FlqltOwyEcZHseKAPU+49Kz9a1uDRIEllR5C7bVVe9aB9f1qvqGn2+p2rW9wm5G6EdQfUUAV9I16z1lCYGKyL1jfAb/wCuKs315Bp9s9zO4VEHr19h71TsfDemWCYjtwz93flvz7fhXKeMdJbT545Y5ZHt5c4V3LbGHYZ7UAc9I2+RnxjcScelNxS0Ku9go6k4oA9M8L2i2mh2qgYLr5h+p5rUJIPAyKZaxCG3iiAwEQLj6Cq2txXU2mTxWe7z2XC7W2nr60AXPm9BUNz5bRslxCJIj1yNw/EVR8OW+qWtoyapKJGyNnzbmA9z3rVPNAHnvi3QYtNkju7QYtpjjb2Rv8DXOV6L4wiiTQJg3/PRSgPY57fhmvO6QAql2CqCWJwABya7/QPCFnBaxzX8Hm3LDcVfontiuP0CPzNasl9ZVP5c16r0oQGdL4c0ib7+nwenC4/lUDeENEYEfYVGfR2/xrXdmUZVS3sKj85/+eDj8R/jTA52bwBprsTHLcRg9gwOPzFYmreBrqxhee2mW4jQFmXG1gB/Ou/3vkfuyQevI4pt1JHFbSvMQsaoSxPpigDxykpzEbm29M8fSm0gLukaRca1di3txgdXcjhB6mu6tPAukQQhZ43uJO7s5XP4A03wJp/2bSPtDLh7hi2T/dHA/rXSUwOL8T+DbWCye805GiaIbmiySGHcjPeuHr2t0DqVYAhhgg968i1vTjpWqT2h+6jZQ+qnpQBQNFKaMUANopaTFAEdFJRSAdRSUZoAdSim1c0zTbjVrxLS2AMjZOWOAB3JoGVqK7mw+HcIyL66kduOIRgD8T1p918OIGJNreSIMdHAbn9KAODpav61otzod0IJ8MrDcjjowqvp9m+oX0FonDSuFz6e9AGhpXhbU9Yh8+3iVYuzyNgN9KNT8LanpURmmhDxDq8Z3BfrXqdvbx2sEcEShY41CqB2ApssAf5h8rDv6+xosI8YHNdh4AsbK7W8NxbxTOhXHmKDgc9M1neMNFXTL1biAYguSSF/uMDyPpV74dS4v7uHH34Q2fof/r0Ad3+6t4eSkUaj6ACnqQwBUhgehHes7xDH5uhXq9f3LH8hmqPgi2uLXRVS5DAu5kRW/hUgY/PmmBmePtDVoxqsIAZcJKPUdj/Sn/DmQGzu09JAfzH/ANatXxncRweH7kSHmTCKPU5/+tWJ8OMFb36p/I0AXviF/wAgeH/ruP5GvPK9F+ICE6Ijf3Zl/ka86pAet+HpBNodk4/54qPy4rhvHaSR66+92KPGrICeB24/EV2Hg9g3hyywc4Vh/wCPGtOa0t55FeWCKR1GAzICRTA8brqvh5KV1S4i7PDk/gR/jUHjy2ittYjEUCxK0IY7RgMcmjwC5XXtv96Fh/I0AehXluLq1mgbpIhU/iKoeF7c2uh2sTDDBSSPfJrRuI2lgeNXKMwIDDsaeowoGAKAK+o2wvLGe3IB8yNlH4jFeNupRirDBBwa9s615b4x07+z9cm2jEc/71fx6/rmgDAZVZSrAMpGCD0Ir51+NHhJNE1eK7ik3w3ChFUnJQgcA/hjH0r6MIrlPiboJ8QeELu3TeZof38QRCxZlB4wPUE80AfKbfKQOBg4q1bXOMDn/GobmIxuyEHIPPGOlQq5GBnpz9KVhp2NfzN68Z5p4Xd9KpwSjAWtG3Qvg4rORvB3G+RuxS/Yt7ZIzmtGC23HFX4rFSOgGOmawc7HRGncxLewO4Da3P5GtKzsAJApwF6DPati10xQF5BJrSh06NxtAGRyQetRKqawoGVDpG2YBQCp4Ye4rYttGfcHjVSCM7c5z+VacFnFE8ashC7ckpk4b8/rW9piXEEBCWuNowzYPIJFctSqdtKic1Do7FgyLjqeorQhsmOBuPzfwnvXUxaTA5aRSpf5uAOhH+f1ph0+ITxoMI2OgBPJrmlJs64pIybfT325XBx1GeSauPp7yQMDG6lhtyozyen0rU8v7O+wLGZAdoBJG446ZrQ0yeORbhpbZxsfYcjADAZojF7hKa2PP9e0qTzoolMrmXdEpQZw2M8jr2qC/wBAaws55JGSNXOAqD8wex4zXVanbWUWsnULi5SIeT5atuKgOVGH4BwO2feuYs9Z+2Lc6bJCJWkaSVjJtJbJx8ueD16cdM5rupxbimebUklJo5vWrabS7eNxAnlzQ4O9B8h7FSOa56/D2ktqzSm6ljCOqSklegJHH48itvxFJDaQL9ji8wNuWXdGwEZQ9M55yCDz0zWTc3TTyGVpVeTyijDYNoXAx/8Ar/8A112wVkcFV3dihNfSySb0LbEIEg4OT3Ix75psg85HuoJEmZBsKbDlVOPm6Y74+o+lPMCuzuHjtzlUCjIDkcZAP5496qaessV1J56SFIT83O0KD6+gqzJtm+unxT6dHJ9qijZV+SJiScjGScDuM/161h/aZHvoZrMSJIBt+T6EcYOcEcfnVm4kZ7ULCgBD5YDPyjjHPT19elZ81y5lbc4LQ/OcEcMeMcfhSSHKVzQl1BrhZomjIkC7jt+6MHqBWcLtQ4mMZIZSuPuj0GKnk1ESyusQfmMAnHO7A447ZrNLyQSrhhsbuDwO/wCFNR6MUpdiW6+fy1jLkbcqWxk8c/qDSIAJGB2qemOf85qWKRHlYPuyudojGefofWoAHe4/dA7hyDjBAqrEXLTSRpGybw3lEbWU5U89elJdTCWXckkksOAQzA/KSBwR68Y98VAkYKlpI2fK4QBsEnsQOcinRwSqqeakiKflGQQMj+fWiwOTJHmZoyzx4VuFY9Pw9antYC7mUogBIYqBjP5U9LESAIWYkNkKRjj164zWna2qoMYwPSk3YqMWx1paKhG1Rx39BWrBbljwBSW9t8mSMj27Vp29q0jhVUjAwMd/wrnlI7IQsXNNtxLINwHHQAYP410NtDgpheM8Y54/z/Kqmn2xVEO0bMdu1bUESkmTYeOMZxx61xVJHdSiW41byhnAxy3tVaUZXbyR0CgVcZQwUnHy/gBVSZlySOfTFc3U6+hl3o8rPOcdSDU/hN2h8TaW8Z+c3KYHf3qtdPvP1NdT8LtF/tHxdbTMA0dv/Pqf5CvXyyneqn21PGzOpy0n56Hpvi+MRalZn+J1dPwyD/WsitDxsxl1aIJnMceePUnP8sVRkwcOvAYBvzr1q9K0IzPEpVPfcRtFFFcZ0iUUo4NJ3oA6rw/4wFtGtrqJZoxwso5IHoa662uIrqIS2kySRnpg5H/1q8np8NxNbtuhlkjb1RiKAPWJJDGheRo41AyWJ4Fef+KtYTVLxEgYtBANqt/ePc1kzXdxc8TXEsn++xNQmgAqzpsRm1G1jAzulUfrVarmjTrbaraTPjasq5z6ZoA9WqK4uI7aJpZWVEXqzHAFSVyXj3UNsUFijEFz5jgdwOn6/wAqAOoWYyKrxqHRuQwYYxT/AJ2POAPbrXNeB9VSayNg7fvYSSoP8Sk9vpXTZwfY0AeeeLNbn1G7NqY2hit2I2N1LeprnxXReOI0TW9ynl4lZvryP6VztAGv4SQP4htAexY/kpr02vOvBEe/XkbH3I3b9Mf1r0agCKdZZYHWF/KkIIViM7T64rBks/FSoxTULNz2GzBP6V0WKBn1oA87u/FXiCylNvcOsUi9QYxmsy/8QanqUZjubpmjJyUGAD+VdZ8QbeNrC3uOBIsmwHuQQeP0rg6QCUlLU1jbm7vYIFAJkkVfzNAHq+jIY9KtEPUQr/KodT1b+zbywhKBkupDGW7qeMfrWiAFGAMAVS1TSodVWBZSy+TKsoK+o7UwLtcH8Q7ER3VveDP7xSjfUcj+dd5XNePrVp9EEignyZQ5+mCP60AecUUUUAJijFLRigCuKWkopDPVtL8NaLLZwXI0+ImaFGOckcgHvWk2jae67DaQ7cYxtFQeGZPM8P6e3/TBR+QxUV94mtdP1mHTLgFfNQESdgSSAD+XWmI53xR4JSCF77TRtVAWkh9vUf4Vj+BpAniS2y2NyuPr8pr1FlDqQwBBGCPWvNdPshpnjuO2H3Fmbb7AqSP50gPSZZUgjaWRgiICzMegAqvp2p2uq2/2izlEseSpOCMH6GnX9sbqwuLdSMyxMgz6kYqh4Z0EaBYGEyeZLI29yBxnHQUwMv4hQI+krKWO+OVcD6giue8BQCbxArkZ8qJnH14H9a2PiLqKCCGwU5dm8xh6AdP5/pUHw2gBmvZyOQqoD9SSf5CkB29xMtvbyzN92NC5+gGayfCmtvremmSXHnRuVfH5g/l/KpPFc3keHr1h1aPZ+fH9a5b4b3BW+u7fPDxhse4P/wBemBv+OLMXWgyyYy0DCQcfgf0Nct4AfbrxUnG6Bh9eQf6V6HeW63VrNA3SRCh/EV5j4Rla28SWqnglmjP4g0gPUvvJj1FCoEGAKHdYkZ2OFUEk+gFQ2Oo2upQ+daTpMmcEqeh9/SmBwHjuW/bVvLuV226j9xjoR3P1q/8ADj718M/3P/Zq3/FunLqOiXAC5khHmp65H/1s1znw4b/SL1f9hD+ppAbfjtd3h6Q/3ZEP64rzSvT/ABuM+G7n6p/6EK8woA9K8ByB9ARAclJHB9uc/wBa1NZ1i30S1FxcB2UttAQZJNc/8OpQ2n3UfdZQfzH/ANan/EQn+yrces39DTA5fxNr41+6ilSFokiTaAxyTz1qfwOceIofdH/lXP1ueC/+RituccN/6CaQHqNFITigEMMjkGmAgdSzKCMr1HpXLfEHTvtGnR3iLlrdsN/un/6+KtWmoEeMb2zJ+V4EYfUD/wCv+lauqPbCymS6eJY3QriRtoPFAHjhFIwBBB6HinsMMR6Gm0AfN3xe8Cp4Z1MXdszfZbosyAj7pGMjP615vtUEg53d8V9aePdCste0Ce2vGCEqTG5XdhsYHH1NfLd7Z/2XqNxZXULb0JQ5yGQjv9fagCpbkBxnit+2kACkELx/kVhRQs7qI8kZPzY/P9K1keMThIiznAVVIyx/+uaiSuaQlY6Cwbzn2rESemB+eavOvCmP5kJ5YelYdtOdoVUKvtJIbjOc/wBK0IrpVtl2JtIbnaeTzXLOnY7oVbmmivbkDcVYk8dO+M1ow3I85do5I4P0rJW9tLhI9hYMw5/Dr9aqPqLxTR+UwABBBPbt/WsnTbNlVUTr7aVi6N5hiGTls8EZ7j863tPcy+csV1v8vnCkkc5HHtx+teax6+/+rZQCxILA9B/+s10Wn6jDZ248xjDLLyozyq4yPpWE6DOiniVsdbFJMhkfziJYnyWGAACB/U81sk+ZN3GIlcSoMAnPA9u9cRYeJJLyzltz5bJcXKqW25ZgOSfxwP1q63iKe2hv7RzDJcQJHEG25J+bY3PT6/TrTVHoDxHU6a51EQIjSQtMs5MYfOAyjAJbrnPPvTtReF5bNNNlZbaZikmMHac7WyD6huD61iajfwQ2VtGZJY1t3CtIpGFABUgjvnNSaZ5OvW9m8dwVLzQPK5YZVVBycdsYcc9fxqlC6uJ1LOzNjV0iGlS2jwiRDu3RuW4UZAIHToOvbFeURaglheSSQ2wu/IQhmGXAUsMHkdMHBHBya9I1fV49bu1W386C5igW1WUAYkyXbcR9c/p0rjvE8E+hLZajZSiWylyssLkkkkBiCOAcHDD3X2raiuV2fU5675lddDGubK9uLxIRGzSzplYYznYQM7cdRj069Kwbie4aOeG6DuU3bTIhDR/dG48dCcD2xXSatrpmkYPcmZZwjTFQEYHgde+Oma53VLSa2MsVpcvcRRsc7gysmfUHgfUHByK6IN9TlqJdGULW/tQv2Zv3iOwYSyclSOox1PAGOccUtyyOrkiSS3GYhLCdjPk8MQc547cfWq8sMU9u1wkEVuYVVWUyffJ6FVJzn1xkfSq63YNikHmt94naxOFGP881tY572HWLxzq1rJOViVWdWZcDOBgH8v8APNVjHthdy2MnYOcVNF5aRPA4KziQEFSDxjge/Pf3qDzmyzPKx2gDYxJB56GixNxYUWBDIsu9n/hAIIFRTI4LPsIIPRulWopIQu5lD5UAAnOMf5x9KhuJPPk3YyS34UxCou6LLPgqd7IF5b6H+lT3ttFBeiK1mMg2Jv6fKxUZGfYkj8KrI0skyOdzsmNpYZzjpViGzZxuLcD5s8DNDBJsdHAiSrjLrg8ZwR6VZjg+bdjdzyT1NOt4j93aOOvFXbeHgMcfjUORtGBJawlcY54rUtrbGMg5I61FbQAOCPrgc4rXgtcAO+Rjtng1hKR0wgS2tuMAkc84rWsowmwIhLHII/xqvaRLIeVx2xg/0rYtLb58bA2Rk9sf/W/rXPOR0wiWbFMlZDnB+6DyW961YuPlYAHHTqeveobaBVBYkDGQoxx9fersajeRgYz83qfr6Vyzd2dcFZEIU7DvOAecf3e341DcgKnAJPt61bkzwG/BRVKUZBdjwDgD+97VKNHsZkoQfMvOMnjtXr3wY0SS10+a/lXDSZAyMHJ/+tXmGl2DanqcVsAMZ3OfQCvoG1hHh/wyAvDrHuwTzuI4H4V9Jl9JwoOXWWi9D5jMqvPWUFtHVnJ69OLnVrqZclQ2wY9BxULny7e0fs0Z49gev60wkKCQPvdjzVjVFVdQsLI4CiMRsM9N3FexWpKVP2Z5FObU+ciixMu5CD9KQqVOCK5zRdVktNVvNLugRJbvtye654NdVDi4QDrx07ivAknB2Z66tJXRXoqWW2eMZxlfWoqadyWrBUtrZ3F7KI7aF5X9FGair0XwfaxQaHDIgG6bLufU5I/pTA5UeD9YZd32ZB7eYuaqXHh7VLcZkspcf7Pzfyr1HFJigDyB4niOHRlPowxTa9cuLO3u0KXEEcq+jqDWHfeCdNuSWhMlsx7Icr+RoA5q18Yara24gEkcgAwrOuWH+NZF1dTXk7zzyGSRzksavazoN1osgE2HiYkJIvQ/4GsygB8M0lvKssTsjocqw6g100fj67WHY9pE8mMb9xAPviuWzSZoAmu7qa9uHuJ33yOck1BS0lAHVfD+Hdf3Mv8AciC/mf8A61d3Xm/hHWIdJ1BxcHbDMu0t/dPY16KkqSxiSNw6MMhlOQaEAy6Fw1u4tWjWbHymQZXPvXLXnirWNIcx32mRn0kQkK34811qyKxIDAkdeaGRJFKuoYHqCMigDy3W9futdkUzhUjTOyNOg/xNZdep3HhjR7g5exiU+qDb/KuQ8TeFDpKG7tmL2+cMCeU9KQHNVp+GUMmv2Ixn94D+XNZtb/ge387Xo3wcRIz/AKY/rQB6RRnrRWL4q1mbRNPSa3VDK8gUbxkY6mmBtZqjrtv9r0e8hxndE2PqBkVD4d1ka3py3BCrKpKSKOgNahwRg9KAPFKKva5YHTdVubbGArkr/unkfpVGgBKKKKAK2aXtTaUUhnr/AIS/5Fyw/wCuQ/nXI+OLd5/FNtEisWkjjAC9T8xrq/BxLeG7HPZCP1NW30e2k1ZdTkUtOkfloD0Xk8/XmmIvKMKB6V548vm/EZSDnbNt/JMV3l7dx2NrLPKwVY1LHJ9BXl2gXbXPiy2unOGluCx+pz/jQB6wOlMkZipCdcdadjIHNCMrqGQhl7EUAeNapdz32oTz3HEhcgj+7jjFdr8NkxY3j46ygZ+g/wDr1heOtO+w620yLiO5XzB/vfxf4/jXQfDYD+yrk5yTP09PlFIC/wCOX2eHJ+fvMg/8eFcX4Kuja+IbcYyJcxn8R/iBXX/EA/8AFPH/AK6p/WuB0GXydasXPaZR+uKYHsVeVWCmLxfCrZBW8wf++q9TLgMqnq2cV5Zd7rbxe2RgreA4/wCBA0gPULld1tKvXKMOfpXmvgi8ltdfhiU/JPmNxng8Ej9RXprDcjD1BFefeCtHkl1mW8cYitWZQfVzkY/CmB6E6h0ZT0IxXCeAEMWr38W77qbfrhq7ssEUk9AM1w3w/bzNV1CTrlc5+rGgDofGEQl8OXgJA2hWGfZhXldexavYf2pp09mJPL81du7Gcc+lY2neA9Ms/muN92xGPn4X8hQBnfDZz5d+m3jKHP5102s6LBrlslvcPIqq4fKEA/55rP0Cxi0zWdWtoI/Lh/dOi9eCpz+ua3RuI+Ygc9qAMaHwZokK4Np5h9Xck/zrldOgtrPxvHBZrL5MchUBuoO3n8M13tzqFpZjNxcwxDp87gV5hqWrH/hIZtSsiFIl3IccHHGfx/rSA9WcblI9RiuZ0jxRaWFu2n6nIYLi0JjJbkOB0xiudn8eavNGUUwx5XBKJz9eayrbTNR1YvNBBLOS3zP6sfemBe1DxI//AAkMuq6eCmQFHmKDkYA6fhWPc3M15M01xI0jsclmOa6i0+Ht7Koa5uI4fZRuNQaj4E1CzG+BkuV9B8p/KgDmqQ+tPdGjZkdSrKcFT1BptICvdW4urd4WyAw7HBBzkV8/fFvwWunXMmsm/DyXMrGRJMBmbd1UDtz+hr6IrkviR4Xh8R+GrqJYN1ykeYWUZIYEEfnyPxpgfNiRTeRBbRtGzzTuryZz8xwB/PNTfZbbT5XRpSXKluo5UHOM9mIHHsR61nW0k9pdjHyyRtvVWH3XX/8AVVnVStxc3FxGwCbFbAHTgDH/ANekyky5qF3HPHaXaxmIlirKB8uBjHPfAIqWyupJ8RgBiX2ISMk9M/p/Os65ieHStPUyEpOHlEePutv2/qFFaGgGKfWY5FbyLdtyhmOViZgVBP0yOalxuVGVjQtoHa/hgSaDzckqwbKhsZAz068fU1FfR2otrOX75d3B3HryuAfwNZmtLd6ffTJPFLbHoowQNuAB9aqPdu1nBH5hYLlgM4weM/yFJKxTlctCWT7RNsB3AMWweFH+c1o2N/MsU0oxIBFypOCMjAI+hIrn4LhVkzIoIL8nPQVrXE8emTS28M5NxGypvX7rH+If09DQ43HGVjoLm7TRtQs4YQ0/kbUdlPzOx5OPTkkfQVp3VkHFzdpLG0dsu+SJ35cMwABXOVYDcSCO3cVyV7qO9YldW3+YZ8gYDvtBYn6YAA6fMasaNqjWFvcTFt8rgbt+WB56MO4IJH41EopamkZtqx2WmxtIYLe5AntpAQjxzBe2eTz3Kjn1q8+oL9iMtpbxWrh/LmmGcs2AobPYBmwQPY8544jUL+3aztnsJ9kfDPbPHmSLqSQ4+8B2zg89O9NTWJdMR4fKcNcusZibhShU7hjvksjA9qSp2Vhuq27nWLdR6Pc6feGRZIJo3kMe7cVjfCkuTjGSGHXjiuhupoLzQtJi1BWGnXdx9mjuCQZRgMFYkdFUxc99rH1Bry3VtT3zLGsh8m3t1tgAflYD731+bn8K0JPGD6lolrHNchHsAXWFVwpXbHHn3JA6/WmoK4nVdjL1O0S2vVhiErohUSeYTxJj5l/PPSmSa3IuoXM8EsxeZfJkSUhjyMMDwNwxntnIFFxeXN1DBJOUkaaY+YoI47Zx2+8SfeqPl2x1W4YwusTebmPdkh1Bxg+mcfnitEjFyKd6jm+ELTJIvykbG3KFYA4H0z+eajmSKJJVI3sDw4P5VHIJVkKbdxBGDjkGlxLCY4+BIpBUkDGc9CDVWIuEIZjkmRHUZJxyBjg/59aY8uXkVgGD8k46e4p6QeUXllk27RkqDyT2qEHcwMilyR60CFO5UXOdpPHHUVZGZI1+Ubeo7f5FLAp3bnTPXmrIUucsR+ApN2LjG4kEG0bjjIGBVqFedopEjPQEEfWrESbTuXBrNyNYxsSRqNwzk9hV6CM4+QDFRwwBs9cgA8EZrQt0QYXdn2PHP9PxrOTN4osWcWJAQp3dDtwM/j2rWt7Yc/cAP945I6dqrW9t8mSuB1HP6D1rStocDKJ06KwPy++e9YSkdEYly3iVsDeAvr0PH+f1rYtrbogQFRyATz9TVGyhLygbi2B1xz+H+NalvGY2IwEVhu27s9+pP9K55M6YItxEGMvuB6Aev/1uanVVRdisCQOeenFV5dsbhivmOei9PwqWK33sHkzjnj/PasrG60EZfN6FgpHJ/vVQ1GQRj5Qdp9e1aFxMVjI3cLjIXvVTTrF9e1VIFUiGIh5Tn8l/H/GunCUJV6ihE5sVXVGm5yOx+F3h6S4vI7mdOHPmNnsg6D8f613vjG/3NHZKeceY4+v3RVjwrYR6TpDXMihd67iT2Qf41ymqXb3lzLcMOXO7nsM9K+vpQTqJR+GOiPjatR8rlLeWpLpNsbjUV3g+XGPMYnoMf/XqhPctqGtiROd0yhfXAIArYjYaZ4eeY/LLdHah9v8A9WapeFNPa71qJmX5Yv3hP06friultWlJ9DC20V1MLxpo0jatc3dkNt7bZcDP+sQ8kf1qp4Z8Z21wEWR1VjxjpzXUavMn/CTSv1TzvKPfI+6a8P8AiXZzeC9dN5bMVtp5iCvZH6/rXDiKCcVJ9jrpVWpOKPoFJvtEWVORjP1rPuITG2ccGo/Dt2LzS7WdG3K8aNkdOQDV+dFcYwf6V4z92Vj00uaNzPre8OeJzo4NvOhktmOfl+8h9vasJ1KMQabWhmeq2Ws2GoKGt7mNyf4ScMPwNXa8itRuuoR0y6j9a9cFAC0U1yQjEdcV59/wmurplS8JIOMmPmgDrvEywNod354GAmV9d3bH415hVy/1e+1Ns3Vw8gzkL0UfgKp0AamieHrrXHfyiscSfekYHGfQeprcufh+Uti0F4ZJgM7WXAY+ntWx4NTZ4fgPHzF2/wDHjW3QB47IjxO0cilWU4IPUGm5roPG9vFBrW6NdpljDt7nJGf0rnzQAVo6T4gvtHOLeTdGesT8qf8ACl0fQLzWpP3KhIgcNK33R/jWzfeAZoLYy21358ijJQpt3fTmgDR0/wAc2FyNt7G1tJ/exuU/1rat9VsLlv3GoQvnnbvGfy615QRg89aSkB7EZGXkIWHqprm/HGrQw6b9hU5mmIyP7qjnNcTBqV7ajEN3PGPRXIFQSyyTuZJZGkc9WY5JoAZXXfDuPN5eSc8RqM/U/wD1q5Gu4+HceLa8k7l1XH0H/wBehAdhXH/EYj7NZc/xtx+ArsK4L4h3Ikvra3B/1cZYj3J/+tTAPh5dBL65tiSPMQOOe4P/ANeu9zXlnhW5+y69atnCuxjP0Ix/PFepdKAOE+IloEu7W6VceYpRj6kdP51yFeieP7fzdGjm/wCeUoP4HivPKAG0UGjFAFSlBptLSGeu+DP+Rasv90/+hGta4uYrWIyzSKiDqzHArJ8Gf8i1Zf7p/wDQjXN/E2Q+dYx7jja7Fe3Uc0xFLxd4rXVSbS0YmDPzP0DY6Ae386yfDGP+EgsM8jzhWXmtLw4duu2BP/PZf50gPYx0rB8L3/mzalYsfmtrlyo/2WJP881vVwGl3JsPiBdQg4SeR0YfUbh+tMDa8e6YL3RjcKMyWp3j/dPB/wAfwqh8NJQbS9iyMiRXx35GP6V2E8SXEMkMgBSRSpHsa4HwWTpPie606XqwaPPupyP0zSA6jxjbG58O3YXkoBJ+Rya810RPN1iyT1mT+dewzRJPE8UgyjqVYeoNcVongq7sPECzzCM2kDF0bdkt6cetAHakAyAkcqDg15ZqMgbxdI2cj7WOR/vCvUp5Vgjkmc/Ki5NeLm4drs3GTvMm/PvnNDA9sqK3tobZCkESxqWLEKMZJ6miN3dI/l+8oJbsOKl6CmBkeKtTXS9FnfdiSQGKMf7RH/6zXOfDaIiW+nONoVE/mayfGes/2pqrJFLvtoPlTHQnuaxra8ubNi1tPLCT1KMRmkB6/d6rZWMTS3FzFGq9ctz+XWucufiFYxM3kxTT4OBwFU++Tz+lefsxdi7ElicknqaSi4zbk8W6l/ac9/DKImlAXYRuAUdBVa48RatckmTULjDdlcqPyFZyqXYKqliegAzWzp3hHVtRIItjDGf45vlH5daBGOzs7bmYsT1JOacYpBEJTGwjJ2hscE+ma9E0vwHp9kQ90TdyejDCj8KveJLGA+HLqJYVCQxF0UDAUjnIoA4jwr4cbXLkvLxaRH94QcFj2Ar0q1s4LKBILeJY40GAqiuL+G0oEl/FnqEYD867eYusLmMAuFJXPrTAdkUGvNvDMd/rviCO5nmlcQN5sjk8DHRfbPp9a9JoA868eWXkahDc7AvnKQ2BjcVPX8QRXMV13xFulkv7a2ByYoyzD0JP/wBauRpAJUF5E01tJGhAYgY/OpzSUAeI/F7wI8t5Jqelad5bRxCWfyx8rDJGR78dBnivJ5S+5oGPl71VXRxjaRjP8s19iOMqQQCCMYPQ14p8U/h5Pcap9t06CaaadQQI0LHIAGDgc8Y/KgZ44Zrjy/s0jErDuKDrj1wfwpI7mWGPcjMqbuQDjJ68/lVlgsMzw3cEiTRnbxwwI4wQapCTacBQQ3UEcGmK5JNeSXEQ3szBOBuOSAe1RxYZ17jqRmlSEyKxSM8EcE1Zg8izw7ss0p6Rr91fdj/QUrDuUy5RwcHIOeat6gQ91JcBiUkcybSDkZPIP41VZS2/ecupz9av/YY1igujIPLYYkXPII/oR+uRRYLkkchtoAgVJmkDOgc/dUnAx+Wfy96bFOUgBJyhb95n+I56f59aTUpoQyNEUZHA8tSOY1HGD79PqarBxcPHDCoUAYz0Ge5osUpE9lJIt2IVfMch8tt3OATitTVRcXsyCSXzJEHlD6qwUf8Aju38qwtqxSyDqgJ2nPB9K37W3t9YgDJcJb3WAHhHyiRsYDJx1PGRx6jPYsJMhSGfziybVEQkYLJ3CryCPfP61WDoIm/dMHKtHkDIYDnn0I4q9qV1Jp2oJCG3MkBhOTyCy4J59c/liqEk7LyZVO13wX5UnAyDRYGzQ0jVZdPWWW3ginEimMiWPeR1yAevPsar6rdRahqbXEcDwKcNJEvzBSecjnOCcnB9etQxys16iIkaAkMYw2S6/wB3r79OtQ3NlJCDOYise88heg7daYizeXzEIIdjOoG5sKcnHXA6d6pzSSL5anJYM0mc9c4xg/hUVv8AZkfdJEZQDkANjPpmlJMkhJ2jPp0FK47Fu0toJEd55gjhgELDjPU5HXFMmhiSYiLlAeCRjP4UhG5hjJ4AzUiRkgVLZoo2FQZ6D8KsIoI6/nSRwEc1aigP3tv4+1Q2aKIqRZx8uPTNW44jtwATnjA70RxZ4PynPAGc1etoQOqhcc/N6/TvWbZrGI23jy6kptHGQO30rViXpgKQOmex9aZbRbHIUOR1yq5Y1oWts2VYkoq9s4I57VlKRvGBPbo2Nx6ngFzyv9a0YomKAux8sckEEKf6moLX7MoU7gxHVVJ9e5/CrYlUDcQqkfdwpJx7D0rnkzpjEuoFiRCsxXI7DH/18VYt3EamRQSCflLcmqsMEtxiYKzBvvFhyf8ADmr8FkIsLvDuByAeB7Vm2bpF21WMgzkEM/Bz3J7D0q1uJXcwKk8BQOlVIgS2G53L8vooBqSefyUbovfgck+9Ra5RSvppGYpGgkmdgiKBXofgjwn9nEFofmlkIkncfr/hXP8AhDRZZJTqt4BjOIEbOQO7fU/561654fsU0jTXvLgBWkXc3so6D6mvqcDh/q1HnfxSPlMwxP1iryL4YkXim+Ftax2EHy7lBKjgBR0FcnawNfXkcAz87ckcYHerOpXkl7cSXD8s5zj0HYVf0eNbDT7jVJRubGEB6kf/AK69WEfZU7df1PKnL2k/Iz/E9ysl2tpHxHbrtGOmf84rY8LwjTdFudRlHzODt+g/xNcrEkl7eKvLySv3HVia6/xI66dpVvpsRxkDOPQf4nNKsrKNJdR03dufY5Blea8iGG3STA59881y/wAYdCTVtM1OFhl0YOvscda7zQLU3OpxluRFl6w/F0X2yPUCMZYt19K2dpPkfYhXS5jO+EU7XfgnS97EyJH5TE9cqSP6V2rRlRg/rXEfBzTJ9P8ADJ88/LNcySRL/dTOP5gmvQ2UHjGOK+YxC99o9yh8CMm6gONwXGOtU62nUEYODjjFZdzD5MmB908ilGXQcl1I0bY6sP4SDXrVpcJdW0U8ZysihgfrXkda2jeJbzR/3akTQf8APNzwPp6VZB6Bq12tlptzOWCFY22k/wB7HH615QSSSScmtjXfElxre1CvkwLz5YOcn1NY9ACUtFFAHpfhTI0C0+h/9CNa9ZvhqPytDsx6xhvz5rSoA4Hx6f8Aibxf9cR/M1zNdP4/x/akHr5P/sxrmKAPWNHtI7LTLaGNQAsYJx3JHJ/OrlVdLYtptoSST5KZJ/3RVugDyjX7UWesXcIXaokJUex5/rWfiuj8dw+XrQkxgSRKfrjiucpAGK0rfwzq11bieGycxsMglgCR7AmrHhPSE1XUx5y7oIRvcdiewr0sYxwOKAPHJ4JbaZoZo2jkQ4ZWHIrS8P6/NoVyzBfMhk+/HnGfce9bHxCtkS7tZ1ADSIyt74xj+dcj3pgdnP8AERiHEFiASPkZ36fUYrkr28nv7qS5uH3yuck1DRQAKzRsrqSGUggjsa9Z0a/TVdNgugQWZRvx2YdRXktXNP1i/wBL3izuXiD/AHgMEH8DSA7fx9dRxaMLcn55pBtHsOTXnVWLu9uL+YzXMzyyHuxqA0wEooooApUUUUhnr/g//kWrDjHyf1Nct8Tv+P2xP/TNv511Hgz/AJFmy/3T/wChGuU+JpP9p2a9hCSP++qYjjs1c0iTy9Vs364mQ/8AjwqnU1m5ju4HBwVkU/rSA9v6Y615N4guJbHxVdzxttlin3qfyIr1nPAryXxkCPE19uGPmU/+OihgeqWN0l9Zw3MZBWVA4/EVwXjzT5dP1WLVbdygmx8y8FXA/wAMfrW18PNSW60c2hJ8y1bHP90kkf1rS8U6S2r6NPbxjMyfvIx6kdvxGRTAb4a8Qx63pwmYhZ4sLMvv6j2NbO4bd2RjGc141peq3eh3ontztdfldGHDDuCK7SDx7pbweZNHdRyDrAvzK30PpQBf8Yap9l8Pyc+XLc/Ig7kHr+leYZrU8Qa9Nr155zr5cSDbHGDnaP8AGsukM9KsvHelJp9sbmR1m2YdEQnBHH61heIvHM2oA2+nF4Ldlw7MBvb/AAFckASQACSfStnSPCmp6vuaKLyowPvy5UE+goEZFFOlieCV4pBh0Yqw9CKn0oK2qWauAymdAQehG4UDNOx8HaxfFT9m8lGGd8pwMfTrVnxJ4Wh8P2FvL9qaWeR9pXaAMYySK9LAAGAMAVw3xKkO6xj7fO38qBHQ+GbaybSLK4ht4g/lBd4XnPfn65rYrC8Dk/8ACNWvAHL9+vzmqfj7UrzT7O2FpO8PmuwcpwSAPXtTA6S4u7e0QvcTRxKO7sBXN61410oWtxbQM1y8kbINo+TkY5NeeSzSztulkeRvVmJP60ylcDqPh9ME1t4yceZCwHuQQa9IryfwjMYfEVkw/iYqfxBFesdqYFazsLbT0ZLaJYw7F2x1JNM1PU7fSrN7q4cBVHA7sfQVaA5zWJ4q0A65aIEkEcsRLIT0OeoP+NAHm2oXsmo3s13L9+Vy2PT0FV6lu7SexuHt7iMxyocFTUWaQAaSg0UANNRTQxzxlJFDDryOh9alNNNAHNap8PvDeqiUzaZAs0ikeai4Zc9x2rz7XvgVaw2bz2Fz+8Rs7HY4K9+eSO/r2r2QimnB4ouM+YP+Fba/HdSwSWjAoCxRgQSO36c1z+oaNe2d1JEIJG8s4Yhc4xxnI7Z719esqtyVB+oqjdaPaXn+vhSRTncrrkMOv86dwPkb7LdLceW8LrIpyyspBB9wasyQXmn77eWNkQcsD0wa+mk8EaJBK8raZaTb23EtDuKn6Z5HT16V418ZtW0qLVk0jR7WC3itlxOYUCB398elAjzlmLHOMA8CpTiDYEIY43ED+WaSKSOYYCbcdutKU2dOO+RQOwkUm6QrNnaeQR/DViK6+ysssTEOp4OeSP6VVOT6fjTTn2NK40jQtXtjKHvzJt3bt8RBJ9iDUd9JbSPiAnygPlB65Pc1TxnmnqlFxpDlkcleh2jjIrQS/LW88buz5j2LuJJPzAj6Ac1QCmp44c9ePpSbKSI0B64qykORgAEmnpCR25zVqKH5upA/nUNlpDY4D2IqeK3HXp+FSxxHgjHsCetW/KIU8opB+7ntWbkaqJBHHgLuULkcHrmrcMWV3LgAf3jnNKillG1ecY55OfarlrGztlk3fQgH86hs1URkcGQu1SD1PP8AnFX4YG35YIqAc85x+NSIoUZYBCOoXvT12gkbUjTqC46n/Gs2zaMS3BCDiNG6/wBzr9ParPO4hVC7Dgk8gfUmq1nBJczLhWkAHPG1R9fWtmHTozKGfa5GNqqMKPw6VzylY6IQbILWK5dt0SJInXJ+6v09a0LZAQglBMhP07Hj/wDXVoW8rFQ6gID0Hyge2Knit9uB5gKqSeF/qazczZQJIxI6q8jqoJ+WMcGrqoEjyy4zjJJwfwqvATIFMYYDOck8VZCqW+dSzD+IDof6Vm2aWJS2EIGQ56nPIqxo2jHVrxd0Z+zRtudm/jPp9PWmWVlJfzrBHgc5Y46Cu603TfIihtLZAWzsCjua9vKcD7R+2qfCvxPDzbHezj7KD1f4Gt4d0kX9wpMZW2gwWx39FrR8TagJX+xRN8qHLkdCf/rVoTNF4e0pYowPNPAOOr9z9BXIsSSzFiSTyc9TXv0/3s/aPZbHzkvcjy9XuNtrNr68jgj5BPzH0A6mrPie9RTHp0HEUIBYA9+wrQtVGi6VJeSr++lHyDv7D+tcu6vPKWY7mY5JPUmuiHvyv0Rk/dVurN3wXpfnXb3zgbYeFJ/vH/JP5VW1y7/tDUXlTlFOxM+g/wA/rXSSxjQvDgiztkZdvXks3X8hXHscjvn+VZ0pe0m6nyRc1yRUDb8OqttaXd2w+6MD8Of8K4jxXcG20m5kyDkHiu51A/2foMVscCSYgsPfqa4jWLM6lJbWIwQ8gaQZ42Dk/wCferpyS5qj/qwpK9oo2vC9m1rpFlBt2lIV3c98ZP61tN1AGQfxqtb4RQq8YHarROOAa+YqS5pNnvQjyxSInHT16fX/AD7VXnh81Snp39DVrG7vjt/9b/6wppX6df8AP+RSTBoxGQoxVhgjrSVpXlr5ymRB869R61mkEHBGCK2TuZNWEooozTEFJS0lAHqmgSpPo1m0Z48pV+hAwav4xXmug+JrjRA0ezz4GOdhONp9qvap45uLuForSH7MGGC5bLY9vSgCh4tvlvtbmKMGSMCMEe3X9SaxjSnJOeppKAPS/CEzTaDbFmyVyn5HArarkPh/fBoLixY/Mh8xfoeD/T8667rQBxfxDtzus7jHGGQ/oR/WuOzXo/jW0N1oTuB80LCT8Oh/nXGeGdM/tXVoonGYk/eSfQdvxNIDt/CmljTdIj3KBLN+8fjnnoPyraAwMUmMdOMUtMDg/iDdLJf29up5iQs3sWP/ANauUrR8Q3P2vWryXOR5hUH2HH9KrafZvqF7Dax/elYL9B3NICzpHh++1lv9HjCxjrI/Cj/Gugtvh2x5ur4D2jT+prsrW1htIEggjVI0GFAFSYpgcjJ8OrU/6u+mX6qD/hTD8OYecahIOOMxjr+ddjzRQBwV58PbmGBntrtJ3XnYU25+hyea5N0aN2R1KspwVIwQa9qxXlnjDy/+Ehu/KxjIzj+9gZoAxqM+1JRj2oAp5pM0UUhnr3gz/kWbH/cP8zXJfExs6xbLjpB/7Ma63waCvhmx3A/cJ/U1xvxIJOvRgngQLj8zQI5WnKcOp96bSjqM0DPc1b90rHngHivLfHqFPEtwT/GiMP8AvkD+ld7deJNIsbZBNfRAmMMoU7iRj0Fed+LNZttc1QXNtG6IECZfgtjvigRZ8FeIItEvpI7nC29wAGf+4RnB+nNdHe/Eixhd0tbWafHAckKp/rXnNLQBPd3T3t3LcyAB5XLkKOMmogCSAOSeKbViwmaC+t5VIDJIpBP1oGdFpfgDUrxg12VtIsZ5O5j+A/rWf4k8Oy+HriONpfNjkXKPjHTqMV62vTrmuE+JufM0/wBMP/SgQ/4bSWzJdwmNftAZXDEclenH0P8AOu4ryTwlqB0/XrV84SRvKf6Nx/PFeuU0B5d440w6frTyquIrkeYuOme/68/jWXoi79ZsVxnM8f8A6EK9D8c6et7oMsgXL2xEqn26H9D+lcD4ZAPiCwz/AM9lpDPX+1effEh86laJ/dhJ/Nj/AIV6DXmvxCl368F/uQqP1J/rTEdP4AbPh5B6SuP1qp8SFB021bjImx/46af8OX3aPMufuznj8BXSXmn2t+qLdQJMqNuUOMgGgDxu3tZ7titvDJKQMkIucCo69rjghgUiONIx32gCvFpgFmkCkMAxAI6HmkBY0mVodUtJF5KzIcevIr2WvFbKUQ3kEjdEkVj+Br2oEEAjoaAOGvvEM2geL7oSM72kmzfHnOPlHI967W3uIruBJ4XEkTjKsOhFebePojH4gdv+ekat/T+lM8J+JW0W6EU7MbOU4Yf3D/eH9aAO81zQbTWYCs64cD5JQPmT/Ee1eY6ppN1pFwYblCAfuOPuuPUGvYI5UmjWSN1dGGVZTkEVDe6fbajbPb3MSyRt2Pb3HoaYHjJpK1PEOjpot6II7hZ0ZdwIxkc9DzWUaQwNIaKQmgQhppFPNNNADTTSKeaa5CgsxCgdycUAZPibWovD2h3epSkfuYyVB7t2H518j6neS395LczOXkkYszHqSa9m+PHiuGS0tNGsrhZAzGWYo2RxwB/OvD2OTVIRLaHFwnOMnFaEqY7jBrLVtjKR2Na6ssiHnn2qWXEqMMZpoXI5qw6nPSmhc4pMpIYqZ4xUixnkClVQKsRrkfdzUtlqIxICcEc896trasO69fWiJCeuCD2FXI4lDZAUY6kmocjRRI/IO3oDkce9S28TlgAh69OuKmSNS4JYEDnOcVMm1XIGGzxUNmqgEFtgHIJbrt7/AI1P5MgCq0IXI5TPWnL+8bCqMrxjmrEFuwbIQMc529azcjWMLjo4lhUY4HfaM4/GrUHlyAICcE8knA/OpILCdzvdUQtzk9voKsW+n7Ssjgye+eCaylM3jAjYEnajKiqcBlPGPbuas2loXwZQ0m3oD05qzbWbFvNlAd+q5HAFX/sKykO+9iOflrGVTobxpkdvbyuAcHHHBPA/CtWKFvlZlYLwNw6n6022tFHIUpnsDV+OMRr8sTOT3bgZ+lc8pm8YWFSCKJAyKTzkuP6VLDslQJ5T7hyT1ApqEuMSKvvgnkfSpDiEAv8AdwdqL2/rUXNLEyoqsAcAgeuMVLEsl5KYIMEscnH9TVe3L3UqwW0O55ThVbkj3rs9B0WOwizIweU/efHB9h7CvTy3ASxM9fhW55mY4+OGhp8T2/zLOkaXFYQBRjc33mxyT613XhrSxbQtqFxgMwJTd/Cvc1jaBpB1G8Bk3CGLBc46+341seJdSCKLCAgcDzNp6Y6LX1dRLShT0/yPkYttutPUydW1M3900nIhHyxj0FO0WxN9c7nA8qI5bjr7VnrA08gijBYs2ABW9fzJoOmLaQ/NLIDk/wAzWs/dShDdmS95uUjK8Qah9vu/LjP7mHKjHc9zUnhnTReagsjqPLg+c8dT2rOjQSEBQecYA5ya7S0iXw9opd8ebjcR6sei0q0vZwUI7vQdOPPLmlsZPiu7M9ytqpysY+bn+I9azNHs/tl+idUT5mPsKrTyNKzyOzM7HJ9zWzZn+x9EkupDtnn+6O49P8afL7OmorcHLnndmf4ju1udQKqSyw/IADwT3rD0gG71a6uDnbCoiHHU9T/SnXEjIrSfM7+vck1e0axNrbBHOXYl3PqTWOOkqVDkXU1wkXUq83Y0Ihzzkg1YK7eTj8P8/pTUBHHO3OeeKHIA6EY6/wCHt9BzXzx7QZPJP0P+HH8hSHOM8f57f/WFHAByM9v/AK3/ANYUpbJyOex/w4/kKBDTxj9P8P8A6wqC4s0uF4+WTsfWpnAcYzz06/5/KmAsoHeqTsJq5jyRtG5Rxhh2ptal1b/aE3AYdenvWWQVOCMEVpF3MmrBRSUUxBRRSUAGaSlpKANfwneCz1y3LEhJMxt+I4/XFenDA4rxtWZGDKSCDkGvV9Gv/wC09Mt7rjLr8w9D0P60wJ7u3W7tZrdukiFD+IrC8GaOdOspLiUfvZmxyOQoOB/jXR0jnCkigBEJJORwDiqOv6iNL0qe4z823anux6VfXOBnrXC+PdVE1zHp8bArF88mP7x6D8B/OgDkySTk9T1rp/h/biTVZpiP9VFx9Sf/ANdcxXWfDuULf3UZON0QIHrg/wD16QHeUUUUwInuYUcRtLGrnopYA1G2p2Ss6m7twU+8DIOPrWHqngez1C5kuUnlgkkO5v4gT361z2teCLnS7RrqKcXKJy4C4IHrQB02q+M9NsYm8iVbqboqxnjPueleb3NxJdXElxK26SRizH3NMpKAEoxSmkoApZooopDO40b4gWum6Pb2j2crywps+UgKcdDmuX1vWZ9c1B7yYBcjaqA5CKOgqLStLudYvUtLVcu3Unoo9T7V6fpHgrStMiXzIEuphyZJRn8h0FAHlJhlC7jG4X+8VOKbXucixCPZIE2HjBHH0rlvF3g+0urOa+s4lguYlLkJwrgdcj1xQFzzWikzU9nay311FbQruklYKo+tAG/4T8JnXN9zcl0tUO0BeDIfr6V3Vv4T0aGIIdOt29yuT+Zq9penx6XYQWkX3YkC59T3P51bpiPM/GvhaPR2S8sgVtpDtZM52N7e1cqDg5r2jWdPTVNMubRhnzEIX2bsfzrxh1MbsjjDKcEHsaQz26xcy2UDnq0an9K5H4mxg2llJ3EjL+Y/+tXSeH5DLodg7dTAmfyFc98SowNNtn55nx/46aYjz0EqQRwQcg17Pot6NQ0q1ugcmSNS31xz+teL133w31UNDPpsjcofNjB9D1H+fWkNnZzRJcRPDIu5HUqw9Qa8wstMfS/GVvZMf9XcKVJ7r1B/KvU65/WdJD6/pWpouSsnlScdsHafz/nTEb9eWeOXLeJLgHsEH/jor1OvJvGTE+Jb3P8AeUf+OikwOl+Gkmba+jz911b8wf8ACui8Q6wdD05rwQ+dhgu3djrXLfDIjzNQGecJx+ddD4yhM/hu8UDlVD/kwNAHG3nj/V7lh5JitlHZFyT+JrnHZpHLscsxJJ9TTaBycdTQMUV7TYSCWyt3HIaNT+leLYI4IxXrvhqb7RoFg/8A0xVT+HH9KBHKfEqLF1ZTf3o2U/gQf61xlehfEiB3061nABWOUhj3GRx/KvPKAOo8I+LP7HY2t6ztaNypHJjP09DTNf8AGt7qMzx2Ur29p0AXhmHqTXNGkoAcSTzmkzSUUDFzSUmay9b8S6V4egM2o3kcIAyFJ+Y/QUAatZ+q69pmiQmXULyGBR2ZuT+FePeLPjtcTGS20KEQR9PPcZY/Qdq8vvtY1DWrky3NxLPKx5Z2zSuFj2bxD8d7eB2h0Wz89ugllOAfoK4LVvHviDxDNsub51BP+qiO1V/LrXJxLtbZF80h+83pU6zpAshj5EQyW/vOeBRuPYo63d/abxgCSqfIPwrPXk/SlcliT60qqQhJrRkIiPWtGCT5QazqtQPlRUtFRNAgsNy/lTMYxmkhk7GnsoNIsWPn0qyg4AwfwqsoHU8CrUWzjrms5I1iWIQSTtQ5HHSrSxELkoMe9RxFDtAIz/EPWr4eNMcE46egrFs6IxIY4nfkDg/pVyGwRiuX3Z547ULIWAUhQrc4AFWLcRKSC7Dg/drNtm0YotQ2sRxsDEg/MOma0IrcKuUwp9jiqUJ3phCUPer9uecSAnGAGxjisJHRFE8NsIwBgE9CCc4+tWoIhjauW9TjAFNhjDKdzBV9D3+tXY/LjjBZ1U46VhKRvGJNDGcfNxz25q1HbhlJAkYgD2FQQ3kIXAcbRnp39qla9IDO7qoP3RnGaxdzZJF6MIgCsQn+yDzQZwX2IrHPAHTA71nQvOzDK7d3ep/szK2S2GY84JJNTYpltn2DKlVxztHUUwtLK6xwK0ssjBQBySTTY7JYyWmc7W/vdc13vhHw+mkWi63doRcP/wAeUTjpxguR/KuvB4SVeooROTG4uOHpuchdG8NroMSpPh9SmQGZsZEKn/lmP61vWls08iQxKSx+QAc1XR8MXlbLvncTXW+FtNW2gOo3Bwzqduf4V/vV9tGEMLRUY/8ADs+InUniarnLqX3aHw7pSqpBk6A/3n7k+wrkZ5TJIZGP7wnJ9zVrWNVOp3EjAnykyqL6CmaRYtqd2N4/cxjLn19qdGHs4uc9+pNSXM+WOxo6NbR2Fs+p3Hy5HyqfT1H1rBur2W+uXuH+838J7D0rQ8R6mLmYWsJ/cxddvc//AFqo6Tp0mo3iwxthRy7f3FHU1pTVk6s/6RnPpCJs+FtK86T7a4BjQ/ID/E3/ANaovEmrLe3JgRi0EWRn+83c1p65qMekWS2Fr8sjJtAz91fX6muPCyyuqxKzFjgCs6MXUl7WXyNKjUI+zXzNHSLNtSu1DgeTHhnP9KXXtQF9eeVGcRQ8KR0J71o3hXQ9KFrEw+0TD5iOo9T/AErmikjkRR4aSQhR6k1rT9+XP0W3+ZnL3Vyj7a3FxL5xAEcR49Gb/wCt1/KtS2hCjIwff0qJ4UgVbaMh1iXDEdGY/eP5/wAqt26lEXAx7+leDjq/tammyPYwlHkhruxzAx9B3A/z/nNMY7eOhBx6Y/w+g5p555/HOaZhd3IGe3+e3864zqFKgdOM8f8A1uP5CmFSCew6fh6f/WFKzEfd9P8AP/6qax4B5OfX+VAC4GSf0pjZBJ5NDDPI/wD10w8/Nx70APD4A/nVS9tt4MqjDDqPWp1yT8wx+NLyORyPQ007EtXMeirU9oQxKDg84quVI6itU7mTQ2ijFFMQlBpaKYCV1/gPVtryabIeGzJGffuP6/nXIVNZXUljdxXMX34mDD39qQHrpzjjGaazjIHXPNMtLqO9tYriE5SRQwNORTvZmHTgUwK+qagmmafNdyYwg+Uf3j2FeTTSvPK8sjFnclmJ7muj8Z66NQuhZwNmCA8kfxP/AICuawaQCYrc8FzmHxBAoOBIGQ/ln+lYlaPhpymvWJGP9aB+fFAz1eik70tMQU1wrKQwBUjBB6YrI1rxTYaK/lSl5Z8Z8uMcj6+lcfq/jW/1KJ4I1S2hYYbbyxHpmgDDvhEL2cQf6oSNs+meKgpaSgAPWkpaKAKGaBzxRU+nwm4v7aEdZJUUfiRSGereD9BTRdLjLoBdTAPKe49B+FbvTkmgDAx6VxHxJ1S7tUtrOCRo4pgxkKnBbGOPpzTEdsGSReCrKfTkVGQrboWGVI6eo9K8n8KeI5NC1FTJIxtJTtlXk4H94D1FdXffEfTEkRraCedkJ6jaCP8APtRcDiNe08aVrF1ZgHZG52Z/unkfpW78OtN+1au94w+S2Tj/AHjwP0zWP4k10eIL9bsWq25CBCA27dgnnOB613Hw4thFohmHWaViffGAP60hnWdBVWw1Sy1MSG0uY5vLbawU8g0uqT/ZdNupx1jiZh+VeU+EtXOka1DKxPlSHy5Oex7/AIHmmI9fxXkPi2x+weILuMfddvNX6Nz/ADzXr/avNviVCE1e3lH/AC0h5/An/GkwOz8KsX8O6eSc/uQKx/iSpOjQN2FwM/8AfLVpeCnL+GrLJzhSPyY1U+Ice/w8W/uTI38x/WgDzAGr2i6kdJ1S3vFyRG3zAd1PBH5VRooGe5wypPEksbB0cBlYdCDTioPUA4rk/h7q4vNNawkbMtt93PdD0/I8flXW0xBXkfi458SX3OfnA/QV65Xjvidy3iHUCQQfOI5pMDofhm+L29TsY1P612+pwC60+4t8EmWNkGB3IrgvhtIBq9wmeWgz+RFejYxQgOE0r4cs2yTUbjaMZaKPr9M111jounaaoFraQxlejbct+fWrvSql9qlrpsfmXk0cSepPJ9gOppgcB8Q4vL1xH24Dwrz64JrQ0TxpZ6V4fgglDy3Me5RGowMZ4yfxrI8Y+IrXXp4PssThYQR5j8Fs47enFc9mkM09a8QXuuTB7l8Rr92JOFX/ABPvWZSZozQAE0maCaguruCziMtxMkSDks5wKAJ81R1TWbDRbdri/u4reMc5ZsZ+ledeMfjXZaaHttEAuZhwZm+4v09a8Y13xTqfiC5M9/dyTMexPA+gpAeo+MPjk/z22gx7F6ee45/AV5Jqut32sXDXF7cSTyN1ZjVBnLd6dFEZD6DuaBhGjzNgfiatJhVKRnC/xP60nAXapwg6nualtwuPNcYQHCj1NIBJpRaxbF++3X2FRyDZZxoPvSHe307VAQ1zcKmeXbFXrhAznGMD5V+grWlC7M6krGb5Jc4AOScCrN7bG3iC4PpWtomnfaLwMVBSIb2x+lR+IYwLkQrj5B82PU1s4ERmc2RU1ueKbKm00RfKeaxaNUy5GcVYU7qrJ0qeM4qS0Pxg1Ijkd8U0DPQ1IqkkYIqGaIsRSMMYBx7Vcjck4xiq0EZb+LmrsULrjKj3rGTOiCZYhOcHnI4zWhGNy9V9s1Uhj2r93A9KtxqVbGO1YSZ1QLEMcm0sPmIPXtWlZLI64KjIPU8Cs6FXPK9fQjitG3sbhjtaQgHnr0rCbOmCNCJgrYXJY+3FWFBk4XcfVsU60s0TG4oFxgj1NaccUUYDLHnnHoK5ZSR0qJSg04l1kbJbPTpxV+DT4yQXjDn3P8/ep8LnefLDdge/0qdCgXAdQR83yj+tQ5MtRBYFjTaoVFHUk8U9gkGSD8wGRgVBJM7LsCnYDwD1NbnhDwvP4jvk80sIF+8T3Hf8K1w9CdafJEwxGIhRg5zNTwT4aGrSHWtTUrY25yikY8xvT3FdNe3jXs5mkG1Rwq9lFW9WnWMR6dZgJbW4AO3uaqW0b3MqRRKWdyAAvvX2+AwccPT0PiMdi54mpdl7w/pX9p3a7gRDH8zsO/oPxrV8V6p5aDT4MAceZjsOy/hV0mDwxpAUMpmPqPvv3P0FcdJM00paRiSxJYnvWkP30+d7LYyl+7jy9WOiSWaZIohl3IA9K3tTuE0HTEtIDieQct6ep/pTdHtk0uzfUbnglfkX2/xNc9c30moXDzSZy56eg7Vrb2kvJGfwR82RxgyOERTIzHoOpNdxawQ+HNKaSXBlYZYZ+83ZPwrO8J6MFzqEwAAyI89Ae7fSs/xDq/8AaV1tTIt4+Ex/F6ms6j9tP2a2W5cF7OPO93sZ93PNeXEk0rh3Y5O7jH0rZ0C0jtYH1K6XaqAiP6ev+FZ2kacdTuFQjMY5dvb0q94h1BWZbO3YCKLhgO5Hb8K1qO9qUTOP87My9vHvrp55Gxk4C/3RVqwg+z20mouPmGUgB6k92/Cq2m2b6hfLbJwrcu3ZV7mtXWZY/OS1hT5YhgLjlR/9frWGMrKnDlRthqTnLmZRgUtg9/WrsSgP33Go7ZOeO/HWpxknqOB/n/8AVXzj1PcQ1uWGM4Hp39//AK9IRz7U4se/Hr3/AM/0pGAAH8x/n9aAGOBnA+gxTWOTt9u9PYZPTBBxTWyT149aAGFwDjqe+Kj5BJJzipiuWx39qRlwR6HvSAjKEAYI/Go92w4K81Kz7TgE56/SmFlzg9fagLCx4dWx1qJ40kU5GRU8YVc9uM8VE4xIcDn/AD/n8KpMmxVks+MowJ9KrMjIcMCK0yc9Bz6VHIokGGXGKpSJcDPNJUskBQnFRVonchqwlFLRTEdD4b8VnSI/styjSW2cqV+8n+IqXxB4ze+Q21hvhhPDOeGb2HoK5ikNIBDRRRQAlXNFYJq9m2M4mTj8aqYp9tMba4imXqjhvyNAHsdLUcMqTwpKhyrqGX6GpKYHmfjeMJ4glPHzIjfpj+lYNeleJPCia3ItxHN5M6rtyRlWHbPpXIX3g/V7FS32cTIP4oju/TrQBh0U50ZGKspVhwQRgikoAbRiloxQBn1NZXJs7yC5UZMUiuPwOahopDPdre4S6to54juSRQ6+4IzWZ4j8PweIrAQu2yVDuik/un39q5TwP4wjtI49Kv22x5/dTE8L/sn29K79XVsiNlJU8imI8V1bR7zRLo295Htb+Fh91x6g1Sr2vU9MtNbtHtbuLI7E/eQ+oNeS67olxoN81rPhlPMcg6OvrSAzs17F4QgFv4csF9Yt35kn+teOV7X4dQx6FYIe0CfyoQyr4ylMPhm+YHBKBfzYD+teQV6v4/bHhi592jH/AI8K8ooYI9x02b7RYW0uc74lbn3ArhficuL6xf1iYfqP8a7PQCDo1jjP+oT+Vcn8UcY07jnMnPt8tAjf8Ert8M2fPUMf/HjUfjuMyeGrnH8LI3/jwp/gdt3hmz9gw/8AHjT/ABgofw/eoSR+5LYx6EUwPI6M1NZWVzqNwlvaxNLK3RVH6n0FdVqPg620Tw1Pd3rs978oXYflQk9Pf3pDMXwvqn9k63bzltsTN5cn+6f8OD+FewAgjIrwivWfBWr/ANq6JGHbM1v+6fPfHQ/lQgZv15F4xUJ4lvgB1YH/AMdFesXFzDaRNLPKkUa8lnOBXkXibVINY1eW8tldY3CgBwAeBjtQwRL4S1WPSNaiuJ3KQMCkhAzwR/jiuuvviRp0O5bWCa4bsx+VT/X9K83paAOi1Dx3rF9lY5EtU6YhHP5nmsGWaSeQySyPI56s5yTUVFADs0ZpKpajq9jpURlvLmOJR6nmgC9mobq8t7KFprmVIo15LMcV55r3xhs7ZHj0yBpZB0kfhRXk/iTxxqeuSs1zdO4zwo4UfQUrjsereKfjLYacjxaUvnyjjzG4UfT1rx3xH441fxDITd3kjJ1CA4UfhWDNO8hJYk1BkmkAryFuppnWnBc1PDAWOeg7mgCOGDdyeB3qckBeOE9PWhnBdY0Hy5596ZPISfYdKABFa4mWIcZ/ICpbxwCI4/uJwKlsofJtjMw+Z+B9KqztkmgB+mITO8vZFPPueK0Vi3MSB90VHpcBFsuf+WjFvwHH+NaNvaiTAAyzngYr0cNT925xV56nReF9Lji0yS5mwvmsWyQPuL/9euSvFa4mkmbq7Fq9Q8RWI0fw2tup2sypbgcg8DLH/wDVXnz22W2AcngCtYw5rsiUrWRzs1pgoSOGJqgTicgdM11HiG0+xyQxL1RMn61y0gKyg1x1YWZ00pXRbjqZDUMR4qdRWB0InRMjjg1biiPAI4x2FV4uoq/A/GCKzmbQJ7dMMAQfbitGO2k2hsHn8aitXUYG3J7e1acMsYABjOa5JtnbTightTgiQc578VejstqhhyAfu1HDcnGNoxnuBxVvzGIBXaPaudtnVFImjt4wQ+eQOir1q9FHyAowQOQTk1Qt5mBKyH8QatRsxYbyF9gTWUrm0WXkC4IALHvjgGrsbNIu1MqB0yaoxSucKsa4z1Jz+NWo1ydpYMR/dGcVjJG0WT7mAw+wkHOWNTBjt4j46gngVWPyJjbGTjPznHerWl6dLq915cfGR87An5RTpUZVJKMVdsmrVjTi5Sdki5omjz63cfOzmENtO3jJ7KPevXooIvCmjraxBVu5l/h/gH/1v51W8LaNa6Lp4v5YwkMK/ulx1Pr9fSq91cS38zzyZLscgf3R2H5V9pgMDGhHlW/V+fb0R8TjsdLES5noui/X1GKrIoBzk8HFdR4Z02O0gbU7kBCVLJuH3F7t9aytC0k6ldrux9nhx5me/ov41c8Waxlv7Ngfaq4MuDxnso9hXXWk5v2UfmclNKK9o/kZWs6vJqd8XHEKHbGp7D/GpNE0w6jc75B+4jIZjngn0rMs7OW9mWKIZZzwf7vufat7Vb2PRbBNLtm/fMBvYdee/wBTWs/dSpw3M17z55FXxDq32yY2kDAQxcDHRjUWg6Q2pXYj6Rp80rDsPb3rOtYWuJkgjBaRztAxyTXcokHhjR8YDSnGfV5P8BUVZeygqcN2VTj7SXNLYg8Tamtlbixt/lYqA20fcTstclsaWRUUMZGIwB39KkmnknuHkkJZnJJPrW34fsVhibUro/IoJjz6dz/hThFUKfmEm6kiaVl8PaQI48faZQenr6/hXOYDruJJJHI7mrOp37X920jnbzhR6DtXKeKfG9r4VAVAs2olSYYcZVT0DP7e3fFOP7uDnLcT9+SjE2PF/jaLwBoy2dqguPEGoKPLiI3CJDwC39B3q1odrc29jAl1M9xdbd00rnJdzyx/MmvIfAlpeeKvGzajqMz3X2djcyzyHPmSdF5/XHtXuFunAbHPTIFeDiqrk9ep7GHpqK0LUKBVA6HingY+Ue5wD2/z3pVTaM8Hg/5/+vS7SehI/DnP+Pt2rjOojIUZHUYHb/P5fnQp5xu6/wCf8mnsMnkDp1zxj/PfvQVznjpjj/638hQAwgDOAP8A9f8An8aaqgDcTkHnr6f569qlXOMsOnv/AF/maGUDIx168flx/IfnQFxgXaM+o/DB/wA/U0ySNeSM8HHPt/n6Cpgeuc9znP8AX+Z/KoXICE4yR7YoArORuOAT29aQBS3OP8aa58x89akiiLHcFH+FSUSom0ndwuAcGqkzbWwc5H+f6GrPluzOQenGMYGB/wDrqCYFW3SZXv7ev9DVdCeo1ZSQNw/H/P40/cSOBkY7VC6snzAkgdcd/wDOP1pYnDDaDj6/5+v50rhYa/zZOCRVd4SScDmryPg4YAcf5/z7UkmM5AyD6D/PtTTsJozGUqcEUmKvOm4YIyPWqzw4Py/rWsZrqZuDIaKUjHB60mKogSjFLSUAFJS0UAeleFtai1PTo4twFzCoR0J5OO4rZV+PmG0149DNJbyrLC7I6nIZTgiun07x7dQAJexLcKP41+Vv8DQB3tFYNn4z0i6wGma3Y9pVx+o4rYhu4LkZgnilGM/IwNMClq/h2w1hD58QWXHEqDDD/H8a8z1TTpdKvpbSbBZDwf7w7GvWp7iO2iaWZxHGoyWY4ArzDxPqMWqaxLcQMWiACKcYzikBk0lLRTAzQaWm5pc0hhXVeF/Gs2lOtvflprboH6vGP6j2rlaKAPd4J4ruBJoXWSNxlWB4IrK8S6DFrlk0LKPMAzE+PuN/ge9cX4E8Uf2ZcDTrok287jYxP+rY/wBDxXpvUUxHhE8EltNJDMhSSNirKeoNezeHJBLoVg47wJ/KuO+I+ibJI9WhQBXxHNj+92P9PwFdB4AuvtHhqBM5aFmjP55H6EUgF8fR7/C90f7rI3/j4ryavZPFkRm8OagoGT5RP5c/0rxtVLsFHUnAoYz2nw6f+JJYZ6/Z0/lXI/FFv3unJx92Q/8AoNdvYQfZrSGHp5cap+Qrzz4lT79Xgi/55xZ/M/8A1qBHU+AGJ8MwZPR3H/j1bWo2f2+wuLQsF86No9xGcZGM1hfD3A8NRYOf3j59ua6RnC9T16CmBnaH4fs9BtRDbruc/flb7zn/AA9qqeOITN4ZvMdUCv8Akwq9qWsWelRCW+uVgXqEzlm/CuE1/wAfzajHLa2luiW0ilGMoyzA/wAqAORrd8MeKJPDrXA8rzo5l+7nGHHQ/SsKikMu6lq99q0xlvLh5Ochc/Kv0HaqlJRQAtFFNeRIkLyOFUdSeKAHVynir4g2Hh4m3iH2m7I4jQ8A+9Z3jjxwtvCLPSrhWkf78i/wj2rzCRyWaR2LO3JZjkmk2NI3dQ+IHiG8kMjXf2VO0cQ6fjXL6rrNzeOZLq4llY/3myaZcTnJA61l3B3ZJqR2Kl5dPKcE4X0FZ75Jq1KOagKUwZDto2VMU4p0cG45PSgVhkUO7noB1NOlfA2rwBUr8fKBgVA9ADIP9aeegNT2tmbiYbvu55plmu+R/pite3jEcRP4A0BYrXpGdq9BxWZKpZwo6k4rQuOc1BYRiW/XIOEy35VUVd2FJ2Nu2tRsK9kXbwK6jwdpK32v2yPvaOHMrgjsoz/PFZtlaYsw5JTe/XHYcn+ld78NtKSY3t665VisYO3IA+836AV7KjyUzy+bmqGd46uPNvbezAwIE3OO+9uT+mK56w08z6jACvCtuJx2Fal/IdQ1G5vD1mlZh7DPH6VbsYRa6fe3p6om1c+p/wAit4U7RRnKd5HDeIV+16nIVzyxUfQcVx95GUUMeMnFeiafp5u7iWRx8kETSMfw4/WuD1lNgQfU/rXn4qNrs7MOyG3OatqKz7Z8YrQQ5ArgO+KJ46twnsc1Uj61chzgetRI0iX7dyvcEVqRSkgc4rGjODyRVqJ2GdpFc043OunKxsqxJDHAHqOKuxs4J4JJ96xYZQ7c8ex9avxFuCCc1zyidMZGnCyt95f++fSrqAjGwsM8ZxmqVsSAARgnjpmtCHG3BO4nuornkdUC3ECwAK7ge54p6MFBwjAjtjrUSlt2APl6ng1Jb2819OsFsm+QkADNRGLk7IuUlFXZPZWcmpXSW1uN0rHgHsO5PoK9W8IeGEXZaRD90uGmkxgt/wDrrJ8OeHV0lFijXzbufAdsd/Qe1d7dCPQtOSwgIM8ozIw64/zxX1uAwH1aPNL43+CPkcxx/wBZlyx+BfiVtav0upFghAFvAcDA4JHBNUba2kupkhgH7xzgD+tRSMAny/56V1Gg6fHo+nNqV7hZWQHkcqvp9TXqTkqUNNzy4xdSRYvZ4fDWkrBCwM7AhSR1bu/4dBXDvI7ku5yzde9XtQ1B9TummfODwqdlHYCtPw/pIdvt11gRRcjPcjv+FTTSowcpbsJv2kuWOxY0+GPw/pj3two8+QfKnTHoK5u7LXUzzyOZHY5IPBrR13UTqM5Iz5KcKvt607w5pR1O7+dSIIyGc9z6LVQfJF1J7il7zUImt4U0hLKBtTugEYqSm7+BO7f4Via5rD6pds4YiFMrEM9B7+ua3PFOqYU2EAIC4MoXt6L9BXMLC9xII4QHkYgD3qKEXJutPrt5Iqq1FeziWtH059TuQnKxqdz+wrV8Q6hGVFjCQI04bBxz6fhUt3MnhzTRBFg3MvJPv61xHiHxHb6Fp8l5dfvJDxFEDzM3YU0+d+0ey2FblXKt2VvF3iSDwzp5clZbqUEQRk859T7DNeJX19PdTve3UjTXDnezPxk+mO1W9X1a61i+lvb2UtJLz7Ko6BfQDms+C2m1XUrayiL+ZPKqAjnaSf6Dn8K48TX53boddGlybnsfwj0kWfhtZpBiS8kMvTnb0H4cH869GhUBMenrWRpFpHaW8NrCgSOJQiAdgBgf59624s4JUHr6c/5/lXizleVz04RtGw7JXBw3X26/4/yp4wCRxz3z2/w/nTGHJJCgdfUY/wA/nS9WAOQxOe2Qf8f0FSWKxxkHOenTkH/P5U3PygnHTr0GP8PfvSsqlcDpjn0x/h/OlCgA88+3XP8Aj/KgQmSV+ZRnI/P6f07UKFGABxyfbHf/APX3pN4I5xg56dAP8P507PU479SPy/H27UANf5QSuBjt0/z9KryEeVgYwefWppGGOxz+X+f51TnYsOSCenFA0RAknd+PJFXITnHRcCqkalUyTx39v89auxKscLsewwPlz+n+fepRRDG/LHP3iT1/r/n2NBlV2+7n17/5/wA9KhkcFQM9B2/z/n0qJJScdB0PXt/nv+o6U7k2LPkDPBIz2xwarS2zxtvQcjsOQw5/wFWYZvlzj24P+f8APpVgEMOPxzQBScGRMpjJ68f59aiV2DkcjPTH+f8AaFXZIihJVcH0/IVUkXapK8jGRj/PsKGNDgiy4bOCe3b2/mKjCgj5Dz6dqbgo2Uz1+mOT/wDWpwK3A4+VjyD+f+IpXCwySEHkrx+tV5ISnI5FXo9yk5yQehP+fpSMoyc4Ge2K0UrEONzNoqea3wNy8+1QYrRO5k1YKSlpMUxCUUYoNACU5HeM5RmU+oOKSg0ASS3VxMu2WeWRR2ZyRUNLSUAJRS0YoAp6bYyanfwWcX3pnCZx09T+Fev2XhfSLK1SBbGCQKu0s6As3uTXGfDHT1m1C5vXXPkIFT2Ld/yH616TQBwHjPwnpOm6bJe2ytbSKRtXdlXJPTB5zjn8K4Kuz+JuqGa/g05G+SBfMf8A3j0/T+dcXmgYoNew+DtTk1XQbeaZt0qZjc+pHf8ALFeO16X8MGJ0i6XPAn4/75FCA6PWtOGqaXdWbYzKhCn0bt+tcj8MrzY19p8hw4IkVT+R/pXeY5ryGO9PhzxdLOvKQ3DqwHdCef0NAj1m7t1u7Wa3b7sqFD+IxXlmjeFb8+IorS4tpFSCQNJIVO3aOeD716lFdRzQJcxN5kMihgy88HvT1mSTGw7vcdqYDl6ZFeReNbn7V4kuzxhCIx+A/wAc16vf3cdhYz3Un3IULn8BXiFzO11cSzvy0rlz9Sc0mNHdeBdet7TR5rWWaOBonMheZgF2nGMDqTweKqat8QJMSw6Xvy3BuZfvf8BXoBXGUUAS3FxNdSmWeV5ZG6s5yTUdJRmgB1FJRQAvSlpKjubmO0geeVgqIMkmgBLu8hsYGnuJAiKMkk15T4t8Wz65KYomaO1Q4Cg/e+tHijxJca5dMoYpbIflUd/euedepNS2UkV3GBnHNUbhzmrkpJ68VTdcg8UiipJjFUpl3GtBkXrVaVeTQDM2VKhKY61dlXmo0h53N0piIEgzy3SnnCjPQVKwzUMg3H2oAgc7jxUUnA96nZcCmwwmeZVA4zzQIsaZaMkZdxgueBV+fhQo9KkRctx0FNlXJoAzbgYBzVnw9amR5ZdudxCDHf1/pUF4MAjvXbeAbG0h1Sya/eKK2tx5spdgoJA3Y+pxiujDRvO76GNeVo2XUsatatYuLNtqtbxrGQP77ct+Izj8K9FtrVfD3w/V/L2zSQjaxX+KU9j/ALtcYbGfVtSjll4N3PvI3d2b0/GvQPiPGLXTrCxiAw8pOAD91FCjivZnB3jHueXCatKSPP7e3CoMgcDrW54jsFsPB0A24kncMfxyf6CqllbGedIiPvsF/M4rpfH8SmK1tB9wKTjP4CuqXYwj3OFigFh4NvrvA8y6cQKfQDr/ADNeV+IU2PGnov8AWvXY7Oe88P31rGCyW0iz4HYHINeUeJo2F6ylcbRivKxitH5nqYPV/IwojitKA5UGs5FrQssmvKZ6EEWkGMVaiJNRiIgVPEvTpUNmqRYQHHHbr71YjDYUgcVHEh/CrKgg8f8A66ykzaKJ4SQDkflWjak8Dlh9aoRYOOOv6VoWaAde1YTOiBqWyjGeg7kmtCPerdVAxxgc5qnbqBg4BIPc1qW1u97KlvChkkcgBQOfyrmabdkdaaSux9pbXOoXCW9su52OABx+ft716H4f8PW+hwlmPmXTj5nx09hSeHvDqaRAC6gyv984xnjoPauu8OaW2q3hkkU/Z4uWP94+lfUZbl0cPH21X4vy/wCCfLZlmUq8vY0vh/M0dAsU0qzbVLoYdl/dr7e31rLmuZbqeSZzksee/WtPXr83k4giI8iI4BHQn1/pWdb2st1cpBB8zSnaP9kev4V6tPrUluzypfyo0fDmlf2ldi4nUeRCRwf4n7D/ABqTxJqf26ZraFswxHnB+8/c/Qdq1NVu4tA0qOytg3mSAqCOoHdj/SuVgLvJtUsSxxjHJ9v8+tZU71Je1e3QufuR5Fv1JtH0g39yEIIReWYDjH+Namv6gsMa6bajbGgG/H8hWgxj0DTCuQLiT9G/wFctOSzMS2WY5ODyKcH7WXM9lsJ+5G3VkcMM15cRww/M7nAUev8AhXayND4Z0kIrAyHgZ/jf1+gqt4a0pdOtTf3B2O65XcOETufqawta1FtRu2YDEa8RoeML/jUTft58i+FFRXs48z3ZWlfzXLsWL8kn1rb0WyisLZtTuQF4Plg9QP8AE1m6JpZ1G6UOD5KfMx/p+NWfEurQgPEZFjtrcZdj93gf0rSo7v2a+ZEFZczMLxFrsNtFcalfSeWqDPPr2UDua8M13xBP4g1CS8uPlAO2KPqEHoP55q9418VT+Jb4JGGjsYiRCjdHPTeff+Vc4WG07hnb2Pv/AJH51y1q1/djsjqpU+X3nuxkjhwTjb7jngdq7r4ReHftt/LrcyfLbExw913Ecn8AR+dcB/rJERVYluAn97npx7/zr6H8G6Mug6BZ2KKN6IGkOPvOeWP55rz687I6qUbuxvx4TG0YPYAd/arkOAMkduR6j/P51WjXuG+v1qyvCdenTn/P51wnaSYy3GQ2e3X/AD79qTgnGABjv0xn+X86dtyM456Hjt9P5CkAO4E9e31/z37UCEy3OMkj065/x/lTRgZ449uBj/D+dObk5GNv6EfT0/nR+fPTPXP+P6CgY3v37/X/APX/ACpeeBj5evT/ADx/OlyOxAGOMDj/APV/OmtkAqWGep5/z/8AWoAjk69TnGCc1VnbHyj5qsBVUH8apy4aUqMke1JjJEHGQeevWrU5K2oX5ssQCBxgf57VBApJzjgnP+f8+9T3nOxRtJAz15H/ANb69aEDMu4bO75c8/5/z1psQA5GTz1/r/nn1BpbtWCH0P8An/OahV2UjjI4B/yf5dfQ0hovRN0AxjsP8/8A6vpVuPKg8YGeTWbGcYPIGeT3z6/55+tX7Vt6gY/w/wA/546U0Jkol3ABu1RSw78MCOwPoenX8qsPGrDII+lRIpQ9M5NMRQJ2MAeCMdPw/wADTGGVxnawGfxwf8K1HiSQFCAN3bH4f5/yKqzWpzlc4Pr68/n1qWikyJXBYh+g6H/P0FOb7vPzKc8jtUUbbSB1IOefqv8AjUiN5XRsj6duP/r00xNEW3DDByKbJbBhngE96sNslxxtbuR0/wA/4UgDISD+NNOxLRnPG0ZwwplabIko7fSqctvsPGSK0UjNwK+KCKcRg4PakqyBKSlpDQAUlLRQAmKKWk5oA7L4WxY029lx96YL+S//AF67auF+FlyptL62z8yyLJj2Ix/Su5zTA8W8U3Ru/EN/IegmZB9F4/pWXVzW1K61fqeouZP/AEI1SpDFr074aW7R6JJMeBLMSB6gAD/GvMkRpHVEBZmIAA6k17Z4fsDpmjWlqyhXjjG8f7R5P60IGaGa8Y8VKF8R6gB/z2Nex3NxHa28k8rbY41LMfQCvDtQumvr64umzmWRn59zQwR0vg/xmdGAsr3c9mT8rDkxf4iu9g8S6NcEiPUrYkc8uB/OvFaWgLHd+O/FtveW/wDZmnyiVGIaWVTwcfwj1rhaBRQAUtJS0AFFFFABS0lLQAVwnjzxCJV/s63bIU/Ow7n0rqPEOqLpenO4Yea/yoPevJrqRppmZmLc5J9TUyZSRXI45NRMevepmwBzUMhA6VBRUl+biqsv91fxq46kiozF6CgZQaI+9QyRZ+taLJ6VC0e3J7+tUIzWg7sPwqCQHtV+YZzjpVZoyx6UCKmOcYphTOasNES3uamjtcYMg/CmBRS1Mp5+VfX1qxBEEJ2rgDgVZfA4A56U6CLcwGOBSESRw7Y845qKVMcmtDyyBmq1yNoLYoGZcMaXGqW0DkBXlUHP1rY1d2k1Kw0+FRiWYCR1kzn5ugA6dK5bUbhopg6NhlOQR2IrqPC0w1nW7CZ48t8zjA7gHP68124Wz93vY5MRde8eo+CtMS98VW+9dy24888E/dGR+uK1/HNw1zrwt0Py2sQj4H8R5P8AOtT4V6SWkv8AUZhgArCpORxnc36KKwbpzd6rdXWT+/mdhn3JxXuxXNWfkjyXpSXmTeE9GN3rcHBPlgyMM8cD/HFO8XyC51mSPBJhXyx+HX9TXXfDu0i8q5u5mjiKfLvAPI69Oa5nxZHYvrEz2E3nxZH70/xnqcUKd6rjbYTjaCdyPwTpokXVo5BujeFVJ9Mk14P4zsTDqJySd1fUvgO0SHw7f3ci/wCtkCA+u1Scfma8B8caRLIyyLHkj7pA7ZzjPrXBjY80Zvs0erlz9+Me6Z5j5WBVzTo8vjFWDZk5O2rVhZEOpxXhSnoepCDuWVt8qDihISrDjFa0doDHyOvemNb99prFTOhwIYYM89fpUgjIxn+VWkh4B9qcyYHQ4pNlqJDEnNadtng/nxVeGHPHv6V03hjw3ca/fLbQAhAcvIRxGvcmp5XN8sdy+ZQXNLYfoelXer3C29rE7d3foqD1J7V6loegWXh+1ZsGWUj55ivzN7D0q14e0u3s7VrexjCwRH5pD1c9Mk+p7CtTBafbGCwPAGOTX0WAy2FH356y/I+cx+ZSre5DSP5kdtZz39xFFbqW8zGWByAPrXVajNDomnJp1qcSOMsR1A7k+5qXTtMh8O2b3sgHnSD5kzwPQD+tc5dtLcXMty5JZyD7D2/Ku3m9rLT4V+Z56jyLzZGWIGcbT0FdVoGnx6TZPql3hZGTOSPup6fU1j+HdIGpXu+Vf9HgI3f7R7Cp/Fus+fcCxhYeXGfnx3fHQfSprN1Jeyj8y6fur2j+Rl39/Jql21y3Ic8YPAXsK2vDumgyG/mPyR/cz0z3P4Vk6TZNqEywqMDOWbGMc8mtfxBqSWcSabbfKFA347DsKqp0pQ/pEw/nkZ+t3j312ZMkR42qOuBU/hvSjf3m+YExRYLE9/Razo/MuZUiRQ8jMAFFdlJJF4c0lVDAyngf7bnv+FTWnyRVOG7Kpx5pc0tij4o1Xb/oCEAdZSOmR0WuX2yXMgjhU+YzYUD1pbh5Z5nLsTuOWJ9a6DQbOOytm1G6AAVcIf8AZ9f8KpJUKem4m3UkSXMiaBpS28bD7RIPmYdR6tXhXxA8ZHUC+n2UpNqrbHdT/rT6+44P55rZ+KHxAe+ll0jTZWMkh2XEq9I1/uA/Tqe1eYXgYfKh2qqjC55yf/rY/KuSpU5Vy9XudEKd3f7iucMOTlQSTn26/wCfeomBcqDgEfeA9fWpQdqsJFIbJxnjgdP1x+VVrgKsYA4OcHPr61zPSJ0LVm14E0t9a8U2iFWMUDedIcZAVTwPxb+VfQtp0BC49h0/z/n1rzj4TaHJpdnPcXKlZ7xEkjBHzCLnb/jXpttFt2nGT1x/n/P51w1pXdjqoxsrlpFYDkYHuef8+9SJnGRkHjAx+X/6qSLPTqMDoP8AP4Cnlduc54z1P9f5msTYXn68Edfz/wDrml/i6jGMf4centTc9O3oCP6fyFO5znB75559/wD65oAUfe5y3vn/ADz79qQ4brwB27f/AKvbvQMct2IGM9Mf4e3emFtr9CDyfr/9f1PagQrEEE85znr/AJ/Ooy4PykcjoaVmwORgYqJhuB3Z69vzoGMc5xgDp+lVwP3nA9eKsOSAOcDp+FQDlgccEfX/AD/kUhotQHc4AB5PUc029lC3BUsBgdhj9ep+tSWSkycnOOapXYZpZclwQ3GeTx9P6cigCO4bK7v4cZ9Mf59elV5PljPyjgYIP+f06elTjO3DcDG4En9eP5j8RUMm0NtIwO/br+n9DSGMWQ9GUsPukH/6/wDI/gav2jhsnsffv6/559cis52KgAHjgcd/bn+Rq1ZSg465Jx37e3+SKANcKduQS35dMf5/z0GUP3wRRbtkL6YzkHP+f89DSldjlgcD8KogZ5ZwBkNjrml3dzg8dD/n/P60/KsCCDn19aQxENnnnnI/z/n69QZDNaq6nI5Hvz27/hVZreSLKj5gQeMc9/8A61XT97GM5xwef8/5+lIH65BwP0HT/P8AkUrDuUB8xOB6j0x/ndTg5PUBh2Hp/nIq49vHJyuMgdD1zx/gKgNq0I3dVHTsQP8AIFAEQjB+YYOetI0Oep4P6VKIwMEfh/n8KM4OCMGmiSnNCY+GGQfXtVeSHB+WtYqsq4bt09qpzW/lZIJxTu0TZMzzSVakUE4ZfxxULQnkqQRVqaZLg0R0mKXB70VZAlJilNGDQBc8Aakun+IY0dtsdyphPpk8j9R+tetdq8CR2Rg6MVZTkEdQa9i8KeIotf01GLgXUYCzJ3z6/Q0IbOX+IHhVklbV7KNnWQ5nRRnaf7309a4eKGWd9kUbyP8A3VUk/lXvWRnaetMS2hjcukMaMerKoBNFgucD4H8G3Md4mp6lCYlj+aGNvvFvUjtivQqTPYVma/4itPD9p5s7bpG4jiXq5/oPemIwfiJ4gW1sv7LhbM1wMyY/hT/6/wDjXmmKt6tqc2sX8t7OFV5D0XoB6VUpDFxRSUtABS5pKKAFFHFFFAC0UUUALSMwRSzHCjkk0ornvGOpG1slto2IknbHHp3pAcz411lLy42RklU+VPc9zXLj7tTag5kvCgztj+WoyBjGahmiInUYqJ0wDU5XrUePWkMr7MdetNZcZGMmpyPm5GPSmPgHHegLFd0AqvKBjFW3XuetV5Rnp16UwKLIXbAFRugQ4q6yCOM5696qQA3F0T/CgyaZI+K2VEMpHPao2XIyauzLkbQOBVSVd3yDPvQNldQGJbHHQVfsYON2OtQRwksqAVuW1phB6YpNiSK5iG36dqzdQjKxk9/SujjtcgnAyO/+f51lazEsUZGP0xSTKa0PPdUOJTXRfDW92eIbKCViIy7KPbcpH8653VR++P1pthdvp17FNGSHjIYEdiOa6aUuWSl2OepHmTR9qeEYIdO8CTzDKs8U8p+fkH7qg1wcUSP8u0hge3610Wh+NtL8SfDhbvSpEEpWG2urfA3I45ZsD1rKt4BJhkVW4DDI9a+iwjUlKp3Z4uJTi4w7I6bRIjp3hK6mHy7w7DP5CuSMGcKw5HtXoWpqLLwfbwFRukVFIPvya4mchNo2nkheh/pWlLW78zOorWR2WjwfZfAzucqqRTPnkfOflB/D+deV6rYx3kRjYoJCRsB6ufavZ/EMS2XgcQgKrmCKMAep+Y15SkDvco7oGCOpCkgbj7Z71nh0qkZ32bN6knSnBx3R5bqOhG2uTE8RjcD5gR3zSWuljbwoHvXq/jvw9AVtNVtyGEwKSgDGHHOP1rkoLBAQMADrXxuLTo1HB9D7HDSVeCqLqYgtNgUYxnnmmPafeKr06VvXFouGGDwc/WqBjdNwPANc0ZXN3AzBFtb0PTpThGScEZxWjFYzX0wht4WllY4AUZ5rttE+FF4yi61e4jt4F5ZF5Yj+ldVGhUq/AjlrV6dH42ct4b8J3evzOLYxrGhAd2boD6DvXsWleGrfRtMFhY7d0uPtE/fbxkDvj1NZOp+IPDngHTowZYIY8ZWMcyS9OVXqc+p4ryLxv8V9f8Qie105pdM0thg5f94/GCWI4H0XFe3Qw8MKuaWsjw8RiZ4l8sdInWfFP4q2PhZrXSPDU6XF3by+bNIjkqpHG09jnng9PrXo/wAFvGml+PoHvHkhivbZcyWxPK/7X0r4xvDtkOGL56se9aHhnxPqnhXUY9Q0u6kglXrtYgOPQ+ooeLndp7Mz+rRsrbo+7dX1Bry6JBPkR8KPX3/GqKW7zSxwwrnzWCqqg8Enqa5XwH450/xzocd9A/lzx/LPD1Kt/Ue9en6Pp8VnZPfXXyeYmRkY8tP8TXfKpGnBOPyONQcpNMNRuI/DWjrDbkeewwuP4m7t+FcET9oYYBZ3OcDrWpq2pzX1w0kgBH3UTOSFHSrvhbSo5HOozAeVFnYSO47/AIVVJexg5S3ZNR+0kox2NO1iTw9pRdgPtEo/XHA/CuWmLSSF2LM7ktkn73Na2qX/APad2xBIjThBTdH0ltSvfLkXEKHfI3oM/wBelFP3E5z3CXvNRiavhTSUt4P7RuMg4PlFh90d2/nWXrWojUbzcOIY/lRPQev1ra8TakYYxYwbVOB5gU9F7L/WuXEbSMq7SWJxjHPNRQi5t1Zddi6r5V7OJd0nTvt92q4zEOXI9P8A69c78XvH66LENE0yQC7K/Nt6Rj/H0Fbni7xXa/DnwznKPqdwMQQju3qf9lRXzVd6jPqN7Pf3kzyyzOXdmPLGsK1a75l8v8zWjS0sy1aqGMk8vKqDvxyxJ7fiMjJ9RVecvJkg7ix3Fz3Y9f6UpKizSIMQrku3HYfz7dO4NRSqWHOQ3B78+hrltdnQmQytmRVwHCYHHZR/9fP50lnb/bNUtbVSCJZljwRnOTg/pmmz5VihYALwDx68V6V4G8CxWFpFrF+mb+X5o48f6lfX6kY+lZ1JJalwi3ojv4Yjd2kMtv8ALcWnCqB95OAV/lW7Yypd20c6nKsM4PX15/T+VYels0TDJBIOAO/fH8hWmjpYXayID9luD8xC5CSHnP0OeO2TXnt3O61jVRCCMg56Ek45PXmnuABnJz/nt/IfjRgDAAXHrjI6/wCfqaeScdDn64Of8f5UARICsgxk8+v+fxNO6ZBPbuOPy9PbvSEcbj0Htxj6enp605GJyct1647/AOPv2oED9MA89uec/wCep7VE7YJBGTj8v8//AFzTmIznPb8Py9PbvUOec9R656/5/WgYcHABx9DTmGeMke9B7dRnrSOcDd68YpDIpMYPUY96iiVOQe3f9KkmJ4HB9f8A9dNiAAxnGOeOKQF21yCzNxgHrwOnrWcQW3EADcegH6f55FaEbFYJHHBxxhQT/n+VUAFIA6k8fUj/AD9aYDJEZmBAP9//AOvx/MfiKqyqCwBHTg9O/wDL+Rq4CThhn+9x/j/Uc+oqGZBzgjj36Z/z9DQBmyueR0CnGMf4/wAvyqSznJ+UZ54Hf8Pf+YpLtMK3YEbQP6Y/ofwqC1cgjJAOMHjOf8f51JR0tpINvH1yT2+v9fzq8SGUBuR+tZFnICA27Pfr+v8A9f8AOtKI5Xbj8Mf57f8A1vSrTIZMIwCCuMe9HlNggDj/AD/n/PCKChO0EirAUlRk4qidimyYPAJz+v8An/ORUPJPI4659vX/AD+Y6VdkUYYEcevb/P8AnjrVWR0HAPPYe/8Aj+v1qSkwC4Axwc9D/L/P/wBepwOg6jpUUcgxnP8A+r/P/wCodanDBumM9/b/AD/n1oQiCW23qWjPI7Dv/nmqbqC2SCp6/StIEg5PA9RUciCYY6MOcmmBnhmXgj8aCwYYOOafcQvGSCDj1quNwPOMHoaVwsI6YOFHHp/n8KYQOm0j+v8An+tTKcDLcg+nWmucJxz/AJ/z+lAyuY43ByCfQ9xVeW2ZBuHzL6jtV3cN2CBz6cc/5/mKTJAz979KalYlxTM2jmrkkCyqSg2kfrVbyX/u/rWikmZuLRh1NbXU9nMJraaSGRejI2DUNFUI62w+JGqW6LHdxw3aDqxyr/mOP0rUtviTZKzPPaX2T0UShl/XFefUtAHb6l8TrmaJo7C0WAkYEkjbmH0HSuOury4vpjNdTyTSH+J2yahzRQAtFFWLHTrzU5vJs7eSd++0cD6ntQBXoran8OR2MLtfarZRSqpIgjfzHz2HHFYtABVyz0i/1CKSW0tZZ0iwHKDOM1TrorzUrrQdL06wsp5LeZ0+1TshwSX+6D9B/OgDBkikhcpKjRuOqsMEUyt1PGmrFQl0be8QcYuIVb9atxSeHfEJED239kXr8JJG2Ymb0IPSgDmKM1Y1LTp9KvpbO5XEkZxkdCOxHsarZoAdmvOfEl615r00hb91artX64rvr65W0s5p26IhNeUXF15lhcXJ+9M/9amRUdyhHmR2c8kknmrHlgD61FbISuassMnAqCkVSvOMYpjqA2McVYK98VC5wTj8qRRE3TpUSxEneegq0ke5STS4/dkdKQFKXGMetQeV/FjpVp03PgGpVh6YHAqthPUyrlSqE+1RaZbloy453kkmrl5GsrCJT161ft7dLa2yQAOgFFwMu4j8sAKMsegqsYtgxjnqTWo8O5i5zknpVaSJm6cljimJhplt5jlyPYVvx2xI2AfU+1N0/TxFEoPXFblvaYQFkySM5xUtlRRnvbiGPlQfcHpXK+IJRhlPSuzv0EaEY6+tee+JbkRiRic4BNEQlojjNQIa72jovJqjIf3hNWRk5Y9TzVadSHrpWhzmt4c8Taj4avFu7CdkII3J/C49CO9fQ3gLxnp/i23VrMCO8GPOtBjczeq5PT2r5ns4TPvQDkDNWbG+vtEvUurOaSCaMgq6HBBFdOGxcqLt0Mq+GVVJ9T7g8WvFLa2VsjfOCcqeqkADGPxrl7a2Mt4kfykvIqD5eTzj+uK828LfGqXxbPZ2et7ft0ShI5kkELvz2J4JPocZr2LwWbHV9UtpoLhHSKQSSAn5o8ckMO3SvWpV4OneLPMqUZKeqN34mSJDokVurYaWcBAG6bRj9M1wWiyR2903nW8N5Ep/eb8nJ9R2Brq/HtzMNXs3ZRJKULRQMeApbuR3IFbFimleLbU2k1ulpfqvDJ39we/0NOjL2VJXV11Coueo7PU5nUtFg1jSLh9LkLxgbnt5Pvxn1HsK8zeDynIxtZMnB9q9SltLzw5qqh8LJGchu0in+YrmPFWkoNWF7boFs735vvYELAfMD/P6V4+dYN1FGrDXoezkuMVNypT06nHSDzlBCknpgVpW/ge6azF9qc0OmWWRiSc4LZPZevrWJ4i8SX2iRldJgigRyY1u2O55T/eUHovvXB6v4j8Q6kAL7ULh41xgO/AwMDiuKjlvJrU1OyvmfPpT0PW/+E18J+DrR4tOZPPU4a5uIyXkz3UDr9Disu/+JuueKJvJ0KJrOLoby4xuAP8AdA4H4ZPvXldmkCyLcXTfapOqK7YQH3P9Kvvr+r27ea8ywow+QRxZ4/2eMV68ZSUVGKsjxpJOTlJ3Z091plpbSPeaxey3V2R96Zt0z/QHoK4nXZ453LMQo/hjUcKKrF3vdQVnS5leUgMxb5ic/jT9aiisjEYI/vZPznceKV1FbBZyehjw2B1K6WGIH1JPYU/VrBLMCNB90YJ966jS7T7FYG7nUCaXIA244yOP0NYesgzSOTn6n8f8K82c+aVz2o4ZU6VnuXPhh43k8DeLLPUXUy2iyAXEOeHTvX2hq3jC11zT7ZtMnSa3kRZHZDxkjhfwr4EljMbEj1r2/wCAXjxAzeGtSmRYz89u7HkH0/lXbg5Rc0pfI8nFwai3E90trG41O5UQFvMIAGQDx3/z7V0upXMMFrBp1o21QoLjocehp+nxx6FprXsy/vpR8qk889B/WsCXzDK90SzNM2WJI+U+v0+lenf2kvJfmed8C82OmtZJJEEIO5sbR/SuxRYvDmj73IMoGTj+N/T6CqXhWw3j7bKvAOIuOM9zWf4kuze3YMfEMWQoHf1P41hNurNU+i3Nor2cefqzMeRrqWWWRizsdxLd806TUbXwxpdx4h1Nv3VupEUeeZXxwAPXj+fpUZnt7dJbi6nWC3iRnllY8Io6mvFPH/je48Y6qDGHg023/d2sLcBV7s3+0epq8TU5VyLqKjT5nzMz/Ffie98V6rJql/IDLMMRxqcrGnZV9gP51kxRCTZFhjnkgDnb1P6UgfzGyUZlA5I4xmrNuUjE1yhwq/KinqT1/POK86erO1aIZdzN9oYKq8/KNnQeuPxqFpRsO1Wzgk+/UA/z/SmsvzsoJLAAdfz/AFq/4d0STxHq8dhGW8s5aZwMhUHQ/wAse5qY6JyY3vY1fBPg1teuP7RvI9thE3AA4lYdvp616npxzuR2OQcYParVnaW9pbw2dvGEhjUKFx0AqWW0WNSVyCefz/8A11w1KjkdlOHKTwxCPY2Bxyfbv/Q1owIJka3PRvl98ZI4/wDHfyrOtCW2hj1wce3BP/oRq8oZEBU4Yfzxjj8UrI0J9LndS9jOxaaDDKx43rjg49e2PY1bJAxkr057j/P8zVSeLzBHLCF+0RnchzjcM8rn3DfpVm3uo72JZY888MOhB9CO3+HNMRJjIUtkH9f/ANePypCQF7Afpj/D+dPTkYI7d84//V/Oo3TB4zn6c/8A6/5UAML8+nrx/X/PpUYY5yP1+lOkbncT7fQ02PDMQDgdPSgCQsABk9jx6VCx+U5z/j+FSMu8jJ4HamMoPOcjP5YpAV5FLsAeWFWIY+AePftTNpLYAJPoeavW8QXJYZ9sZ/z/AFoSBsbcgx2jYXIx0/z29u9ZoU9cZ7YPPT/PTqO1XdWmQhYlO7LY55Hr+fT+VVECnAAyTxjH6f8A1uo7UMELtAXcvBJ3df1z/Xr61BMuFxnB6Y4GM/oD+h9qtYIHy89+v65H8/zqMxkk54HT0x/T+hoGZ9xEWQ5xnp+Pp/8AWP4VQUFDk7T79c/5/OtO4wGIPfgDGc+3/wBbr6VmyjLA71I+uf8AP16ikxov2kh2jBIGM5z+v/1/zrZtHBVdynJ4xjof8/ge1YFs4TaxOPXJxj39vr09a2bKQEgfgOMfp/ToaEJm1H8yDGKk24bjpVeCXeo4wOep/wA/56+tWdwx39DWqM2VrlNpznAP+f8AP+RVCUD0wO+OmP5Y/T6VqSp5i7ce4NZ0qsCc9evHf/P+c1MiosYh9uhHBHf/AD+PoTUwbgEHj/P+f8OtQIeikZHp7ev+ePYVMgO3B7f5/wA/oe1IbJg4OAf0/wA/5/mP8pwB7A0Io9cY/wA/5/pSHqeTj/P+f88MRHIMkq3pz7VVktd2SnQ9v8KtnB/iBI6008EnHFIZR8klcjr796hYlTzkfStEpluO/Udeaje33jBIBFAGftznng/54/z2FL93IwD/AJ//AF/nU7W5jPGD6f5/L8qidMg8HGOOf89v5UhiBgQBwcf5/wAP1qQBccMg+p/+tTNo6cZ/zx/MflR5B/55Bv8Aa9fegRyFLTc0tdBgLRSUtABS00Gl7UALXU6Iwv8Awxc6XZ3MdvqBnEm1n2GdMfdB/pXK0tAFy80fULBytzZzxn1KEg/j0NVCCvBGDV2113VLJQtvqFzGo6KJDt/LpVz/AITDVWGJmt5+P+WsCN/SgDFqSe4lupDLNI0jkAZPoBgVrf8ACSRyDFzomlS+6wmM/mppv9raT1OgQ59rh8UAZFXdJ0m51i8S3t0bk/NJj5Yx3JNXk1/ToTui8PWJYdPMdnH5E1DfeJ9SvozCJVtrcjBhtl8tD9QOv40AWvGd/bXurKttIJo7eFIfNH/LQjqawaTNGaAMHxrdC30OVM4MpCV5zfkJp1tGMAs1dZ8SrkrFawjuSxFchdL5klnGOgUsRUS3LjsWLeIrGOtOKgHqcmpFXao45pCMjJqCkRSLk8VBIAhHrVnGcDvUUvDkkUMYxR8vXFQTSAA7Rz6VM/CZ7moYITNLuI+UGgB1vAVUFlPPJp1wwiQ4Iq60RjjJzyR+VZt3lhtAyT0oAp2KGa4kkIzt4Fahi6M2eBwDS2FqtpAoPLHJ/GpyuAWJpklGUYyCOtNsLfzrgjB2r/OnP87knoK2NIsytuHAy8nb1ouG5dsLHztoUcfStlbYIvy9Oue3+fft3qTS7QwxjIGG/H/9f8xV6dAsbEnnOf8A6/8A9fvWbZqlY43XmESlemPavJfFdyWuVt1Oc/M1eo+J5vLDtkBQOfpXjl3K15dTXLfxH5fpW1NGNV9CqEJwMdaiuovm4/L0q/Am5gMEjHpV6w0c3pnm25WIDoO56V1KNznbsZGgkJqUaPgB/lPFdLc6AJjlVHPoP8/56Vyfmm01FXGP3cgP5GvUbJxJGjjGHUHI7/5//WBXPPRnp4OKnFxZwN94duLX5gp9RitrwT8TNb8C6nHcRu00alQ8cjH5kB+6T6e1dZNbxsp46+/+f89+1cV4m0hBIJIu/XinTqtPQeJwS5bxPZ9Z+Ptpc63p19e2itY39suDGcvbEMynjHIzzXoOmarFcrDqGnzrIrAPFLG3UV8cahbvZ3RhfcCg6HtXafDH4kXHhW6FjeSM+lzv86nnymP8Q/rXrYXG2fLPY8LE4S2sd0fZlvc2njTTWt7oJFfQjO70/wBoeo9RXzx8RPHEMGp3OkB2aOzlCh4yHjlYfe/AH+VdH4z8ZDRdA8/TLzbcXv7q3kifnaR8zA/T+YrwfUpfMlKGRm29Tnqa1rt03yU3oZ0Iqa55rU0LzxRPeSN5cSKWOSwXGKuXFvBDpH2i5O64lUALu4BPPTrwP51kaJp6Xd0POdxGq5YDuam1O3t5r1likd40+Xk/mfzrBczep0NxitirEUeUIFBOcDFXtXuvtEiRRrtWJcZ9a1/CeiRy3Ms2zcEXAJHrUMtmbi6lEaEksxwPSujkajds5ubmlaK1KnhmIPqCyEAiJWfJOBwOKi1+MX3iGCzAIChVfBzjPJ/n+lFxrsegm7htwJbuRPLDq3EXPJ9zxWdocr5mvpnLSO20uTkktxk/hu/KvOxFeLVos9bB4WSmnUVjZv7tfMwv3IeFHpyST+jflWFcqDweqgZ9zgZ/9BarctzvjKsu4sRnPXp/9k1PtrVpCHZSzZ5+vP8AUH/vquBHsSjzGHc2WEIxyO/6f0/WqVjezaTqEN3bttlhcOp9xXX3dkkcPyjpwT/X9AfxrkNRj2SHHrWsJHnYmkkj7C8EfEaL4l6BaS7ljvLdAs0Gcnd3au3sLE3skdlGOG5k4yFWviDwJ4zv/Busw3tpOyJuHmJk7WGecivvLwRqul6j4Zh1qyuEljuIxJIytkqeuz9a9WOJ/dWW54kqHv8AkT63f/2RZLZxAAsMKV7R+/ua5tJ1wHbG0DBzVjVGfUp3uGYq56HPQemPpXlnj3xe/nzaNYMyMuTdSKeV9EBHtyfbit4KNKnd7mUm5zstjG+JPjX+1bx9N0+Q/wBnx/M7j/ls/b/gPp69fSuFMg2nPUnoORjqf0p7yb1dhHy56DnA7UxUT5EYFTjHqfX/AArilNybkzrjBJcoglyTxjcc9T1+lWLomKCOHYchNzc+/r9c/kKiSPfPFFtJGdwH4cf0ouGDscnMZYbSM9OgP6VluaEW4iHC8hmwBjkZ/wDrCvYvAOhf2DpStIgFzc4klOOV9F/AfrmuF8A6ENW1j7Y6n7NZMrYx99ycqPoAAa9fiiBOVOQF/XmsMROy5Ea0YXfMWLeNlO889+O3Q1ZeLKAEnI9PbI/pTIo85IxjpjtySP6ip0Oeck5+b730P9TXGdRXMBR9qAj29M5H9RVxHXyi7dTznrjof8aa8BXg8nHr90j/APZpisBLsz8rHHH1P9GFAE8eFzGDjsMjvyP6Cns6QTecgXZLw/faeCDj8RnHoKh3dJO/3uPz/oalhAMjRPgqwwc9AOV/qKAL5+UYDHnn3B/z+VNlf2Bz29v8/nVe1JgKWshYqOY3JzuHofp/jU7bjJ83A6nP60xEM6vtyTjuKWzXzG3457Ul7uVAFH5VYtlENsTIQPr096AIWJ7Hg88/5/z1pIot3zuQo6kkYrG8ReNNG8NQefe3KKSOAxyf0/zmvKNZ+KPiHxZMbLw/byWkAYKLhxliPUDt+NL0B+Z61rXjLRvDyBp7hNw9cE/gK86vPizrPiO9Nn4Z06Vyzf66UFVX2x2/E1m6J8JDqEwv9duZrqUt83mN/PP9eDXoVpo1po0IitIUiAGPlXH4f/WNP1D0H+GrTUYbUNq12bq8bliFwq/7IH9D1roUj45GcjGcZz/n06iqWnvn720dhx19v/rH8K0gBt45/Pn+vH5ikA0ccn6kg/rn/wBm/OmOCXG0HHbA7/T+nQ9qk6nJOAOc56E98/16HuKHG0hQDz8oGP0x/T8qBlC5AAyDu68HkEfzP8xVAqFy+c9+e3vn+v51qzxbl5HXnJPHHQ5/r+dZkqFWwV79MYwf6H9DSGOjX5h1HOMgd/6H26Gr1pNtA7gc9P5D+n5VTUELgAYxjp09sent+VTQko3THvnt657j36igDctpc9+PXd+XPp7/AIGroYk4Pr9KxrWQ7uTz1OeOf6H36GtKE8ZOePTj/OP0+lWmQ0Ww3+0M1BcQh8MO/wDn/P8Ak08Dbzx+P+f8/lTzkgj+X+f8/wAmydjNf5fz/H/9f6/WgMeOBkf5/wAnp6ippVAyp9M/5/z+VV2BU4GSc/jn/P4/WpLJlbGPY9/8/wCfcU/O7tg465/z/n9IUfAHuPTjGf8APt9KkUnnJ+uf8/5/WgBJV46mo8sxyRwTxU4A+6ev+f8AP+eWOo7flQIbtzkA/rSHJ+8AQabu527SMHFOyGX9MGgY7YpAXg5qrJEm4gHHfkf5/wAmps7QTx0xQzK42sOfzouKxRaLaM8/X2/yP0o/djr5oPcDoKsPbNjcG69P/wBX1/rTRDOBgSAD0x0pDOGpaTtRmugwFopM0ZoAWikzRmgB1Ga17TXrO2gEbaFYTEDBd9xJPr1pf7b0xsb/AA7aH/dmkX+tAGPRmtn+1tCY5bw7t/3bxx/Sj7b4dbrpF6v+7d5/mtAGNmitk3nhrtpV/wD+BQ/+JqS2l0S7mEVtoN/PIeiLdZJ/JaAMLNLmuzTQ9Bib/iaWh0xMZw9+Hk/74C5rJ1keFlsnGkveNchwFMv3Svc0AYWaKbmigDz34iHzdSij67UBrCiRZb8H/nnGBkVf8b3mfEbDPCqFxVLT8t5rAD5m7VnLc0jsXTjbk9+9NZAV4p4jweaXZxgdagorunYelQMo2nJ5FW5gVyepqpPwvI60wKrkyMEAq7bwhFA9PWo7ODkyMvJ6VaZSF+UHIFAENzLgcHGKpWsZupzgdOM068kYKcYz0rU0qzS3twp5c/MaBDHjUDAzgCq1wTwO3pWpJGMHIHNZ0qbpcgcdBTEyO3tjO6oAcsea67T7PBUEZwMfWs3SbIKwdlOcccd66rTLYEjOA30/z+VRJlwRbtrY7RkJ93jn0/z9RVfUwY4mLHJx0FbKxBFJbHTgg/5/P86wtdlKwuwYgep71JZ5L8RNS8i0aEHEsx29c8d689iiOAnXOBXQeNL86lrzRqw8uEbRj1HX/PtWWi7cscDYCc12U42Rxzd2RWseZ2XqCeOe1dRpUaWvh2/lX/j4mlESjP3QF5P64rB0S3eafcBnr7YrrtO08jRWbhlkdmB9e39K7cLT55WOXET5UeWX0ZiuWB9a73w5frcafaksNwwpyehHH+f51yfiC18q8JHTPWpdD1KW0iZEBO1wyfXvXJXhZtHo4GtZ+p6a2QjYODg5Pf8Az/nkVzGsPG9wke4Fd3PPSsqbUtQvv9bK+3so4A/AU3ynOAScd8muZKx7DqcyskVfEFtLfalPNAm5Gb5SDwRWeujXYAyEH1at9IuQGOfc05kGSM5+gq1Utoc08JGcnJ9Sxa3Rj0+3t55ZpGt4yka9VXJycVSIEj5k8wgnJwOtThR0H3f5VIIkOcgkjt3rX6zNEf2fSZv+HtV8OadZlbu3vpLg7zkICpOPlHXNVLWbSQ2N8iZ/vxmqSQLtXjnHJ7fSr0NqijcyhlHUnt/n3/OqWNqJaB/ZVFu7udPpWuabYW0kUV1CBLy3Y4GfX2rP8Qaslroc7WiqgICrjuTgdfpzVRLSE7dyDJGceo/n/Oiezs5oWSWMNHkZCk8fl/UVhOtOp8bud1LDU6S/dxSZ5+UyCckt1PNaMR8q3ihUBurNjr6Y/L+das2gWMkhNnerGw/hlII9uRz+lNtNAubfdJcwvj+8nzBemPy6/wDAaV0YqlJMbZWbStvOC2eMe/OfzK/99VtQ26wR5UkD+E9wOOf0X8qpw3MStlnCluW9vb9f/HRUsuoefII4syyt2HJJpqLk7IuVSMI3bIdSlUKwUEEj5Qvc9hXI6naTeYS6FPavaPDHgZlsJ9b1dRiMERpjgVxeu6W00sjlMM5Jx6V6dLASUby3PncVmSnLlhsechSGxXpfwm+K174L1GOxuLl20qVv3kJPGexHoa5q78Ny2lgbyRGUNyue/pWNpulTajfrbqMDOWb0FYpSpyuibxnHU+vPGnxEtNL0SKTS545ru+jzCQQfLX+8fz4HqPavHHd1tJWdy8srEuzZLE9yf/HvzFULaAwxwwRhvlGxe5ParN7J5cgiXOI14OOT6H8sVrUque5EKajsVo90kgOMBRn2GBUglB3bzhicZI55HP5U0A+XuPBzjBOOByf1xTQCqhSCzt0XHJY/5/Wo+zYvS5djcC3kmK7WfCAHpjp/if8AgNRQwSXtxHbQqWklYKg6ZJ6fpTrliPJhBI8sZ56bvUfz/Gu3+GWhKRJq8yfNkxwA5PGOWz79PwPrWUpKKuVFX0Ox8MaAmi6bb2ICsy/NI687nJyTn07fTFdBCjRcE4Xjr+HH86bYoQrMRgkZBzz3P9KszISQoJwQRkDjuP8ACuCTu7s7YqysJyiDjJIzx26f/Emp4kAwQDjpnHuR/hTY0DDIHQ+vHXP9TUigqMtgnGAOmD/+taQx5kDfNg7TyR+TY/nVW4jYA7CTtOPT26/gtWONx+b7xzkjqM/4NScKgKknIz+gP8waAIrabdJycjr19/8ABqsKN45PBG0e3b+YFV3hKE54HP5dP6inQSeZgZGTwfx4/mKAL8TfaCIzlHPOf7uc/wAiCPxqZYhEAhyuMYPbFUVYgEqAjHlSeMZ5/mDV25l+12zxwyhJSGCE9Ac8ZH/AhTEynqmpWWkW5uby5jhiQFiZGAAH+f1ryrxB8Sde12Zrfw9alLYEqt3Ip+b3A7DqMmtqPwHqGsXRn8R3TXTpyIs4iT6D06c9RXXWfhi00+NfLjVSOhAGfy6f0NFu4X7Hj2mfDe91O7a91ieW6nJyWlY5B9Oeh9jxXo+jeG7PSY1WOJVKe2Mf4fQ8Gt1oFiwIwuQNo7/ln/0E1EjAbehx8oI/pn/0E0XCxLGqgADAA6YGNvtg9PoeDVe7QeX8o4xjGP05/katJyuMEMeOR27j/wCsfwqrcgn5Qc/w9zn8O/0PIpDK9pPtl5OATjHt6e/0NbcUmUwcEH8c/wD6vzHvXOEkSAnnPHrn/H+YrWs5SygEjJGAOvT+f8xSQ2jSj9fxznv65/r09aVoyB93HGMY/T/63UdqSAAcgnB56/r/APX/ADqyFyCuPb8v8/h24qiSpLnHBJ759/XPr+hrKlXDYOMj5QAP8/l+VbhjJBOffp/n/wCvWbdRAEkYxjpnt/h79RSY0Vol4PoPXnOP6e/UU4hl5Gcgg9ADn/H9DTC7IxwpyT0z3/kD79DU24FAOAT7fnx/NfypDH2r4xjpyMBe30/mvbtWpbTHbngYwchu3bn+R/A1jxnaxPGMA9eo7c/+zfnV+3bJwR+nX149fbvTQmasb7lx2Hfpx/n8vpUg5x2/SqSuvBDDAwev9f6/gam8zcnPT/D+X+e1Vciw6VSeQOR/n/P+RVdlPPTHt/L/AD+FWck9Tx9P8/5/A1AUBBHX2/z/AJ9fWhjRCNwGfTnPv3P/ANf86eAR0OMdO3+fw/D0poB5547/AIfr+PUd8ipY8LGM9/68/wCcfhSGAAY8fh+X+f6elKeBjnGPwoB645z3/wA/5+hpMBh05HPH+f8AP14piEZc5Hb+lQ4KnIzjHSpeuMf5/wA/59grk4PBApDIWXnHOSSAKQDqRzUoQseeQDx2pr4Ax1NAAuCAeMZ4p370dN/4IaTdnkkHH9KXd/sk/gf8aAPOs0U2jNbmA6ipbKyudSuFtrSFppmyQi9eKvP4X12M/NpN5+EZP8qAMzNGa1YfCeuzyiNdKugT3dNoH4nitIfD/U4Ar3mVB/ht42lf9OP1oA5jNGa6oeGJLb/U6BqF43964kWNf++VOf1qvMniGwBMOjNYKvO6G1yR/wACOT+tAGZa6FqV4nmRWrrEOskhCJ+bYFWF0mwgP+naxAp7x26GVvz4X9az726u7mXfeyzSSespJP61XzQBsG80O1BFvp8924PD3UuF/wC+V/xpJfE2omIw27xWUR422iCPP1I5P51kZozQA4sWYsxJJ6k9TRmm5ozQA7NBPFNzUV1KIbaWQnhVJoA8k8VTrc63cyA9HxVzRoSLVT1zzk1zt9dNJeyN18yQn866uwBEKr7YrJs1iiwE3DntTHHUjrU2Md6rznaakorSMR948VW2+dMB/COtPlcscLySelWIIRGvuKZLBFzkLgU6YeXFknnHNTKhRd2DzVa+YhCM80hmfFGbq7VQPlQ7jXRRWW1FZuN3vVDQbMvIXIwW5/Ct64x5execcUAZV5tTO3GOlQ2tuXYdzU9yoaUDGMGtPSbQOxLKMY4p7CtdlywtflQbSexrprK23EDC4x6f0/p1rPs4FVhtByOMf/W/pXQ2sSquTk/4f4fqKzNUiG5O1eA2Pr/n/wCvXCeONXXTtLuJsjgYHuewrtdWnSFTk9Tnk14d8WtbMskenxMSF+d+epPQfzNXBXZE3ZHAW4M8jyuSzsxJJH+e9WZ0WOykY9WIWnWkHlxLgDNJrKmJYoeh+8fxru2Rx9S9ocflWMkzAZPyrXoFnprJoFrGqnzHjHy47nmuI0aDeIoiiuCMkZ9RXvXh/RU+xC9uFCw26bUyOMgdfwr0sAklKTODGatRPAviDo66XAikfvSct9e9c1p0GyBSw5PJrt/iJINTv5Zc5iDYQe1cui8YA7dq4cfpOx6eWR5o8zHRjJ44qTOF5/OhVIHAA9aUqCSQeteee2gBycdOKcNowcZNNVSBk8A9PWp1hZunI70DTERDxnJzVuGEEhipwfx//XTbeIsRkbv6/wCNaEMGD6Dvj+v/ANfFBogjhUYJ4AOMn1/z64q6kYzuHU9B3/D/AOtmhIehx856ep/z+NOyApXGT/EoHP4//XWpsaKVh2BjaEGT6c5+ox/MVSuXR4yWxgdzyB+PP8xTrmUbMA7gOoGCFP6j/wBBrLvNSywO4HAwCefy5/k1NDbstTP1B93O5h6ZJ5/Mn+dU7bVr2zb/AEed0HoOAfr606aVpSR2PX1rT8O+Fb/xRqkNhYQlpZWCj0Uep9vWt4QuedWq8vvJ2K8d/e6oRCYo5Xc7QdgzXr/gD4dR6ZaJdXkK/bZ2yF/uZ6Ctbwp8MtP0G4Dttmkjbb5hH3z3I9uv4V6P4e01rrUgduI4AGOP73avdw2GjQXtHufN4zGzxD5Ohh+K7GOw0qDS0CjA3yYHX/Jrz6Lwy2sanDaRqMO3zN6L1J/KvRvEkqXF/K+MruwPoOKm8GaSoN3qUiiONF8tTjPHVj+Q/WuuUuSld7nCo81SyPJPiZpUVuYdPgRQsaB22j8FH4DH51xml6fHpycp80h3E4+oA/Q11njTVhrGu3bxcIsp5I6tnAHHYf0rmnYSSk42g42468V5daSWiPQpRb1ZfstkjmSUYRBng+v/ANbJpoIleRmVWZmJyDjr2x7UinybEnDAscbtuBg//W/nUUHDgscjqcHHY4rltc6B8hVSFXLbfXjHc/59qntFElwN42eX8xJPI9/8+lV85YMcbl4BznJz1/P+dSASLZyPI2JJjznv6f8As36U5bi6FrTNMl8QapHZxJtMj5Yg8In/ANYcfjXuOk2ENvaRW0KLGiJtRQMADFcf8PfDY0yx+2SIRc3IU5x91ey/1rvbYcKM+g6fT/GuKtUu7I66ULK7J4k2uAMjJ6Ht1H9RVpsqgwD8vzH8gf6VFHGCu7b8wHH5D/4mpwjAhs8fd9+uP5NWBqxYUw2Dx/Cf1Xj8xQ394dQAeenY/wCNIW+Qldx4zj8Af5qakC5DqoOQDj6Zx/7MKAILq4iswUkOXKnainJY9P6LUhfOGbILDI4wcdf5E/lWKxmSUrPKFumTeXIwVXHO0dx1z3qzDqeJDDdHY6vt3spUE44B9OMnPfFSn3Lcexq7FaMrJ0AwT69j/SqrRFXGSc/qCeP5inpOx+VyRk8k+nT+RBqwg81c5+Yc4/z7rVECxlXRHOcDnj0yG/qahmZonURkAgg8eg//AGajuD9mkJAPltkZ9OuP0Ip0BNwyuWzuPP4n/wCyoA00kDvlRke3bk8/p+tFwcgrgdwBjj8u/wBPxFQqfL+YAcYPH/ASf5mpcC4g+UAMMcEZGff8jzVEmbMSR7n8cj+v86pg5fcDneMHnOcfz+nWrdzuXcDkk8nPf3Pr9RVR0IYnI5w3TOf8fqKkonDAHsVIwD1z/j9OoqK5+fPOC3QjJyPX3/mKkjDFCxPv6/j7/Uc1BefKDkn1P/18fzFJgUZN0khPbGeefxJ7/XrVy1JCkd+pz/8AW/mKqxSZ5A2g9SRj/P1q4h2k5YgDqScf/q/lQhs1bN9wyxOeDn0/z69D3q/FwMcj+mP8/h9Ky7F9wxxkfgR/n8jWpGM/UenqP1/qPpVIhgR2+vH/ANb/AD6iqdzCDzg9jjI/n6+/fvWkibwDjp2P+f8APb0qOaHjlR9f8/5NOwJmBLDgg5AHI4Hbvx/T8qYG5wT8pwfvH8Of5HtV27jIJORjjvx/+r0PbvVNvvcBgQT25B78evqO/apKQ9cs2ApzuI6YOf8AH26GrEBChcAEAc+hAP54/UVVUhlJ4HHTsR/h+oqzA7CXGWDE9O+f/iv5ikhlv14Oc4PTOT/X9CKsxuMc4Hfg4x/9b0P4GqxbI3ALgDv0xn+X8jT0Yn1LZx0/zz6jvVElvkL7D/8AV/n/AApr9QSOfb/P+e/FIshZfTof/wBR/wA+hpwOO3bI/l/n06HimIjbC/QDPX0/z+HuKUAKANuR0xj9P/rfiKVgRnHbnHpj+X9PpTGUBeg446Y/l/L8RSGBAYZHf6HP+f1+tOxn349fwPX/AD6+tIfxP1weD/j+v1pQcE8gD6/4/wCexoAO2D9Dn/Pr/nvSEcZAyc/55/z/AIuIOMAcn9P8j/JFJjA4PP8A9b/P/wBcUAIABz0pGVTnIycf5/z/ACoHy47n/P8An+XpTsAgY4zj8fT/AD+WKAGlewHGen+f8/zpwJA+8n5CgP8AKPQ/4/5/+saaXQkks4Ppkf4UAea5ozSUlbmBJHLJE26N2QkYypwcVb07XL/S7kT285LAEYk+dSPoauf2Ta/8Ih/ap80XP2vyQc/KVxnpWJQBoXuvapqEplub64dv98gD6AcVVN3cN1nmP1c1DRmgCTzpB/y0f/vo1Zt9Y1G1OYL65j/3ZTiqVGaANpfF+tqMNfGQekqK/wDMUv8AwlmoN/rIrCQf7VpH/QViZozQBtjxM5+/pekuPe2A/lR/wk3rpGkf+A//ANesTNLmgDcTxLEP9Zoekv8ASIj+tJe+IoLu1lgXRdNgaQYEkSEMn05rFUF2Cjkk4HNWNQsLjSrySzulCTREBgCCBkZ6j60AQZrO8QzeTot2/TEZq/mud8d3PkeHp+cbsCgDypAJNQijIz82a7a0UBAK5DRIxcakH/urXbQphRuxk+1YyNojpAF7VmXsmG65APar9w+1TkcVjzBriUIp+tJDY+2jLSeYe3SrMC+ZKSeQDSMFjTAOOMVatovKQZzk84pk7ku1RHyMViXzGSTbk5JArYuXABAPOPWs60i+0XwJ5VP50IbN3Q7MxRFyDnpRcOys7HIA5/GteONLawAPDelYd4xZSD1z0z1pAQQRPPLuxnnNdPZW22AEDGflGKztMs8RLxznJro7S3AAUDIJx/n/AApSY4os6bb85PzZHp+n/wBatdsRRfe5PPr/AJ+v51FYwnp2z9QR/wDW/MVLeHZGd3b0/wA//rqSzk/ENyY4pZS2I0Uuc8cAc18661evrety3Dn777iPQdhXrvxT19dP0hrZD+9uiV47KOv9BXjthGWmeQ11UI9TmrS1sadlAJJkjA4Pfr9az9VZZ9TwMYB/lW1bCOKCWYkgp90e9c9kSaiBnHt+NdEjBHaeDtPfUdZ06zRMvNKOR1Hc/oK928aXKaNosWlwH5mUB/8Ad7/ma8w+DtrEfFn2lseXY20kzNjgEjH9TXU+KtQa+mluXI+Y8A9hXq4KGmux5+Kl7x434yuQL5bdP4fmb8elY0J4wRyak1W4F9qVxPnIeQ4+g4FESYUYHFeLianPUcj6PBUfZ01ElCEjgD60bR+H1qUrlQOMU0KM4b8q5jusIqluOM5/KtG3t8qpPHbp0/D/ACarwxD5fU1rQW7cdOFx05x/n6ihmkYjEtgQSex5/wDr/wD16sxxDOBncBxjv9PX9aUjIzjBBwDnp+Of5EUO3lsCT970HLfhjn8j9aLlcoHOxlUYPOR7+/Bx+KiqtxOmFyQwXrjkD8eR/Ko7ifEbZUkDsTnH8wP/AB2sW7vCzdc+nX+ec/qaFqEmok97fAMARvx0ycj8Of5Gsti1w5OT+dN3NKxOSfWt7w14au9euxBbKcD7744FdVGi5OyR5+JxSgrt6FXTNMa4lWNI2lkboor6f+Gvw+XwN4Sk1S/iUareR4yOsQbhVH0HJ9zWJ8MPhtZQ6lbsyCRI23szD72Op6dO1eo+M7ra1vaAgBVMrbe+eB/KvShh1CcYdep4NXFOqnLocmWCJ5arg9Oa6XSohpXh2W4YbZJMkdzzwK5y2D3U8cEQBZ225bnvXQ+KJ0gtoLFSFwu4j2HA/rXfVV2odzgp9ZHG3KNK+AM88ADOah+IviVPBvhKHQrSXbql7H84U8woxyxPoT90fj6Uap4jtfDlv/aNxH5vkkGOMHHmv2X6ccn0BrxXW9Zvdd1SfUL2UyXF1Juck8DPQD0A7e1c+Oqu6po3wkNHNkZlRIMbcMwJA9ewz+tRwwF2RSc7iBnGAKbcZZQAS2Tz3yO1T2AYeZK5K7R0zjk+n4A150n0O1IkvpIxIqKCuwcjpk+n4DA/Cqqkxhye/Zh2H+R+dEiuSSyglvm5/wAaSQ5ZVIzjHynvjr/P9KI9x26D0QuFHAZvXrXTeGNHbWdZgg2f6NZhZJCRwT/CPxxn6Vz1sDJOGaT7o4AwcMTgfzr2PwPoP9j6V++UefL+9lPX5scD6AYH4VjVqWWhdOF2dDDCUwMnAOcY68j/AArQii2RlRwR059v/rVDGm5mIIHpx2Oaup94OVG0c9eOx/kTXCdg44VhgALnH6/4NSbzgovcf0/xWkcELtJxx6exH9BT0AAJIB57emc/yagBSm47s/Lz37Z/wanROdgJBBIOT6/KR/NaYuWiKjjjk+hxj+a1IpHA/h3Z/wDHgf8A2agBZ7ZLxMB/LdSWjkUco2Qf69O9chq+nXVyDcWUITULVtvlTOFjmGSPJOP4STlWxwc812CFowc5OR/Qj+gqC/slvEM8XlidQcbydsi9dreo5P0pNdRxfRnLeGvEK6laMZhJaTW7NFPbTcy2zZxhh1K8kj1yK6qOYoVLY65OD2yDke3JrjvEGg3N5IdQ06U2mr248pmLD98vURSnuDj5WOBggYpfD+vq09xp8yuk9o2yaNsg25OOeeqEH9PfNLbVFWvozrbtt9uA2GOc49On/wATTLJPJQ4PA5Bzkf5+Wo5WaVNychs4AOe55/8AHqsWbB41BA9SDzxnB/nVIlqxaJDOQGAB+XH5r/hSwy+VuKE8nf8AXo2P/QqrszICT1x19yOP1X9aUTqR0HB4HtkH+TGgRNPb+cu9MErwV6ZPIyD2PT86yZQRKB8vHUEYP/1vqK2rcle/I4Pvzj+gNR6hYLcASxL86jp6/T/PamIzjIQvOcZye3P9Pr0qvMd0eGPI5yeOf6H+dOBwMHORx9D6c9PoeKgmlBwMH/D29vpUlEUfysd2MdMDjH+fyqaNt5CqCMkj0x/h9OlUkkYNsHY7eRVuE4cZ6Hjgf5/I0Aa1qrKF7Dp/n/Cr0b44zjp/n/PIqlBnaAOeOPcf1Ht1FTLIVG7rkj347c/yPbvVEmkj5YKDz9f8/wD1/rU7rkdev+f8/wCNZ0UvPJORn2/T+Y/EVejmLp1zwP8APv8A5700Jop3MO4YIzn+f+J/I/WsiREDHB44OckjH+H6it+4TcoJxt/z/wDr/UVm3cD8kA5z+P8A+v8AmKTQ0yhFjeAd+STgnHX+Wf0NTRgKc5UAAZyOMf4fqKiXHAYKFxgdcY/w/lVhDyw+Yc84PfH/AKF/MVJROoOw4zn068/4/wAxT0cKnQfQ8DH19PQ9qagAXAIIwOgwMf4Z/I0o3Dg53EHg+v8Aj6jvTETxuCcjnk59fy9fUd+tS79rEjIJxjBz/wDr9vXpVVMZPpgew9vw9D2qZW547E5GPz4/mPxFMRKTkrjHr/n/AB7dDTGGQR0H5d/88dqC43Ywc+nf/wCvx+f1pdwx1+XsQccfX+v4GgAUcYOeT0Pr/n8D9aXIxn15yD/X+v4GmDDHAwODxjGPXj+n4ipMEggbsg9eM/8A68fnQAIcEduPTp/n07duKVvXrzj1/wA/h9RTRhScc8jpx9Pp7ehp3tjge2P8/wBOtADSATwM/wCf8/8A66U9j1J/z/n1+tBP/wCoj88/59xSE4znt26/5/yRQAp5GeB75/z/AJ4NJ5gHG/GO25hj8KGIzkdT+OfT/PemeYPUf9/MfpQB5pSUd6K3MToYZDL4EuIyeIb9WA/3kx/SuezXX+C4kn0u9jlRZENzBlWGQfvdq1bnS7ATSAWNqBn/AJ5L/hQI86ozXf3GmWKwkiytgdh6RL6/Sue1e1giiYpBEhz/AAqBQBg5ozTXOCccUgJ9aBj80ZqIk56mpkGRzQAmaXNMk4c44puTnrQBbs0E13BGejyKv5kVf8VSmXxHqLM24+ewz7A4H8qq6KAdRssjP+kxj9RS62c6zff9fEn/AKEaAKdcf8SptukxR5+/JXX1wnxQ/wCPa0/36QHL+FI8STOf72K7CNSU3jOa5nwp/qZP9811EP8AqmrF7m0TP1CbYnPUVWtAdpc8Fqfq3+pP1pE4gT6UxMXaZHRSD1rVEZUDnpWZAf3v41rTfdX6UMImZduMkDg1f8O2O8h8ZZmyfYVl3J/eiuq8PACLIAzgUC6jr5ipw2CVHSsSJWursKOin9a1NROA2PWqeijMuTyd1IZ0mm2rAKPwOK2IIg3ABx0/z/h1FVLAAJHx6itKAAqMjOYifyJqGWi/aJiMHJHfJP65/r+dZmtXgijI3gDB4rSjJ8sHJzhDn3I5rkvFjEWUxBOfLb+RoBnhvxA8QDW9YcKP3MWY0x3x3/Osuwh2LyARjnPeqV5/rz/vVr2QG9BgYwvH4V6MVZHDJk9+yJaLGpHPPPaufsEL6nkc47+lbutfeI7Dp+ZrH0rm5lprcXQ9L+HF08d5qSoCFa3RDj03Z/pVzx1qhs9Kn2nDOuxfqay/hwSZdRyf4kH6GqnxLZilqMnG8nr7V66lyYVyW+p58IqpilFnERxk84P4CrqADtUFn/n8xUzE/Pyen9a+bZ9fBaC5DMR+tTQwMzDnrUaD94B71dsgGeIEAg5zmg1SLENrjHIx6juf8/Q1ejXaMscbecY6f5/D61AjHy4jk5LEH3HHFTycG7xxsX5f9n6elI0XYbLKEXcQOfQ8fnnn8zVG6u8ZU5HfBH9Mf+y0TkqtuQSC7YYj+L6+tULkf6Rcr/Ci5Udl6dKAbsQXd5uPynOOgz/9f+RH0rNZmlbAzSykkg5OTnJ9eakswPN6dq6KUE2cNeq0rnSeDPBV34mvlgjUxwr80spHCr/j6V7xo3h6w0K2FlbRBFQbWPdj3Gf5+9ZfwijQaA7BFBMy5OOvymupsAGT5ufkB5r6HDUYwWh8lia8qstTtPAtgIree8A2+Y3loQM4HU1zev6n/amp3MgYld2xcenSuy0slPDMe35f9HlPHHNec2vM0mf7xqMP71Wc2FX3YRijovCFmGvjIy/LCmcn1P8Ak1leKtXQ3t1OzqsMXBZugC966HwqANNvCBg72H6V5V4/dho0Q3HD3Uatz94c8GtHK0pz7ImKuox7nBeLdcm1m/BH+qQHYnXA98d856Vj26iRi65XAIz6E56frUl8Tluf4B/IUkYBjBIyTn/0GvJ53OTk9z0lFRjZELZLblG7PGB6D/8AVVpy8Gnhc/NMfmz1AI6fltqsoG0cfwip7skyAkknH9DWbeo0yL/lr3KICxwcduKjKqzD5hheM56n/wDXU1uBuHA58vP5ioo+SpPPNN7DW51vw98OnWNUS6Yf6NbsJWJHDN2H6n9K9ojixGFUjOOP8/jXF/C5Qvh2EgAEhuR/vCu4i5Cf5/u1wVZNyOqkrK5NDjYpHBHJGO3ymppcIBGMnt9eo/wpLYfe/wA/wmmXBPmdT/kiszUkODhyPfg/Q/1NIiZXC98gfkR/QVFF/qx/uf8AspqeAfvW+v8A7PQBJGwySAOucegyD/U09U2xhsZJGPqcEf0FQ/wj/rl/7LVhe/sf/ZqYEe/nJXIBLfTkH+RNKpHypkDHA9e6/wCFNPQ/5/hNKDh898/+zCkBDeadHehbhSsd2q8ORncNudrDuuR9fSueu9HOoyqYpH03UoHKLNjKnjiOT++jDBHJI55BHPWwcomf7v8A8VWPrHy3sjLwzRW4JHUjeP8AE/nSfcqOuhzFr4kiTUpLKBJ7O+gm8u5tHYMMqMErjkr3HHQ12FlL9oUSKMLIobp6jv8AiBWD4jVV8R3MiqA62eAwHIGD3rd0ni1twO0HHtwKdrPQV7xuX5MeWTg5wW5/76/xrPI2ScjIHp6Zx/IitaUAOOP87mrJk5Azz8p6/ShiRdtJGdOCQ7dSe2Rj+YFXbcHeT/D1x+v9SKo6UTuf/fP/AKEKtykqBtJH3en0FCEzP12zMMnnK3yyZ+UYyD/X6Vzc85bJU5x3/wA9vaui1FmeHDMWGG4Jz2rlJj8491H9aRRZg42sQfm/HNaES72D8djgDPH9R+oqlAck/wC7n+dX4CVE5BxgKRjsc9aANe3RfLxtBPGecfr/ACb86r3WYjwTxzgj8+PX1H4ir0YG7GOPNUY+q81SuyWsmJOT5Wcn1B4NMSI4LsHvkHC/e/Ln+RrRt7rDdePy4+n8x2PNc+gH2qUdvMYfht6Vq2PMQY8nMXP1PNCGzawGU9R/T/P/ANf1qrcoNhJIx78fX8P5dRT4OEXHv/6EKc/+oP8Aug/+P4/lVEGRIuNx2tuz2Izn/H+YogbKkHAXGMnpj/D+VSXIAGABj96MfTpUds7GXO453Rnr64zUlFxAd3Q8Zz3/AMn+YprgYAJGMevGO34eh7UEbUOOMB8Y9m4o6yYPP70j8CpzQAI7Hvnk5wMHPfj19R361MuNvJIyOMH8uf5H8DVONj5IOTnys5/4FVvA3uMDG9h+G0HFAEgGB/D6fh9PT+RoHXHOc+nOf8cfmKcn+pJ77Yzn39agUnB5P3X/AEPFMRPtx0OR2wfy/wDrH8KfjGFzjHJyOo/w9R260w8tz64/NadGTwc87Yz+OaYC7TkHPr/n8vzFLnjI6+3P+fb1FK/GccYVuns3FI4wZMdg/wDIUgG5yMHGT0P8v64/KmE/d5GMdOg/+tz+RoU5Xnn5h+q80g6L/vJ+vWgBd2eCCD9Pz4/mPxFKHYDiOYj2UH9abGSVUnrsz+O6opEXe3yjqe1IZ//Z;flipH=1;" parent="1" vertex="1">
          <mxGeometry x="90" y="210" width="90" height="90" as="geometry" />
        </mxCell>
        <mxCell id="jxB2_oSXEbl3HwbQnMSM-4" style="edgeStyle=orthogonalEdgeStyle;rounded=0;orthogonalLoop=1;jettySize=auto;html=1;exitX=0;exitY=0.75;exitDx=0;exitDy=0;entryX=0.011;entryY=0.689;entryDx=0;entryDy=0;entryPerimeter=0;" parent="1" source="jxB2_oSXEbl3HwbQnMSM-13" target="jxB2_oSXEbl3HwbQnMSM-3" edge="1">
          <mxGeometry relative="1" as="geometry">
            <mxPoint x="230" y="281.875" as="sourcePoint" />
          </mxGeometry>
        </mxCell>
        <mxCell id="jxB2_oSXEbl3HwbQnMSM-5" value="OK" style="edgeLabel;html=1;align=center;verticalAlign=middle;resizable=0;points=[];" parent="jxB2_oSXEbl3HwbQnMSM-4" vertex="1" connectable="0">
          <mxGeometry x="-0.07" y="-1" relative="1" as="geometry">
            <mxPoint as="offset" />
          </mxGeometry>
        </mxCell>
        <mxCell id="jxB2_oSXEbl3HwbQnMSM-28" style="edgeStyle=orthogonalEdgeStyle;rounded=0;orthogonalLoop=1;jettySize=auto;html=1;" parent="1" source="jxB2_oSXEbl3HwbQnMSM-13" target="jxB2_oSXEbl3HwbQnMSM-27" edge="1">
          <mxGeometry relative="1" as="geometry">
            <Array as="points" />
          </mxGeometry>
        </mxCell>
        <mxCell id="jxB2_oSXEbl3HwbQnMSM-34" value="Write&lt;br&gt;order" style="edgeLabel;html=1;align=center;verticalAlign=middle;resizable=0;points=[];" parent="jxB2_oSXEbl3HwbQnMSM-28" vertex="1" connectable="0">
          <mxGeometry x="-0.1" y="2" relative="1" as="geometry">
            <mxPoint as="offset" />
          </mxGeometry>
        </mxCell>
        <mxCell id="jxB2_oSXEbl3HwbQnMSM-13" value="Order Service" style="rounded=1;whiteSpace=wrap;html=1;" parent="1" vertex="1">
          <mxGeometry x="310" y="220" width="140" height="70" as="geometry" />
        </mxCell>
        <mxCell id="jxB2_oSXEbl3HwbQnMSM-30" style="edgeStyle=orthogonalEdgeStyle;rounded=0;orthogonalLoop=1;jettySize=auto;html=1;" parent="1" source="jxB2_oSXEbl3HwbQnMSM-17" target="jxB2_oSXEbl3HwbQnMSM-27" edge="1">
          <mxGeometry relative="1" as="geometry">
            <mxPoint x="611" y="359" as="sourcePoint" />
            <Array as="points">
              <mxPoint x="570" y="330" />
              <mxPoint x="570" y="330" />
            </Array>
          </mxGeometry>
        </mxCell>
        <mxCell id="jxB2_oSXEbl3HwbQnMSM-32" value="Read&lt;br&gt;order" style="edgeLabel;html=1;align=center;verticalAlign=middle;resizable=0;points=[];" parent="jxB2_oSXEbl3HwbQnMSM-30" vertex="1" connectable="0">
          <mxGeometry x="-0.3889" y="-3" relative="1" as="geometry">
            <mxPoint x="-3" y="-16" as="offset" />
          </mxGeometry>
        </mxCell>
        <mxCell id="jxB2_oSXEbl3HwbQnMSM-17" value="Billing Service" style="rounded=1;whiteSpace=wrap;html=1;" parent="1" vertex="1">
          <mxGeometry x="540.97" y="380" width="140" height="70" as="geometry" />
        </mxCell>
        <mxCell id="jxB2_oSXEbl3HwbQnMSM-29" style="edgeStyle=orthogonalEdgeStyle;rounded=0;orthogonalLoop=1;jettySize=auto;html=1;entryX=0.75;entryY=0;entryDx=0;entryDy=0;" parent="1" source="jxB2_oSXEbl3HwbQnMSM-25" target="jxB2_oSXEbl3HwbQnMSM-27" edge="1">
          <mxGeometry relative="1" as="geometry" />
        </mxCell>
        <mxCell id="jxB2_oSXEbl3HwbQnMSM-31" value="Read&lt;br&gt;payment event&lt;br&gt;with user email, data" style="edgeLabel;html=1;align=center;verticalAlign=middle;resizable=0;points=[];" parent="jxB2_oSXEbl3HwbQnMSM-29" vertex="1" connectable="0">
          <mxGeometry x="-0.4815" y="-3" relative="1" as="geometry">
            <mxPoint x="3" y="6" as="offset" />
          </mxGeometry>
        </mxCell>
        <mxCell id="jxB2_oSXEbl3HwbQnMSM-25" value="Notification Service" style="rounded=1;whiteSpace=wrap;html=1;" parent="1" vertex="1">
          <mxGeometry x="660" y="50" width="140" height="70" as="geometry" />
        </mxCell>
        <mxCell id="jxB2_oSXEbl3HwbQnMSM-27" value="" style="shape=image;verticalLabelPosition=bottom;labelBackgroundColor=#ffffff;verticalAlign=top;aspect=fixed;imageAspect=0;image=data:image/png,iVBORw0KGgoAAAANSUhEUgAAApgAAAFxCAYAAADXktgeAAAi50lEQVR42uzdTXIbR74v7LSOB++sMXxnjV6B4dmdCV6BoeEdGVrBgVYgaAVUrwD0CiivANQKSK8A9AqAXoFusE/yXgRbokCw/lmZVc8TUWF3dBhEFbKqfvn9KgEAQIcETAAABEwAAARMAAAETAAAEDABABAwAQAQMAEAQMAEAEDABABAwAQAQMAEAAABEwAAARMAAAETAAAETAAABEwAAARMAAAQMAEAEDABABAwAQAQMAEAQMAEAEDABABAwAQAAAETAAABEwAAARMAAARMAAAETAAABEwAAARMAAAQMAEAEDABABAwAQBAwAQAQMAEAEDABAAAARMAAAETAAABEwAAARMAAARMAAAETAAABupHl+BJs5TS5Oh/3+UDAAAB85umKaV5/ufr/M/pCf/dbQ6bf+Z/v04pHVxOAIBxWqSULlJKu5TSlw6Pm5TS+sSACgBA46Y5/HUdKp8Km8tHXewAAAwkWG4KhcqvHfscbAVNAADBMiRoAgDQoFUOdF8qPHZ5UhEAAA2YppS2lQbLx8eFbnMAgLotKm61fGoi0MxPBwBQn3VjwfLx2MyFnxAAoB6bhsPl8bH0UwIACJdCJgCAcClkAgAwnnApZAIA9GA18HD5MPHH7HIAgALmIwiXxwuyWycTACDQJIeuLyM6rvzsAABxrkYWLo3HBAAINB9puHwYj6mrHABoxn818j23Iw5Z/19K6f9PKf2huAIAdGM14tbL42OqKAAAdGNfuDt6k8c9fmuZoHkOvaXHhG4UBQCAl1sWXBLonMk0k5TSumAI1ooJAPBCuwItlqsOvud90LzQigkAULfomeM3AbvlLIJbM80oBwB4gU1wuIwKarPgkGldTACAM+0Dw2W0yJBpdx8AgDMsBrC/9yywFRMAgGeKmjAzL3we64GcBwBA824GNAM7Yib8WhEBAHieiFa/vmZfR6zluVVEAABONx/g+pG7gOWKAACq9KrC7xSxW80/ez6nTx1/3sR6mACAgNlfwDyklG57PqffAz5zpvgCAALmaf7W8efdVnBOt4oaACBg9qfrlrnPlZzXdeXXCQBgsAGT0xiDCQAImD25ruR73CluAICASZe0OAIAAuZAzAVMAAABc4i6DpgHlxQAEDBP0/Ws79eVnFfXs74tfQQACJg9mfsOAADjDpgRLXOLns/p14DPvFZ8AQBOM0spfen4uOr5nPYdn89eMQEAeJ4vAce0p3NZBpzLVhEBAHie7UBC2SSg9fL+WCsiAECtap3kE7F/+LyHsZjvg9a/NP4SAOCZZkHd5PuA5YK+ZRl4DgAAnGEXFNBuCuyqExWQ74+NogEAcJ6LwJB2EzjpZx407vLhWCgaAADniWwFfOhq7noB9FXwd94pFgBA7X6s+Lvd5sksUbvgTPLM8o8ppQ8v3Nt7lltco3fs+b3hsjbJ1+n+Gv3taCzs5OjfD0cL7d//+58ppbt8mNgEAHRiGdwieNyaeXFGt/k8j4n8UuiYNPb7LfL12XW41NSq4EQtAGCgdgUD3MP4zIscjuZHofOh9W3ZcWga2uSeh9C9LzBcYNXjAvoAQMMWhYNcjce+gSC17CF0H4dvrZoAwLNsRx4w14LlyXvOa9EEAE4yG3G43FU69nKWhxPUeM0uGhyvCgD0YD3SgDmv7HeYBK9R2mUwn7ttAIDvuRlZuLyo7PrPGvwNLtw2AMBTpgVmJ9dy3FR27ZcNX/utLnMA4CmLkcwarykQrQYS2M00BwC+aTnwcFlTENq4tgDAWFyY1CNcCpkAgAD09LGs6NquDEEAAMZqpVWtc8uRTKISMgGAJwPRvuGF1GsKl7MRzdTfuHUAgO8Fo11jAeeqsla0yQjXGl26dQCA7wWki0a6xFcVXr+LEe6UtLd/OQBwinnFrZnbSgPNfMT7vW/dMgDAqdYVjSesfW/smxEHzC95AX8AgJNMctDc9ThbufZxfsuRh8uHCgAA0IEfRna+90Hq1wKtVYeU0qeU0u8ppesGrsuucLf9Xb4uf6aUbh/9f9N8vO6hxfdtSunSYwEAOMc0T7K56rALfZeXvVk0tr7isvCyQM9ZkmmSf6edVkwAoDUXIx6/tyu0HNO0gyC8t2wRANCK9YD2D3+OeYElgLoM35McVs0oBwAEzEptgic3TSv9vb53WBcTAF7glUswalFd+7cppV/yZJ6ogPm2wesCAAImgw+XEZORDimlN/mfkS4DZ3z/pngAgIDJ870O+ty3gS2XX/tbtwGfO2tsJQAAEDCpQsS40U/5KOltQ9cHAARMBmvyzPUoT/Wuh3O5Deoqf62YAICAyekiwuVlwa7xxz40co0AQMBEwHyG33s8n7uArnkBEwDO9KNLMEqTgIDX957rfwQs6g6MuyI+yeviHq+N+3j4zG1Pw4NAwKQ6XY8vvK7gnCK+w7yScwPiw+Q8PxunejBAwKQOf1XwHe78DCfrcjvMd0FLRUG0eV7zdt7D7l3Ljtfb/cXPiYDJEF1X9D0sL3Tai7UrhhLQmvtw977nLWGnnlUImAAwjIrVpudgCaNhFjkAQzbJwXIrXEI5WjABGKr7QHll0g4ImLT7EK+Blwhw/DzYGicM/dBFThd+quA7TLxIgKPnwZVnAgiYfddy/97BZ7Q0tqfrJX1qmA0Z8R0svwNtujLeEvo1xi7y+dGCul2Fkot8HPJSOZ/z1oW1rs34V0BIn/Z8vr8GfObBIwKas7IEEFDKIs8i3KeUvhQ8djl4ziq8Hl2f66rH85kE/LY3A74furxOXuTUZNLDc/6cjQvWHX8HoKBpvol3hR82TwWWZSVjgmZBYbovy4Dz2QiYAibN2fTwbBcwYUTBclNJqPzasc8Pl76D5n4grZiToErESsAUMNF6KWACtQfL2oLmVdA5lR5Yvw76fWYCpoBJU5Y9PcsFTBhwrfWioWD5tVDWR2vZqqKH7bnmgb9JEjAFTJpyU2hM/eposuj8zMqogAmVW/TUJRI1RnNW+NpFnUuJ8YuzwN9+I2AKmDTX0BDZQtl1ORcwoeKHydVAguXjY13g2pUYSrBpNFx+yeFbwBQwaaux4UtDY7EFTKjQrKKZ4ZE15knQQ61ki+8m4DzmweewG8E9JGAyNOvGJvoJmFCZ5cCD5eNxgLMOQ1lfoXzXUQgpNdZ2LWAKmDRn29hYcgETKrIZUbg8PpYvuGbTgAdv6XFMk8Itr1MBU8CkOTeNlWsBE4TLJkNmzTPrH2Zizr8TjPvYfWkzkvtJwESZ7neYjIAJwmVzIXPV2Mz6fW7d3FbQ2jr1MhYwGX2ZvhAw4eV+rPi7TXLgmPmZ/m/Qfp1SevuN/39e6b7np/zONYSUjymlO8UMmtP1RMK/XFJ4uVcVf7cr4fI/LL/SkjnN10oYP98hpfTBZYAmdf3cu3VJ4eVqbcHc6Hp78trc+5S7w9+7JC/2NodMAGCgAXP1wpnTYwmZ70c0ZjDSp3wAAAMNmPNCA6yHQLh8ubsnxrRCLSYndAMfdO1CqNkJ433vjOWvM2A+bP8IJdy/kN/oGqfCSvb98VOuRM7OqDTdH59TStf5AJ6XReb53nt9YrB87DYff+Z7UOWvZ1tLETkaWcC+dZYpqsc0Dwu6CizrVwMv7/MGy7Rliuoyy72nN4HrP29MxO3HSuCpbjH0ReDNJlwKmOe0KkSWx9JDc5Y9VKr3+TynPVb+1z2W1chdysYSMGeB6yzvCw/9muTssevh/bocQSWqmuboWhcGv3m0CPh+BPufrwq+1IVLAfNUVwPYwelh29NdBffB5hndfgKmgBkdLks+m6eVbODynKApYJ5pU1GYXOcLPznhRlvk1oDdQILXxTfOe0ghU7hsM2BuBhAu1xVWUB9XKAVMAbOvHoTliILl17LHXMCsf+zMOTWIVQfN8rMe9s3u8uE4PeHhctV4y6xw2WbAvGg8XM4bqIR+7xkgYI47YA4hXK4beD+vBcxubRtomj6nC2zf0DjLPh+Kpc7TwOo2A+YyuNVgEvxSvmqsEjYXMAXMwu/pZYFu/ZZ64L71XBIwG2i93J/xgBvay+Wl12DeUEvtJjhECJhxD6qWw+Ws4aEzSwFTwCw0PCV6Yt2q4Um2MwGzrdbLmx5ashaVhbGuAtek0rEsL2mdFTDreVDNGw6XywGOVRYwxxkwWx37XPv76dSGoJmAeX4NfywtWdMKmui3QeF6XuH6pWutlk0HzMiZqtHhcjPQ1RYEzPEFzFXD4fJmQKu6TATMuh/EmwrOt69Cvys0gHrZ8029z7+z7TPbDpgtr7G3GeCyZTMBc5QBc9no+3g6wGX1bo52FhIwTwxbYwqXfYXMPlry5oVftA+rAGixbD9gRt4f++DhMZsBb7gwETBHFTAXwTtKRYbLoa5TvREw6xujtKk0XJcKmdOez3MZNNFplweHmxk+nIApXNb9chMwxxEwWx2eMhnwrnPHE6IEzBNcFWpWrlWpmtaqonOe5wfq1TMfBPv88L7IgVUX+DADZqvhcj2SrWP3AubgA6ZwOa6jSMD8sYeWrejZvYeU0puKX+53KaW3wd0F935LKX2s5Jyv8/G14Pmta3QnB47CJjAE/pJSug3siXk/kt/IEJTh/77boN/5Nt+Hh6DvrjerYqUDZomlYz40EE4+5SPyeszyA+NQ8XW4dguOPlxGTUJ7GxguZwXW8APh8mkrO7TV7VXhv/c6+PNvK2q1+553Awn0UNvL4T5cXgYHY616DCVcRrQAHvJ9eFDJG6/SLZjzAYS2rtzlMLwKDvSXijmVWQa+HKLD5bqCLrmnhpBMBzZW+YcT3yvbDv/mLyPpXbkIDJeRw1NSJZN4b58I0HOP+bKmBZbUcE3amexEf/ocLL5seF/jaY+TSFbPvNbz/N/UuBFCRMNFaxMg+p7ks2l0Yl3qaXLd/mhIz6nn9zDn5KLCrWMHF4AXPeyh24LoZU6gloAZOVO1RIvGtvAalOuOWiMnOWzuBEwBM2DJm5LhclJ4vctth9lilp9TewGzvVrHRPAe56b2NBEwWw+X84ItJZHDZpY9B00Bs9+AuWz8XbMpGCzngSF5LWC2UzCuGr82ey27DDhgThoPl6nQWntXhSrKfb7gBMz+Auay8ffMdAAVvMfnsx1ywCw5izxy4Pnnxl/4141edzglzEQtg3KZJ/WUaL2M7Pp7mHH7ptCyYocccH6ufBkzujMLrIy9LTSZNHrd2YdllUqtRHOX/967oRa6V4ULeGTBaNmfgZ/9d89Weg6Xs6BK2dtC5/E+OOz90tNqD/fPzX8M4PnJ99+928bD5SS4lfS6wMz3b/lYsHI52IA5CS4cLdOCyRBFLYNyW3C3rmlgd9Khx5daTd+B+HAZ8f59V7BiFNltfRm8IPwpPlXwHZoOmFGGsKWgbiqGJmqXntvCD+L/HkGwEzKHaRK4KcBl4U1Nfgv63NuKuqhvK9/mWsBslAc7Q3IxkHCZGt3K8tyQ+VZld1DhMmp4ymXB4Skpn8M0KDvU1mp4XfjaDiJg2owexmEZ1J3Vx8tgEdT68zF3idVY0X2rCA/C1UDCZQpsvay1QnVZ6fOh2oBp314YR7iMmKl66GkQ/OugoPyh4t/w01BebiO2CRo3fNlTBWQRVMmree7GIHoTXrkXgQ7MAsNlX+MDFyN9cegqbztcRg1PedvTc2Ua8Ez5UPnveBjC8kWlAua1+x4GHS63AwuX04AX23Ujz8L76/5Pxbo5q+Cxz32IaIl910gF6rL1OSavBvJycw7Qb7icDChcRr3YPjT0u37UitmUZZ5cFxUu+yoLrwOeK5cN/a4fBMx+TZwD9OZ9UPnte5b1Tx1/3l1jPTkHYzGbshlguEwBjS+ttcw33Yr5qvADq6XWhpIiv78lkGitcvS2gnAz9hdb0k0+aocKwuUkYJjKZYO/xScBs9+g03oX8+vAz/6XZyUNeVvJS2DmJfHvZ/adIilcDuQebLU8/y5gfl/kD/tr4zf0vNHrDkMMl6njltmWg5pu8nGGyxp6vrpuvfyj0d+k2edHyYD5V3BAa3Uc46LhYA9d+VBRuOy6wtfyKhqfFU3hciABs+X78FrA7PcCLRotOL8pmIzc/QttPeDz+9z4b8M4vBv4793yu/AvAbPfB9X7Bq//NDgYeznQglllFcSue0Na7kXQAzIeF5X1BL72Lmw7HJeeRX4XHNaWjV3/942HeujKJqBL7CWB133Y+MuNsypWVwM9N2u6DjxglnhQtdSKWSIQGz+FlxtwqvlAh6uo5I0gYH4uENpWjVz7iwJ/wwxQWjIrdF+UpOWE1rwf4O5yluvrwY+F/96noB0HHt8cnyofO7QoMObstvKX2/f2etYtN06rXBEdSuXIMBVadJVS+lkFiZYC5sP2Y5HhanJ0c9QarDYF/k5Ni7PO8/FTrhk/Z6zdda4sfD76d+rxLqDVcTOgRb5niggFfOh4iNjDe+qNS1sF20mfaJlS+lLg2FRaSG4Knf+05/Nc5qDf9XntcqDx4j5fl7/HPLc6dv073/R4fdYdn0vrdh1ei3VQBbbrMt1iGYt4t/Q55Gw78Dww9DJefAxmyi2Yh0JBdl1ZuNwWDEbLnm6C+1C5zzd0REv1wzjbm/ziW6nd9e5jwJCGWY/3753Wh/+456jfm4B361Aq862X4SafIX0EzEPB8VXvKwmZpcPlw7nvCq0vuMx/a1t4PcNpfgDuKlzDzcutmzI8H0DAnDXeckIb7vJ2q1276unZeusebPv7v+rp7/6zcNDa9Fxz2vZUQKb54RD19+e5JXFTQZf8KgfNtaDZi8PAXm4C5v97htCOTwFbrk57eof+q+N3RMtl+bWi/TzbQmMRj8d0lS5gi9xd/KWSY9PRy3oSNL6yq2Pf8NahJUSO5bkI+D23PVRYuvz+La/vuen4WhiD+T8ix/lOOh4329d4zK7Hdi89s8uOwezTvKfgsS70grqqOHytBhSav/di15pZNmBGTWRbN3yN9g2Xlb2A2VzAfGg1j3imzhrOCK1O9FkImG20Yh7PRF4GBct1IwFsd0Yhu2gkWD4+TzPOywXMyJfbvOFn08KLTcAsGDAj/sbD83TSaE/CXi/CuALmvILwse6g63yWC8G+wQC2PeH8Jz1WBrp6sCzlymIBMwUtXbQv+HLbaD0JebEJmOUCZlQjzlXDLegLvQjjCZhRD7Fzx2he5AI4PSFQLvN33zUcvI6Pb83CLrl2Z/QhZJYLmClomEip8ZgRAbml4RqToHtQwCwbMKdBAWXVaE/CtrFn9XIAvUG9P8j2Fbd8bY+OLwM/Ho/PHFK4FDLLB8yoe7vEeMzZAMaR1hSABMx+AmYKGupQajzmeuThaidg1tla4HhZa+5igOFSyCwbMFPgMJh5g11T+0ZaMaeBlX4Bs3zATEHj50uMx5wPYFWK2lovv4xxfdsrwc4hZA4uYEa93EqEtauRbGH7WOSwJQGzn4AZ1Rt11WBFr4WAFd2zO9itIr/lbaEtJCHZz7yodx3vypGOlgKL9EdQq0TNL7e5Fv5BitoIYVFgPOZ1UCWq5t6E90NYYu9VZTfAG88BCtYQrZPZdgVyHjyuMWpL21pfbpOG1wrk+25zZa+1ynpERe9hm+FaK3mrIRS4V5V9n+ugG2CoNVJe/pDxQi33cvsQVNOfB95jn4LKXY27+2xsDTl4H4NaBCMr61EVvWWFrfXTxnf+qjpgPtwAl54DT3qbUvpH0At7bBa2lSx6b39q7OX2e9Dnziur3GzcB6PxJqCBIrJF8BCYCTYVhUy9aoUfeCajfH9yynQkSyhFL880ppu6z8HiUfskR84MjVzrdjOyZ61JPv+j9CSfr1WsW5o8OR/4pM/SSwLOxx4wJwNeJucli6E/dQPuXKOQaytgdvugmjcUXlLgmpA17JlfuiIvYNYRMFPg6g5R4zFvBhoyZz1knbk2TCHznJaOVWNbVu4qWsx+KmAWe1CtG3pwltgM4qbwqgbTnp6tAmY9ATMqtN0EVZiWhd6zJSt7i57e1wKm7vKza1aToNppVw+f9XcK+DTfeKX3d98ImEUfVDcNDXdYFwxgkwLhpq9KqIBZV8CcBZWFTYPDVY4bPZYFKnh9rv0tYAqZL262r2l85ubMFppJvgY7rZiDC5hRO8ZcNdqKeRySuw6ape8jAbONgJkCd9JbBrX4lSqr24BzmFaSZQTMnprIa5p4Muvwptz12GI57+gFedHoC1DALH9PR6wjt+qpYrZ4QdjsoydAwGwrYKag1rSo8ZjbHoZxXbygXEzzc66mybhFAuYPDb4cZ/lmGHJL03XQUhL3D7X/LjjG5DKva3ro+GUSOSniLi8BNfSA2ZVfOlhX7ypoiZyfA3YQuulxB6jbfPyV/3n4SiXs/rv9Lf+zxlaKDwEhc97xKgK/BK0V+fhZ/L6id/kkaG/x23w9Dx1ngJue38/35/Wvb5STaT5+yt+1xqxSoow3azLgvcvXBa7dpvHxjLPgFpmFFsyiNeGopYsiXpgzEw61YA6wBTMFru6waeD6je3QRX6CRWMzpmuaRbpofLJMZMjcCJjFH1SzwCWAvNwETAHzNBcNjce0wkzlAfNV4y/KT7k782PD53DI3cgR3XlPmQZ2H7wt1F0YtXe92l15UVtJLgLGY64L36tQyrugsh2xX/lbWyZTMjBtGpvEs+5xgeWoQd2lx5tEtSbNtGD2UhPeNvJ7TgbUe6IFUwvm43fpvpH1MZfuKS2YJdwd7dF9WXmL5Yf8Pdc91sAiCtiH/DuU9DHob2rF7EdUq0TXE8MOAZMXan1eaa0dl7vcktm1WcCOaZdBPR81/iZU1qK5rmj7xJtc26phz+tZ0ISKviyNwxxMC2YKHB981UjZq+lYdNyqrAWz/hbM40pZK+MxNwNfsnBhkk+9+loL7ibX2KYVXo8hrR8Z0V15I2D2+qDaNLQ+5nLg29MKmOMMmFGrO0Stj7kZcCVvLmC2YZZv7m1AKNnlQr6sfJ3O9QB3wIl4uAiY/T2oJoG9DzMh81nj5QTMcQbMFLh0UdR+5UMLmRcNl3E6mhy0qqTru6+b8GagrbITAbPXB9UscGeOSdD33Q+kS+74+giY4w2YKXAi5aax79tXD0KzAfOVfPnvwbN/vfAzbhsb7N91a2MNOwJcBwUG+nMbNNlgGvRyu+1hubGujWXyEs8LbLdBrf6LoO/b+hJGl4WW+xMwqd6flbwYzbQbno9BlYdF0HjMuxzQPjYa6P9h1jhf8SYosG2Chldd5vvwVrgUMGnbne9Bgy+3i6BW6ofNE35pqExearnkO8/WiNAzCVrdIR31KLSyjNEhX+O3Qyk0AibQyoM3wlXgWNvroxfcoeJr+8auKJzgU9Aa0xHrYx5b55b564qv7W2u4F0OqcAImEArL7eIbudp8Jqnh/yC+7nCl8dlfvF+Urw40bugVvlV0HjMBw9DV36pLGg+VJ5/HuLQFAETaMWHoIdw1HjMxy+4h53G+m7RfAiWWi05JxC9CfrsTYHl7q6PgmafFb67ox39LodaWH50v9CBeSW1QrO+T/NLh59128PLbRr02aVeLOt83AfbX/M/o5fEuv+dfs8vs+ee67sOv99d0Lm1VqYvK++y/d71+bnxZdyu8/Euz2b/tdDSPZ9SSn+cESpvG35uj956ZIuWbge4reI0YB0yi9FSspK27vDe3OfxpavKN32AWkxy2LzIazt3vfnKZGwXVAvmOH3uODzNK3lBR9RyoWSLynGFaXpUrv/+RFA8HC0Vdp1bCa2oAM9z+ErL4jwHw4fesddP/PcPa2ofcgvhrSEopBG2YK4G2Np3FbCbCQBwBpN8xili/MVvPZ7PNGAGojEqACBg0nN4WvY41ut9I9cIAARMBusQFKAuejiXaQ63XfusmACAgMnzRO3vvCh8HpuGrg8ACJgM2ufAwFdqPcp10OQis/8AgE6CyhjXS9wHzCb/ktcQi17zaxn03b8U2NUFAAZNC+a4Re1BPMsLRk8Dw+WmwesCAAImg/d74GfPcktml627kxwsI8PltUWqAYAuXLywS3XR8LnvAruaj7eSfGlr5rLQd126HQCAczwsbXPV4TjEhz1HWwubywKh7ThoPmcC0KRgsHz4DQGAF/phZOd7H1Z+LRACD3kc3++NLHezK7xI+l2+Ln9+ZT3Ohz2YX/cweertV/aiBQD4D5M8S3xfsKXu8YzqZQPB+8vID62XAMBJ+gyWXwswNXef34w8YBp7CQA8aV5w3N5zj22Pe3Z/75qNNVxeuWUAgG+ZdDAjvMSxr3Qx74sRhst9pYEfAKjArOJWy6daMyeVBfSxdZUv3DoAwNcsKxprec7YzFllQX0/knC5cesAAF+zGkg3bU0hczGCcHnj1gEAvmZjJnOY5cDD5cTtAwA8NtQJKXPX2KQeAKC85cBnNc+EzFFcWwCgEgtL5wj0usUBgK6MaYbzTYXBft/wQurCJQDwVWNbo/GiwoDf2m+wdtsAAN+yHuk2hnO/xdnri87dNgDAt8xGvE/2rtLu3VneiajWVktd4gDAk7YjDpi1d/MuK9qic2MJIgDg1ADzZeRHC2s39hk0BUsA4Fl2PczeXudZ08dj+Cb5fy/z5JudfbO/alFoh6Vd3iZUVzgA8CzLgi2E6zNaweaFt6tsqZVuchQ2uwrj2xwqLZYOABX7ofLvty0wE/hjSulDSunwgs+Y5iAV/V0/NLzsziQHw/tr9LcTQuL97/FnSukupXSbDwCAF5kVaLXsOhCuCnxnAADOdBE8zjKqm3UevOPNQtEAADjPvuE9qSO3tNwoGgAA5wW01pf7WeomBwCox3og3csXI9o+EgCgahE791z1cB6ToK7ytSICAPA8Q1pDMqKrfKuIAACcbjaQ1stje+MwAYCxeFXhd4poafy953O67PjzbI8IAAiYzxCxPuWnns/pj4DPNNEHABAwe3LtOwAAjDtgvu748z5Xcl5d76U9U3wBAAFz3A4df55xmACAgNmT64EGTAAAAXPkBEwAQMAciFpmW08VNwBAwKRmWkQBAAHzRF3Ptn5dyXnNK79OAACDDZj/6vjzaljOx5JCAICA2aO7jj9vklJa9HxOvwV8phZMAEDA7Clg3vu153PqOuAejMEEAHieLwFHX7O4lwHnslVEAACe5yYglG16OpddwLmsFREAgOe5CGrFLL0m5nog5wEA0LxFUDDbFdzDex50Dl8UDwCA8+yDwtlNgZA5C/z+V4oGAMB5NoEtgJEhMzJcfsmThgAAOENkF/NDyOx6AfRFcLjcF+ziBwAYpF1wyLwPbKsOvuckcGJSDTPhAQAGY1kgtD1M/jmn63maZ4rvC33PqSIBAPByu0Lh7aFFc5PD5re6z+e51fOq4PfSegkA0KFl4SBX66H1EgCgQ7uRh8sLRQAAoFvzEYdLM8cBgKb8VyPf8y6HrP81wt/of6eUbhVVAIDuTUbYVW7XHgCAYLMRhcudrnEAgDKWIxl3OfNTAwCUsxl4wFz4iQEAhMyujqWfFgBAyBQuAQCETOESAIBvu2h8Qo9wCQBQoWUOay2FyxuzxQEA6jbNoa2V/cWtcwkA0IhVxa2Zu7y3OgAAjZlWNgHoPvCutVoCAAiagiUAAN8MmuvcRV1qAs9SsAQAGIdFnmSzCwiVazPDAYAx+8El+HfL5jyl9FMOhtN8fM9tSukupfRn/vfrlNLB5QQABEyeMnvUxX2XDwAAAACghFcuAQAAAiYAAAImAAACJgAACJgAAAiYAAAImAAAIGACACBgAgAgYAIAIGACAICACQCAgAkAgIAJAAACJgAAAiYAAAImAAAImAAACJgAAAiYAAAImAAAIGACACBgAgAgYAIAgIAJAICACQCAgAkAAAImAAACJgAAAiYAAAImAAAImAAACJgAAAiYAAAgYAIAIGACACBgAgCAgAkAgIAJAICACQCAgAkAAAImAAACJgAAw/R/AgAA//+ZTQ0vt0f5nAAAAABJRU5ErkJggg==;" parent="1" vertex="1">
          <mxGeometry x="530" y="210" width="161.95" height="90" as="geometry" />
        </mxCell>
        <mxCell id="T0iIaT5kWEUsBNiSIZ3S-1" style="edgeStyle=orthogonalEdgeStyle;rounded=0;orthogonalLoop=1;jettySize=auto;html=1;" edge="1" parent="1">
          <mxGeometry relative="1" as="geometry">
            <mxPoint x="650" y="380" as="sourcePoint" />
            <mxPoint x="650" y="300" as="targetPoint" />
            <Array as="points">
              <mxPoint x="650" y="330" />
              <mxPoint x="650" y="330" />
            </Array>
          </mxGeometry>
        </mxCell>
        <mxCell id="T0iIaT5kWEUsBNiSIZ3S-2" value="Write&lt;br&gt;payment&lt;br&gt;success/failure&lt;br&gt;event" style="edgeLabel;html=1;align=center;verticalAlign=middle;resizable=0;points=[];" vertex="1" connectable="0" parent="T0iIaT5kWEUsBNiSIZ3S-1">
          <mxGeometry x="-0.3889" y="-3" relative="1" as="geometry">
            <mxPoint x="-3" y="-16" as="offset" />
          </mxGeometry>
        </mxCell>
        <mxCell id="T0iIaT5kWEUsBNiSIZ3S-4" style="edgeStyle=orthogonalEdgeStyle;rounded=0;orthogonalLoop=1;jettySize=auto;html=1;exitX=0.5;exitY=1;exitDx=0;exitDy=0;entryX=0.25;entryY=0;entryDx=0;entryDy=0;" edge="1" parent="1" source="T0iIaT5kWEUsBNiSIZ3S-3" target="jxB2_oSXEbl3HwbQnMSM-27">
          <mxGeometry relative="1" as="geometry" />
        </mxCell>
        <mxCell id="T0iIaT5kWEUsBNiSIZ3S-5" value="Write&lt;br&gt;user" style="edgeLabel;html=1;align=center;verticalAlign=middle;resizable=0;points=[];" vertex="1" connectable="0" parent="T0iIaT5kWEUsBNiSIZ3S-4">
          <mxGeometry x="-0.4133" y="2" relative="1" as="geometry">
            <mxPoint x="34" as="offset" />
          </mxGeometry>
        </mxCell>
        <mxCell id="T0iIaT5kWEUsBNiSIZ3S-3" value="Identity service" style="rounded=1;whiteSpace=wrap;html=1;" vertex="1" parent="1">
          <mxGeometry x="400" y="50" width="120" height="70" as="geometry" />
        </mxCell>
      </root>
    </mxGraphModel>
  </diagram>
</mxfile>
